<?xml version="1.0" encoding="UTF-8" standalone="no"?><!DOCTYPE svg PUBLIC "-//W3C//DTD SVG 1.1//EN" "http://www.w3.org/Graphics/SVG/1.1/DTD/svg11.dtd"><svg width="100%" height="100%" viewBox="0 0 14245 5977" version="1.1" xmlns="http://www.w3.org/2000/svg" xmlns:xlink="http://www.w3.org/1999/xlink" xml:space="preserve" xmlns:serif="http://www.serif.com/" style="fill-rule:evenodd;clip-rule:evenodd;stroke-linecap:round;stroke-linejoin:round;stroke-miterlimit:1.5;"><rect id="Artboard1" x="0" y="0" width="14244.1" height="5976.38" style="fill:none;"/><rect id="background" x="0" y="0" width="14244.1" height="5976.38" style="fill:#a56e94;"/><g id="grid-lines" serif:id="grid lines"><path d="M2312.1,2518.99l-1483.37,0l-0,-637.857l4453.01,-0l-0,637.857l-2969.63,0l-0,2401.19l1493.01,-0l0,-2401.19" style="fill:none;stroke:#fff;stroke-width:27.75px;"/><path d="M10445.9,2518.99l-1483.37,0l0,1209.03l4453.01,-0l0,-1209.03l-2969.63,0l0,2401.19l1493.01,-0l-0,-2401.19" style="fill:none;stroke:#fff;stroke-width:27.75px;"/><path d="M13415.6,1205.02c-6.344,-152.383 -132.058,-274.151 -285.989,-274.151l-4167.02,-0l0,1588.12l0,-637.857l4453.01,-0l0,637.857l0,-898.79c0.167,4.01 0.252,-413.079 0.252,-409.029l-0,3422.76c-0,157.981 -128.26,286.241 -286.241,286.241l-6007.42,-0l-0,-1913.57l920.204,0l-0,1913.57l920.204,-0l0,-1913.57l-2760.61,0l0,1913.57l920.205,-0l-1840.41,-0l-0,-1913.57l920.204,0l-920.204,0l-0,-1125.47" style="fill:none;stroke:#fff;stroke-width:27.75px;"/><path d="M5281.73,2112.48l-0,-1181.61l-4166.77,-0c-157.98,-0 -286.24,128.26 -286.24,286.24l-0,2510.91l4453.01,-0l-0,1192.16l-4166.77,-0c-157.98,-0 -286.24,-128.26 -286.24,-286.241l-0,-905.918" style="fill:none;stroke:#fff;stroke-width:27.75px;"/><path d="M5281.73,1881.14l3680.82,-0l-3680.82,-0Z" style="fill:none;stroke:#fff;stroke-width:27.75px;"/></g><g id="pay-outs" serif:id="pay outs"><g><g transform="matrix(120.372,0,0,120.372,10606.4,5387.94)"></g><text x="10035.7px" y="5387.94px" style="font-family:'Futura-Bold', 'Futura', sans-serif;font-weight:700;font-size:120.372px;fill:#ffe33b;">P<tspan x="10112.3px 10200.3px 10283.1px 10360.8px " y="5387.94px 5387.94px 5387.94px 5387.94px ">AYS </tspan>4:1</text><g transform="matrix(210.718,0,0,210.718,10009.2,5419.79)"></g><text x="8723.4px" y="5419.79px" style="font-family:'Futura-Bold', 'Futura', sans-serif;font-weight:700;font-size:210.718px;fill:#ffe33b;">SEVEN OUT</text></g><g><g transform="matrix(120.372,0,0,120.372,8520.07,5385.73)"></g><text x="7949.39px" y="5385.73px" style="font-family:'Futura-Bold', 'Futura', sans-serif;font-weight:700;font-size:120.372px;fill:#ffe33b;">P<tspan x="8025.94px 8113.94px 8196.75px 8274.51px " y="5385.73px 5385.73px 5385.73px 5385.73px ">AYS </tspan>1:1</text><g><g transform="matrix(109.121,0,0,109.121,7928.09,5424.86)"></g><text x="7787.11px" y="5424.86px" style="font-family:'Futura-Bold', 'Futura', sans-serif;font-weight:700;font-size:109.121px;fill:#ffe33b;">1<tspan x="7853.89px " y="5424.86px ">2</tspan></text><g transform="matrix(1,0,0,0.880819,0,450.333)"><g transform="matrix(107.202,0,0,107.202,7791.51,5588.77)"></g><text x="7731.48px" y="5588.77px" style="font-family:'Futura-Bold', 'Futura', sans-serif;font-weight:700;font-size:107.202px;fill:#ffe33b;">/</text></g><g transform="matrix(109.121,0,0,109.121,7716.18,5340.29)"></g><text x="7641.98px" y="5340.29px" style="font-family:'Futura-Bold', 'Futura', sans-serif;font-weight:700;font-size:109.121px;fill:#ffe33b;">2</text></g></g><g><g transform="matrix(120.372,0,0,120.372,7260.54,5381.41)"></g><text x="6689.85px" y="5381.41px" style="font-family:'Futura-Bold', 'Futura', sans-serif;font-weight:700;font-size:120.372px;fill:#ffe33b;">P<tspan x="6766.41px 6854.4px 6937.22px 7014.98px " y="5381.41px 5381.41px 5381.41px 5381.41px ">AYS </tspan>5:1</text><g><g><g><path d="M6209.72,5234.65l0,74.642c0,9.095 -7.384,16.479 -16.479,16.479l-75.423,-0c-9.096,-0 -16.48,-7.384 -16.48,-16.479l0,-74.642c0,-9.095 7.384,-16.479 16.48,-16.479l75.423,-0c9.095,-0 16.479,7.384 16.479,16.479Z" style="fill:#ffe33b;"/><circle cx="6155.53" cy="5271.97" r="9.746" style="fill:#a56e94;"/></g><g><path d="M6339.57,5270.07l0,74.641c0,9.095 -7.384,16.479 -16.479,16.479l-75.423,0c-9.095,0 -16.479,-7.384 -16.479,-16.479l-0,-74.641c-0,-9.095 7.384,-16.48 16.479,-16.48l75.423,0c9.095,0 16.479,7.385 16.479,16.48Z" style="fill:#ffe33b;"/><circle cx="6285.38" cy="5307.39" r="9.746" style="fill:#a56e94;"/></g></g><g><g><path d="M6658.66,5381.45l-0,74.642c-0,9.095 -7.384,16.479 -16.479,16.479l-75.424,0c-9.095,0 -16.479,-7.384 -16.479,-16.479l-0,-74.642c-0,-9.095 7.384,-16.479 16.479,-16.479l75.424,0c9.095,0 16.479,7.384 16.479,16.479Z" style="fill:#ffe33b;"/><g><circle cx="6567.21" cy="5384.01" r="9.746" style="fill:#a56e94;"/><circle cx="6567.21" cy="5453.58" r="9.746" style="fill:#a56e94;"/><circle cx="6641.72" cy="5453.58" r="9.746" style="fill:#a56e94;"/><circle cx="6567.21" cy="5418.77" r="9.746" style="fill:#a56e94;"/><circle cx="6641.55" cy="5418.77" r="9.746" style="fill:#a56e94;"/><circle cx="6641.72" cy="5383.96" r="9.746" style="fill:#a56e94;"/></g></g><g><path d="M6528.81,5346.03l-0,74.642c-0,9.095 -7.384,16.479 -16.479,16.479l-75.424,-0c-9.095,-0 -16.479,-7.384 -16.479,-16.479l-0,-74.642c-0,-9.095 7.384,-16.479 16.479,-16.479l75.424,-0c9.095,-0 16.479,7.384 16.479,16.479Z" style="fill:#ffe33b;"/><g><circle cx="6437.36" cy="5348.59" r="9.746" style="fill:#a56e94;"/><circle cx="6437.36" cy="5418.16" r="9.746" style="fill:#a56e94;"/><circle cx="6511.87" cy="5418.16" r="9.746" style="fill:#a56e94;"/><circle cx="6437.36" cy="5383.35" r="9.746" style="fill:#a56e94;"/><circle cx="6511.7" cy="5383.35" r="9.746" style="fill:#a56e94;"/><circle cx="6511.87" cy="5348.54" r="9.746" style="fill:#a56e94;"/></g></g></g><g transform="matrix(1,0,0,0.880819,0,450.333)"><g transform="matrix(107.202,0,0,107.202,6410.24,5588.77)"></g><text x="6350.2px" y="5588.77px" style="font-family:'Futura-Bold', 'Futura', sans-serif;font-weight:700;font-size:107.202px;fill:#ffe33b;">/</text></g></g></g><g><g transform="matrix(120.372,0,0,120.372,5788.63,5385.73)"></g><text x="5217.95px" y="5385.73px" style="font-family:'Futura-Bold', 'Futura', sans-serif;font-weight:700;font-size:120.372px;fill:#ffe33b;">P<tspan x="5294.51px 5382.5px 5465.31px 5543.07px " y="5385.73px 5385.73px 5385.73px 5385.73px ">AYS </tspan>1:1</text><g transform="matrix(210.718,0,0,210.718,5166.72,5417.58)"></g><text x="3655.03px" y="5417.57px" style="font-family:'Futura-Bold', 'Futura', sans-serif;font-weight:700;font-size:210.718px;fill:#ffe33b;">GUMB<tspan x="4374.84px 4569.75px " y="5417.57px 5417.57px ">O </tspan>TIME</text></g></g><g id="Grid"><g><g transform="matrix(530.986,0,0,530.986,9886.06,4517.6)"></g><text x="9524.99px" y="4517.6px" style="font-family:'Futura-Bold', 'Futura', sans-serif;font-weight:700;font-size:530.986px;fill:#ffe33b;">8</text></g><g><g transform="matrix(386.172,0,0,386.172,11804,4607.31)"></g><text x="11325.1px" y="4607.31px" style="font-family:'Futura-Bold', 'Futura', sans-serif;font-weight:700;font-size:386.172px;fill:#ffe33b;">1<tspan x="11541.4px " y="4607.31px ">1</tspan></text><g transform="matrix(132.747,0,0,132.747,11313,4394.12)"></g><text x="11096.1px" y="4394.12px" style="font-family:'Futura-Bold', 'Futura', sans-serif;font-weight:700;font-size:132.747px;fill:#ffe33b;">OR</text><g transform="matrix(386.172,0,0,386.172,11108.4,4308.03)"></g><text x="10598.7px" y="4308.03px" style="font-family:'Futura-Bold', 'Futura', sans-serif;font-weight:700;font-size:386.172px;fill:#ffe33b;">1<tspan x="10845.8px " y="4308.03px ">0</tspan></text></g><g><g transform="matrix(386.172,0,0,386.172,13139.9,4649.04)"></g><text x="12641px" y="4649.04px" style="font-family:'Futura-Bold', 'Futura', sans-serif;font-weight:700;font-size:386.172px;fill:#ffe33b;">1<tspan x="12877.3px " y="4649.04px ">2</tspan></text><g transform="matrix(132.747,0,0,132.747,12666,4379.78)"></g><text x="12449.1px" y="4379.78px" style="font-family:'Futura-Bold', 'Futura', sans-serif;font-weight:700;font-size:132.747px;fill:#ffe33b;">OR</text><g transform="matrix(386.172,0,0,386.172,12439,4307.64)"></g><text x="12176.4px" y="4307.64px" style="font-family:'Futura-Bold', 'Futura', sans-serif;font-weight:700;font-size:386.172px;fill:#ffe33b;">9</text></g><g transform="matrix(105.672,0,0,105.672,12944.8,3486.96)"></g><text x="12357.3px" y="3486.97px" style="font-family:'Futura-Bold', 'Futura', sans-serif;font-weight:700;font-size:105.672px;fill:#ffe33b;">B<tspan x="12429.8px 12523.6px 12608.5px 12644.4px 12716.8px 12801.6px " y="3486.97px 3486.97px 3486.97px 3486.97px 3486.97px 3486.97px ">OX CAR</tspan>S</text><g id="boxcars"><g><path d="M13146.4,2892.98l-0,307.203c-0,37.432 -30.391,67.823 -67.823,67.823l-310.422,-0c-37.432,-0 -67.823,-30.391 -67.823,-67.823l0,-307.203c0,-37.433 30.391,-67.824 67.823,-67.824l310.422,0c37.432,0 67.823,30.391 67.823,67.824Z" style="fill:#ffe33b;"/><g><circle cx="12770.1" cy="2903.52" r="40.112" style="fill:#a56e94;"/><circle cx="12770.1" cy="3189.85" r="40.112" style="fill:#a56e94;"/><circle cx="13076.7" cy="3189.85" r="40.112" style="fill:#a56e94;"/><circle cx="12770.1" cy="3046.58" r="40.112" style="fill:#a56e94;"/><circle cx="13076" cy="3046.58" r="40.112" style="fill:#a56e94;"/><circle cx="13076.7" cy="2903.32" r="40.112" style="fill:#a56e94;"/></g></g><g><path d="M12612,2892.98l0,307.203c0,37.432 -30.39,67.823 -67.823,67.823l-310.421,-0c-37.433,-0 -67.823,-30.391 -67.823,-67.823l-0,-307.203c-0,-37.433 30.39,-67.824 67.823,-67.824l310.421,0c37.433,0 67.823,30.391 67.823,67.824Z" style="fill:#ffe33b;"/><g><circle cx="12235.6" cy="2903.52" r="40.112" style="fill:#a56e94;"/><circle cx="12235.6" cy="3189.85" r="40.112" style="fill:#a56e94;"/><circle cx="12542.3" cy="3189.85" r="40.112" style="fill:#a56e94;"/><circle cx="12235.6" cy="3046.58" r="40.112" style="fill:#a56e94;"/><circle cx="12541.6" cy="3046.58" r="40.112" style="fill:#a56e94;"/><circle cx="12542.3" cy="2903.32" r="40.112" style="fill:#a56e94;"/></g></g></g><g transform="matrix(105.672,0,0,105.672,11478.8,3484.75)"></g><text x="10899.2px" y="3484.75px" style="font-family:'Futura-Bold', 'Futura', sans-serif;font-weight:700;font-size:105.672px;fill:#ffe33b;">HARD TEN</text><g id="hard-ten" serif:id="hard ten"><g><path d="M11679.2,2892.98l-0,307.203c-0,37.432 -30.391,67.823 -67.823,67.823l-310.422,-0c-37.432,-0 -67.823,-30.391 -67.823,-67.823l0,-307.203c0,-37.433 30.391,-67.824 67.823,-67.824l310.422,0c37.432,0 67.823,30.391 67.823,67.824Z" style="fill:#ffe33b;"/><g><circle cx="11302.9" cy="2903.52" r="40.112" style="fill:#a56e94;"/><circle cx="11302.9" cy="3189.85" r="40.112" style="fill:#a56e94;"/><circle cx="11609.5" cy="3189.85" r="40.112" style="fill:#a56e94;"/><circle cx="11456.2" cy="3046.58" r="40.112" style="fill:#a56e94;"/><circle cx="11609.5" cy="2903.32" r="40.112" style="fill:#a56e94;"/></g></g><g><path d="M11144.8,2892.98l-0,307.203c-0,37.432 -30.391,67.823 -67.824,67.823l-310.421,-0c-37.432,-0 -67.823,-30.391 -67.823,-67.823l-0,-307.203c-0,-37.433 30.391,-67.824 67.823,-67.824l310.421,0c37.433,0 67.824,30.391 67.824,67.824Z" style="fill:#ffe33b;"/><g><circle cx="10768.4" cy="2903.52" r="40.112" style="fill:#a56e94;"/><circle cx="10768.4" cy="3189.85" r="40.112" style="fill:#a56e94;"/><circle cx="11075.1" cy="3189.85" r="40.112" style="fill:#a56e94;"/><circle cx="10921.7" cy="3046.58" r="40.112" style="fill:#a56e94;"/><circle cx="11075.1" cy="2903.32" r="40.112" style="fill:#a56e94;"/></g></g></g><g transform="matrix(105.672,0,0,105.672,10035.2,3484.75)"></g><text x="9333.46px" y="3484.75px" style="font-family:'Futura-Bold', 'Futura', sans-serif;font-weight:700;font-size:105.672px;fill:#ffe33b;">HARD EIGHT</text><g id="hard-eight" serif:id="hard eight"><g><path d="M9648.86,2892.98l0,307.203c0,37.432 -30.39,67.823 -67.823,67.823l-310.421,-0c-37.433,-0 -67.823,-30.391 -67.823,-67.823l-0,-307.203c-0,-37.433 30.39,-67.824 67.823,-67.824l310.421,0c37.433,0 67.823,30.391 67.823,67.824Z" style="fill:#ffe33b;"/><g><circle cx="9272.5" cy="2903.52" r="40.112" style="fill:#a56e94;"/><circle cx="9272.5" cy="3189.85" r="40.112" style="fill:#a56e94;"/><circle cx="9579.16" cy="3189.85" r="40.112" style="fill:#a56e94;"/><circle cx="9579.16" cy="2903.32" r="40.112" style="fill:#a56e94;"/></g></g><g><path d="M10183.3,2892.98l-0,307.203c-0,37.432 -30.391,67.823 -67.823,67.823l-310.422,-0c-37.432,-0 -67.823,-30.391 -67.823,-67.823l0,-307.203c0,-37.433 30.391,-67.824 67.823,-67.824l310.422,0c37.432,0 67.823,30.391 67.823,67.824Z" style="fill:#ffe33b;"/><g><circle cx="9806.94" cy="2903.52" r="40.112" style="fill:#a56e94;"/><circle cx="9806.94" cy="3189.85" r="40.112" style="fill:#a56e94;"/><circle cx="10113.6" cy="3189.85" r="40.112" style="fill:#a56e94;"/><circle cx="10113.6" cy="2903.32" r="40.112" style="fill:#a56e94;"/></g></g></g><g id="gumbo-time-right" serif:id="gumbo time right" transform="matrix(241.357,0,0,241.357,11861.7,2277.26)"></g><text x="10517.4px" y="2277.26px" style="font-family:'Phosphate-Inline', 'Phosphate';font-size:241.357px;fill:#ffe33b;stroke:#a56e94;stroke-width:1px;stroke-linecap:butt;stroke-miterlimit:2;">GUMB<tspan x="11154.3px 11332.9px " y="2277.26px 2277.26px ">O </tspan>TIME</text><g id="gumbos-right" serif:id="gumbos right"><g transform="matrix(105.672,0,0,105.672,9959.56,1653.21)"></g><text x="9109.22px" y="1653.21px" style="font-family:'Futura-Bold', 'Futura', sans-serif;font-weight:700;font-size:105.672px;fill:#ffe33b;">3 GUMB<tspan x="9577.98px 9675.73px " y="1653.21px 1653.21px ">OS</tspan> 1:1</text><g transform="matrix(105.672,0,0,105.672,11025.1,1653.21)"></g><text x="10174.8px" y="1653.21px" style="font-family:'Futura-Bold', 'Futura', sans-serif;font-weight:700;font-size:105.672px;fill:#ffe33b;">4 GUMB<tspan x="10643.5px 10741.3px " y="1653.21px 1653.21px ">OS</tspan> 5:1</text><g transform="matrix(105.672,0,0,105.672,12151.7,1653.21)"></g><text x="11236.2px" y="1653.21px" style="font-family:'Futura-Bold', 'Futura', sans-serif;font-weight:700;font-size:105.672px;fill:#ffe33b;">5 GUMB<tspan x="11704.9px 11802.7px " y="1653.21px 1653.21px ">OS</tspan> 1<tspan x="11972.1px 12043.9px " y="1653.21px 1653.21px ">5:</tspan>1</text><g transform="matrix(105.672,0,0,105.672,13288.4,1653.21)"></g><text x="12366.2px" y="1653.21px" style="font-family:'Futura-Bold', 'Futura', sans-serif;font-weight:700;font-size:105.672px;fill:#ffe33b;">6 GUMB<tspan x="12834.9px 12932.7px " y="1653.21px 1653.21px ">OS</tspan> 35:1</text></g><g id="gumbo-slam-right" serif:id="gumbo slam right" transform="matrix(361.762,0,0,361.762,12258.9,1388.51)"></g><text x="10124.5px" y="1388.51px" style="font-family:'Phosphate-Inline', 'Phosphate';font-size:361.762px;fill:#ffe33b;stroke:#a56e94;stroke-width:1px;stroke-linecap:butt;stroke-miterlimit:2;">GUMB<tspan x="11079.2px 11346.9px " y="1388.51px 1388.51px ">O </tspan>SL<tspan x="11754.2px 11980.7px " y="1388.51px 1388.51px ">AM</tspan></text><g><g transform="matrix(530.986,0,0,530.986,4736.27,4517.6)"></g><text x="4375.2px" y="4517.6px" style="font-family:'Futura-Bold', 'Futura', sans-serif;font-weight:700;font-size:530.986px;fill:#ffe33b;">6</text></g><g><g transform="matrix(530.986,0,0,530.986,3504.3,4663.38)"></g><text x="3143.23px" y="4663.38px" style="font-family:'Futura-Bold', 'Futura', sans-serif;font-weight:700;font-size:530.986px;fill:#ffe33b;">4</text><g transform="matrix(132.747,0,0,132.747,3171.77,4394.12)"></g><text x="2954.87px" y="4394.12px" style="font-family:'Futura-Bold', 'Futura', sans-serif;font-weight:700;font-size:132.747px;fill:#ffe33b;">OR</text><g transform="matrix(530.986,0,0,530.986,2958.88,4394.12)"></g><text x="2597.81px" y="4394.12px" style="font-family:'Futura-Bold', 'Futura', sans-serif;font-weight:700;font-size:530.986px;fill:#ffe33b;">3</text></g><g><g transform="matrix(530.986,0,0,530.986,2049.58,4657.54)"></g><text x="1688.51px" y="4657.54px" style="font-family:'Futura-Bold', 'Futura', sans-serif;font-weight:700;font-size:530.986px;fill:#ffe33b;">5</text><g transform="matrix(132.747,0,0,132.747,1725.19,4388.28)"></g><text x="1508.28px" y="4388.28px" style="font-family:'Futura-Bold', 'Futura', sans-serif;font-weight:700;font-size:132.747px;fill:#ffe33b;">OR</text><g transform="matrix(530.986,0,0,530.986,1498.73,4388.28)"></g><text x="1137.66px" y="4388.28px" style="font-family:'Futura-Bold', 'Futura', sans-serif;font-weight:700;font-size:530.986px;fill:#ffe33b;">2</text></g><g id="hard-6" serif:id="hard 6" transform="matrix(105.672,0,0,105.672,4825.97,3484.75)"></g><text x="4268.65px" y="3484.75px" style="font-family:'Futura-Bold', 'Futura', sans-serif;font-weight:700;font-size:105.672px;fill:#ffe33b;">HARD SIX</text><g id="hard-61" serif:id="hard 6"><g><path d="M5041.74,2892.98l-0,307.203c-0,37.432 -30.391,67.823 -67.824,67.823l-310.421,-0c-37.433,-0 -67.823,-30.391 -67.823,-67.823l-0,-307.203c-0,-37.433 30.39,-67.824 67.823,-67.824l310.421,0c37.433,0 67.824,30.391 67.824,67.824Z" style="fill:#ffe33b;"/><circle cx="4964.35" cy="2900.94" r="40.112" style="fill:#a56e94;"/><circle cx="4818.71" cy="3046.58" r="40.112" style="fill:#a56e94;"/><circle cx="4674.35" cy="3190.94" r="40.112" style="fill:#a56e94;"/></g><g><path d="M4507.3,2892.98l0,307.203c0,37.432 -30.39,67.823 -67.823,67.823l-310.421,-0c-37.433,-0 -67.823,-30.391 -67.823,-67.823l-0,-307.203c-0,-37.433 30.39,-67.824 67.823,-67.824l310.421,0c37.433,0 67.823,30.391 67.823,67.824Z" style="fill:#ffe33b;"/><circle cx="4429.91" cy="2900.94" r="40.112" style="fill:#a56e94;"/><circle cx="4284.27" cy="3046.58" r="40.112" style="fill:#a56e94;"/><circle cx="4139.91" cy="3190.94" r="40.112" style="fill:#a56e94;"/></g></g><g id="hard-four" serif:id="hard four" transform="matrix(105.672,0,0,105.672,3389.79,3484.75)"></g><text x="2706.41px" y="3484.75px" style="font-family:'Futura-Bold', 'Futura', sans-serif;font-weight:700;font-size:105.672px;fill:#ffe33b;">HARD F<tspan x="3131px 3228.75px " y="3484.75px 3484.75px ">OU</tspan>R</text><g id="hard-4" serif:id="hard 4"><g><path d="M3542.37,2892.98l-0,307.203c-0,37.432 -30.391,67.823 -67.823,67.823l-310.422,-0c-37.432,-0 -67.823,-30.391 -67.823,-67.823l0,-307.203c0,-37.433 30.391,-67.824 67.823,-67.824l310.422,0c37.432,0 67.823,30.391 67.823,67.824Z" style="fill:#ffe33b;"/><circle cx="3464.98" cy="2900.94" r="40.112" style="fill:#a56e94;"/><circle cx="3174.98" cy="3190.94" r="40.112" style="fill:#a56e94;"/></g><g><path d="M3007.93,2892.98l0,307.203c0,37.432 -30.39,67.823 -67.823,67.823l-310.421,-0c-37.433,-0 -67.823,-30.391 -67.823,-67.823l-0,-307.203c-0,-37.433 30.39,-67.824 67.823,-67.824l310.421,0c37.433,0 67.823,30.391 67.823,67.824Z" style="fill:#ffe33b;"/><circle cx="2930.54" cy="2900.94" r="40.112" style="fill:#a56e94;"/><circle cx="2640.54" cy="3190.94" r="40.112" style="fill:#a56e94;"/></g></g><g id="snake-eyes" serif:id="snake eyes" transform="matrix(105.672,0,0,105.672,1935.54,3484.75)"></g><text x="1241.07px" y="3484.75px" style="font-family:'Futura-Bold', 'Futura', sans-serif;font-weight:700;font-size:105.672px;fill:#ffe33b;">SN<tspan x="1405.81px 1490.56px " y="3484.75px 3484.75px ">AK</tspan>E EYES</text><g id="snake-eyes1" serif:id="snake eyes"><g><path d="M1544.17,2892.98l0,307.203c0,37.432 -30.39,67.823 -67.823,67.823l-310.421,-0c-37.433,-0 -67.823,-30.391 -67.823,-67.823l-0,-307.203c-0,-37.433 30.39,-67.824 67.823,-67.824l310.421,0c37.433,0 67.823,30.391 67.823,67.824Z" style="fill:#ffe33b;"/><circle cx="1321.14" cy="3046.58" r="40.112" style="fill:#a56e94;"/></g><g><path d="M2078.61,2892.98l0,307.203c0,37.432 -30.39,67.823 -67.823,67.823l-310.421,-0c-37.433,-0 -67.823,-30.391 -67.823,-67.823l-0,-307.203c-0,-37.433 30.39,-67.824 67.823,-67.824l310.421,0c37.433,0 67.823,30.391 67.823,67.824Z" style="fill:#ffe33b;"/><circle cx="1855.58" cy="3046.58" r="40.112" style="fill:#a56e94;"/></g></g><g id="gumbo-time-left" serif:id="gumbo time left" transform="matrix(241.357,0,0,241.357,3725.51,2277.26)"></g><text x="2379.94px" y="2277.26px" style="font-family:'Phosphate-Inline', 'Phosphate';font-size:241.357px;fill:#ffe33b;stroke:#a56e94;stroke-width:1px;stroke-linecap:butt;stroke-miterlimit:2;">Gumbo TIME</text><g id="gumbos-left" serif:id="gumbos left"><g transform="matrix(105.672,0,0,105.672,1822.72,1653.21)"></g><text x="972.375px" y="1653.21px" style="font-family:'Futura-Bold', 'Futura', sans-serif;font-weight:700;font-size:105.672px;fill:#ffe33b;">3 GUMB<tspan x="1441.13px 1538.88px " y="1653.21px 1653.21px ">OS</tspan> 1:1</text><g transform="matrix(105.672,0,0,105.672,2888.25,1653.21)"></g><text x="2037.91px" y="1653.21px" style="font-family:'Futura-Bold', 'Futura', sans-serif;font-weight:700;font-size:105.672px;fill:#ffe33b;">4 GUMB<tspan x="2506.67px 2604.42px " y="1653.21px 1653.21px ">OS</tspan> 5:1</text><g transform="matrix(105.672,0,0,105.672,4014.86,1653.21)"></g><text x="3099.32px" y="1653.21px" style="font-family:'Futura-Bold', 'Futura', sans-serif;font-weight:700;font-size:105.672px;fill:#ffe33b;">5 GUMB<tspan x="3568.08px 3665.83px " y="1653.21px 1653.21px ">OS</tspan> 1<tspan x="3835.22px 3907.08px " y="1653.21px 1653.21px ">5:</tspan>1</text><g transform="matrix(105.672,0,0,105.672,5151.52,1653.21)"></g><text x="4229.32px" y="1653.21px" style="font-family:'Futura-Bold', 'Futura', sans-serif;font-weight:700;font-size:105.672px;fill:#ffe33b;">6 GUMB<tspan x="4698.08px 4795.82px " y="1653.21px 1653.21px ">OS</tspan> 35:1</text></g><g id="Gumbo-slam-left" serif:id="Gumbo slam left" transform="matrix(361.762,0,0,361.762,4122.03,1388.51)"></g><text x="1987.63px" y="1388.51px" style="font-family:'Phosphate-Inline', 'Phosphate';font-size:361.762px;fill:#ffe33b;stroke:#a56e94;stroke-width:1px;stroke-linecap:butt;stroke-miterlimit:2;">GUMB<tspan x="2942.32px 3210.03px " y="1388.51px 1388.51px ">O </tspan>SL<tspan x="3617.37px 3843.84px " y="1388.51px 1388.51px ">AM</tspan></text><g><g transform="matrix(275.492,0,0,275.492,8512.56,4651.67)"></g><text x="8325.23px" y="4651.66px" style="font-family:'Futura-Bold', 'Futura', sans-serif;font-weight:700;font-size:275.492px;fill:#ffe33b;">4</text><g transform="matrix(130.478,0,0,130.478,8686.67,4545.06)"></g><text x="8508.31px" y="4545.07px" style="font-family:'Futura-Bold', 'Futura', sans-serif;font-weight:700;font-size:130.478px;fill:#ffe33b;">TH</text></g><path d="M8356.87,3532.52c0,14.598 67.342,26.453 150.383,26.453c83.08,-0 150.398,-11.848 150.398,-26.453c0,-8.577 -23.404,-16.213 -59.537,-21.061c-10.86,14.483 -28.023,23.995 -47.544,23.995c-21.827,-0 -40.705,-11.848 -51.083,-29.355c-79.403,0.727 -142.617,12.268 -142.617,26.421Z" style="fill:#fff100;fill-rule:nonzero;"/><path d="M8806.52,3751.57c0,-66.475 -21.964,-130.233 -62.371,-182.494c8.471,-10.715 10.799,-21.222 10.799,-29.516c-0,-50.348 -78.462,-71.669 -147.534,-80.668c1.601,5.407 2.75,11.021 2.75,16.964c-0,0.689 -0.169,1.302 -0.215,1.991c-0.214,6.533 -1.493,12.767 -3.668,18.603c69.738,9.818 111.11,28.75 111.11,43.117c-0,20.249 -81.855,49.673 -210.143,49.673c-128.265,0 -210.134,-29.424 -210.134,-49.673c-0,-19.468 75.85,-47.352 195.744,-49.466c-0.751,-3.033 -1.218,-6.181 -1.532,-9.367l0.13,0c-0.13,-1.631 -0.482,-3.193 -0.482,-4.87c-0,-8.302 1.731,-16.229 4.81,-23.42c-51.987,0.988 -236.235,9.948 -236.235,87.123c-0,8.294 2.336,18.802 10.806,29.516c-40.407,52.254 -62.379,116.019 -62.379,182.495c0,88.441 39.725,153.99 112.527,192.344c-6.908,24.094 -10.653,54.039 8.508,62.654c20.112,9.022 41.081,-16.381 54.46,-38.331c36.225,9.658 77.581,14.728 123.77,14.728c46.211,-0 87.521,-5.062 123.746,-14.72c13.402,21.942 34.41,47.33 54.467,38.323c19.177,-8.6 15.425,-38.56 8.524,-62.639c72.825,-38.377 112.542,-103.934 112.542,-192.367Zm-104.806,-174.231c41.585,46.304 67.241,107.219 67.241,174.231c0,160.209 -142.31,193.83 -261.699,193.83c-119.373,0 -261.692,-33.621 -261.692,-193.83c0,-67.012 25.656,-127.897 67.25,-174.254c42.589,20.242 118.722,30.703 194.442,30.703c75.72,-0.008 151.868,-10.469 194.458,-30.68Z" style="fill:#fff100;fill-rule:nonzero;"/><path d="M8550.57,3515.93c22.148,0 40.085,-17.929 40.085,-40.077c-0,-22.11 -17.944,-40.054 -40.085,-40.054c-22.11,-0 -40.062,17.944 -40.062,40.054c0,22.141 17.959,40.077 40.062,40.077Z" style="fill:#fff100;fill-rule:nonzero;"/><circle cx="8644.39" cy="3414.19" r="27.532" style="fill:#fff100;"/><circle cx="8565.59" cy="3375.58" r="20.908" style="fill:#fff100;"/><g><g transform="matrix(275.492,0,0,275.492,7580.98,4651.67)"></g><text x="7393.65px" y="4651.66px" style="font-family:'Futura-Bold', 'Futura', sans-serif;font-weight:700;font-size:275.492px;fill:#ffe33b;">3</text><g transform="matrix(130.478,0,0,130.478,7771.79,4545.06)"></g><text x="7576.73px" y="4545.07px" style="font-family:'Futura-Bold', 'Futura', sans-serif;font-weight:700;font-size:130.478px;fill:#ffe33b;">RD</text></g><g id="trinity"><g><path d="M7652.03,3919.24c-2.186,-0 -4.344,-0.855 -5.941,-2.466c-13.143,-13.143 -19.812,-29.088 -19.812,-47.358c0,-15.356 4.722,-31.819 14.011,-48.928c9.584,-17.613 23.497,-33.305 41.361,-46.615l72.716,-54.18c3.727,-2.76 8.981,-2.004 11.769,1.723c2.775,3.728 2.004,8.996 -1.723,11.77l-72.717,54.169c-15.902,11.853 -28.232,25.696 -36.625,41.166c-7.959,14.628 -11.98,28.387 -11.98,40.898c0,11.797 3.742,22.32 11.139,31.343c21.242,-10.719 33.585,-37.956 45.55,-64.367c7.174,-15.832 13.955,-30.782 22.586,-41.894c22.292,-28.695 55.794,-54.869 73.768,-67.914c3.755,-2.732 9.023,-1.892 11.741,1.863c2.732,3.755 1.892,9.009 -1.863,11.742c-17.262,12.526 -49.348,37.565 -70.364,64.621c-7.412,9.542 -13.787,23.623 -20.541,38.53c-13.66,30.138 -29.143,64.298 -60.234,75.407c-0.925,0.322 -1.877,0.49 -2.83,0.49l-0.011,-0Z" style="fill:#ffe33b;fill-rule:nonzero;stroke:#ffe33b;stroke-width:6.25px;stroke-linecap:butt;stroke-miterlimit:2;"/><path d="M7693.66,3936.6c-0.505,0 -1.023,0 -1.527,-0.014c-17.683,-0.294 -33.179,-6.949 -46.041,-19.812c-3.279,-3.278 -3.279,-8.602 -0,-11.881c3.278,-3.279 8.602,-3.279 11.881,-0c9.668,9.668 21.269,14.669 34.454,14.88c12.862,0.294 26.985,-3.755 41.88,-11.952c15.51,-8.435 29.368,-20.751 41.206,-36.654l72.788,-97.699c2.775,-3.727 8.043,-4.498 11.77,-1.724c3.727,2.775 4.497,8.043 1.723,11.756l-72.788,97.699c-13.311,17.864 -29.003,31.777 -46.615,41.36c-16.912,9.304 -33.319,14.039 -48.732,14.039l0.001,0.002Z" style="fill:#ffe33b;fill-rule:nonzero;"/><path d="M7736.02,3857.87c-3.153,-0 -6.165,-1.78 -7.608,-4.806c-1.99,-4.203 -0.197,-9.205 4.007,-11.195c8.028,-3.797 18.2,-8.911 25.668,-14.655c27.028,-21.003 52.067,-53.09 64.593,-70.335c2.718,-3.769 7.986,-4.596 11.741,-1.864c3.755,2.732 4.595,7.987 1.863,11.741c-13.044,17.977 -39.204,51.465 -67.914,73.768c-8.77,6.753 -19.979,12.4 -28.764,16.561c-1.163,0.547 -2.382,0.813 -3.587,0.813l0.001,-0.028Z" style="fill:#ffe33b;fill-rule:nonzero;"/><path d="M7904.28,3807.79c-9.877,-0 -19.167,-3.853 -26.145,-10.831c-3.264,-3.251 -5.828,-7.047 -7.636,-11.237c-14.655,3.853 -30.74,-0.21 -41.74,-11.209c-7.496,-7.496 -11.896,-17.43 -12.582,-27.826c-10.396,-0.673 -20.331,-5.072 -27.826,-12.568c-10.999,-10.999 -15.062,-27.098 -11.209,-41.741c-4.176,-1.807 -7.973,-4.371 -11.237,-7.636c-14.418,-14.417 -14.418,-37.874 -0,-52.289c11.531,-11.531 28.835,-13.913 42.83,-6.712c14.516,-12.147 36.235,-11.405 49.851,2.228c4.399,4.4 7.538,9.738 9.233,15.553c14.32,-5.381 30.979,-2.27 42.383,9.135c11.405,11.405 14.515,28.078 9.135,42.382c5.815,1.696 11.153,4.834 15.552,9.234c6.978,6.977 10.831,16.267 10.831,26.145c-0,8.771 -3.026,17.079 -8.603,23.707c7.202,14.011 4.806,31.301 -6.711,42.831c-6.978,6.977 -16.267,10.83 -26.145,10.83l0.019,0.004Zm-28.218,-41.655c1.303,0 2.62,0.308 3.811,0.911c2.466,1.261 4.161,3.657 4.525,6.403c0.589,4.512 2.536,8.533 5.619,11.616c7.636,7.622 20.891,7.622 28.513,-0c7.3,-7.3 7.832,-18.873 1.233,-26.93c-1.444,-1.751 -2.102,-4.007 -1.85,-6.263c0.252,-2.256 1.401,-4.301 3.181,-5.702l0.728,-0.561c0.407,-0.308 0.813,-0.588 1.177,-0.953c3.811,-3.811 5.899,-8.869 5.899,-14.249c-0,-5.38 -2.102,-10.453 -5.899,-14.25c-4.329,-4.343 -10.41,-6.389 -16.673,-5.646c-3.447,0.406 -6.852,-1.359 -8.463,-4.47c-1.611,-3.11 -1.135,-6.893 1.205,-9.499c8.295,-9.234 7.959,-23.287 -0.757,-32.016c-8.729,-8.715 -22.782,-9.065 -32.015,-0.757c-2.606,2.354 -6.375,2.817 -9.5,1.205c-3.11,-1.611 -4.89,-4.987 -4.469,-8.462c0.756,-6.263 -1.303,-12.33 -5.633,-16.674c-7.636,-7.622 -20.904,-7.608 -28.513,0c-0.35,0.351 -0.63,0.757 -0.924,1.149l-0.603,0.771c-1.387,1.779 -3.447,2.928 -5.688,3.166c-2.228,0.267 -4.498,-0.42 -6.249,-1.849c-8.057,-6.599 -19.63,-6.067 -26.93,1.233c-7.86,7.86 -7.86,20.638 0,28.513c3.083,3.082 7.104,5.03 11.63,5.618c2.746,0.364 5.142,2.046 6.403,4.526c1.261,2.466 1.219,5.394 -0.112,7.832c-5.577,10.242 -3.713,23.16 4.525,31.399c6.081,6.081 14.81,8.827 23.329,7.342c2.704,-0.462 5.45,0.406 7.384,2.34c1.934,1.933 2.802,4.694 2.34,7.384c-1.485,8.519 1.261,17.248 7.342,23.329c8.252,8.238 21.143,10.102 31.399,4.525c1.247,-0.686 2.634,-1.023 4.021,-1.023l0.014,0.042Z" style="fill:#ffe33b;fill-rule:nonzero;"/><path d="M7840.65,3686.26c-3.769,-0 -7.202,-2.55 -8.154,-6.375c-3.251,-13.017 -14.516,-11.462 -17.907,-10.677c-4.525,1.037 -9.023,-1.723 -10.102,-6.207c-1.079,-4.484 1.625,-8.995 6.109,-10.116c12.26,-3.083 32.604,0.504 38.222,22.936c1.12,4.498 -1.612,9.065 -6.109,10.2c-0.687,0.169 -1.373,0.253 -2.046,0.253l-0.013,-0.014Z" style="fill:#ffe33b;fill-rule:nonzero;"/><path d="M7899.67,3767.26c-0.154,0 -0.308,0 -0.462,-0.014c-4.638,-0.252 -8.182,-4.217 -7.93,-8.855c0.826,-15.132 -8.617,-16.547 -9.023,-16.603c-4.61,-0.603 -7.847,-4.834 -7.23,-9.43c0.602,-4.595 4.848,-7.832 9.429,-7.229c8.743,1.148 24.94,9.779 23.609,34.187c-0.252,4.483 -3.951,7.944 -8.392,7.944l-0.001,0Z" style="fill:#ffe33b;fill-rule:nonzero;"/><path d="M7853.25,3740.44c-4.231,-0 -7.874,-3.195 -8.351,-7.496c-0.672,-6.207 -2.676,-10.677 -5.983,-13.325c-4.301,-3.446 -9.919,-3.068 -9.961,-3.054c-4.526,0.532 -8.757,-2.816 -9.276,-7.426c-0.504,-4.61 2.817,-8.771 7.426,-9.275c1.261,-0.14 12.624,-1.135 22.334,6.655c6.908,5.535 10.999,13.815 12.176,24.618c0.504,4.61 -2.83,8.771 -7.454,9.261c-0.308,0.028 -0.616,0.056 -0.925,0.056l0.014,-0.014Z" style="fill:#ffe33b;fill-rule:nonzero;"/></g><path d="M7562.82,4025.64c-3.155,-21.185 -11.268,-35.609 -24.34,-41.92c-4.508,-2.253 -9.015,-3.155 -13.072,-3.606c-2.253,-7.212 -6.31,-13.071 -11.268,-17.128c-13.974,-11.269 -35.159,-8.564 -52.287,-4.958c-0,-0.451 0.451,-0.902 0.451,-1.352c1.352,-4.057 1.803,-7.212 1.803,-9.917c-0,-4.507 -1.353,-7.212 -2.705,-9.466c-2.704,-3.606 -6.761,-5.859 -11.268,-5.859c-8.565,-0.451 -15.326,5.409 -20.735,16.677c-1.803,3.606 -3.155,7.663 -4.507,12.17c-0.902,0 -1.352,-0.45 -2.254,-0.45c-18.931,-4.057 -45.075,-9.917 -61.752,3.606c-4.958,4.056 -9.015,9.916 -11.269,17.128c-4.507,0.451 -9.015,1.352 -13.522,3.606c-13.072,6.311 -21.636,20.284 -24.341,41.919c-5.859,40.568 9.015,69.415 20.735,92.854c4.507,9.466 8.564,17.129 10.367,24.341c3.155,11.719 4.958,22.086 6.761,31.101c4.508,23.89 7.663,39.666 27.496,51.836c2.253,1.352 4.958,2.704 8.564,4.057c1.803,3.155 4.057,5.409 6.761,7.662c14.424,9.917 25.693,2.705 33.806,-2.253c4.507,-2.705 8.564,-5.409 12.17,-5.409c4.057,-0 8.114,2.704 12.17,5.409c8.114,4.958 19.382,12.17 33.806,2.253c3.156,-2.253 5.86,-4.958 7.663,-8.564c2.254,-0.901 4.057,-1.803 5.86,-3.155c19.833,-12.17 22.537,-27.946 27.495,-51.836c1.803,-9.015 3.606,-18.931 6.761,-31.101c1.803,-7.212 5.86,-15.326 10.368,-24.341c11.268,-23.439 25.692,-52.737 20.283,-93.304Zm-50.483,146.042c-3.606,19.382 -5.86,30.65 -15.777,39.215c0.902,-8.114 1.353,-18.03 1.353,-28.397c0.45,-16.678 0.901,-35.159 4.507,-53.639c2.254,-10.367 5.86,-21.636 9.466,-32.454c5.409,-16.227 10.818,-32.003 10.818,-45.075c-0,-6.761 -0.451,-12.621 -1.803,-17.579c-0.902,-3.606 -1.803,-7.212 -3.606,-9.916c-1.352,-2.705 -2.705,-4.958 -4.508,-7.212c-1.352,-1.803 -3.155,-3.606 -4.958,-5.409c-4.958,-4.057 -10.818,-6.311 -16.677,-7.663c-5.86,-1.352 -11.72,-1.352 -17.58,-1.352c-2.704,-4.057 -7.212,-6.761 -11.719,-9.015c-2.254,-1.352 -5.86,-3.155 -7.212,-4.507c0.451,-4.508 1.352,-10.368 2.705,-15.777c15.776,-3.606 36.961,-8.113 48.229,0.902c2.705,1.803 4.508,4.958 5.86,8.113c-12.17,2.254 -22.086,8.114 -22.537,8.565c-3.155,1.802 -4.057,5.859 -2.254,8.564c0.902,1.803 2.705,2.704 4.508,3.155c1.352,-0 2.704,-0 4.056,-0.902c0,0 9.015,-5.409 19.382,-7.212c2.254,-0.45 4.057,-0.45 6.311,-0.45c2.254,-0 4.507,-0 6.31,0.45c1.803,0.451 3.606,0.902 5.409,1.803c9.015,4.508 14.875,14.875 17.129,32.003c4.958,36.511 -8.565,63.556 -19.383,85.192c-4.958,9.916 -9.465,18.48 -11.268,27.044c-3.155,12.171 -4.958,22.087 -6.761,31.553Zm-35.609,54.991c-7.212,4.958 -11.269,2.704 -19.382,-2.705l-0.451,0c-5.409,-3.155 -11.269,-7.212 -18.932,-7.212c-7.662,0 -13.973,4.057 -19.382,7.212c-0.45,0.451 -0.901,0.451 -1.352,0.902c-7.212,4.507 -11.719,6.31 -18.03,1.803c-2.254,-1.353 -3.606,-4.057 -4.958,-7.663c-2.254,-5.86 -2.704,-14.424 -3.155,-24.34c-0,-3.606 -0,-7.212 -0.451,-10.818l0,-2.254c-0.451,-17.128 -0.901,-36.51 -4.958,-55.893c-0.451,-1.803 -0.902,-3.605 -1.352,-5.408c-2.254,-9.466 -5.409,-18.932 -8.565,-28.398c-0.901,-2.253 -1.352,-4.507 -2.253,-6.761c-0.902,-3.155 -1.803,-5.859 -2.705,-9.465c-2.704,-9.466 -4.958,-18.03 -4.958,-24.791l-0,-4.508c0.451,-4.507 0.901,-8.564 1.803,-12.17c1.803,-5.86 4.507,-10.818 8.113,-13.973c2.254,-1.803 5.409,-3.606 8.114,-4.508c4.507,-1.352 9.466,-1.803 14.874,-1.803c3.156,0 5.86,0.451 9.015,0.451c5.409,0.451 10.818,1.803 15.326,2.254c0.901,-0 1.803,0.451 2.704,0.451c4.508,0.901 8.564,1.352 11.72,1.352c3.606,-0 8.564,-0.902 14.424,-1.803c6.31,-1.352 13.522,-2.705 20.734,-3.155c5.86,-0.451 11.269,-0 16.678,1.352c3.606,0.901 7.211,2.704 9.916,4.958c3.606,2.705 6.31,7.212 7.663,12.621c1.352,3.606 1.803,7.663 2.253,12.621l0,5.86c0,10.817 -4.958,25.692 -9.916,41.017c-2.705,8.114 -5.409,16.678 -7.663,25.242c-0.901,2.705 -1.352,5.409 -1.803,8.564c-4.056,19.383 -4.507,38.765 -4.958,55.893l0,3.155c0,3.606 0,7.212 -0.451,10.367c-0.45,9.466 -0.901,17.129 -3.155,22.989c-0.451,4.056 -1.803,6.761 -4.507,8.564c0.45,-0 -0,-0 -0,-0Zm-114.941,-55.442c-1.803,-9.015 -3.606,-19.382 -6.761,-31.552c-2.254,-8.565 -6.31,-17.129 -11.269,-27.045c-10.818,-21.636 -24.34,-48.681 -19.382,-85.191c2.254,-16.678 8.114,-27.496 17.129,-32.003c1.803,-0.902 3.606,-1.353 5.409,-1.803c2.253,-0.451 4.507,-0.451 6.31,-0.451c2.254,-0 4.057,0.451 6.311,0.451c10.367,1.803 18.931,6.761 19.382,7.212c1.352,0.901 2.704,0.901 4.056,0.901c1.803,-0.451 3.606,-1.352 4.508,-3.155c1.803,-3.155 0.901,-6.761 -2.254,-8.564c-0.451,-0.451 -10.367,-6.311 -22.537,-8.564c1.352,-3.156 3.606,-5.86 5.859,-7.663c11.72,-9.466 34.257,-4.508 50.935,-0.902c0.451,0 0.901,0 1.352,0.451c-1.352,4.958 -2.254,9.466 -2.704,13.072c-0.451,1.352 -4.959,4.057 -7.212,5.409c-4.508,2.704 -9.466,5.859 -12.171,10.367c-5.408,-0 -10.817,0.451 -16.226,1.803c-5.409,1.352 -10.368,3.606 -14.875,7.212c-2.254,1.803 -4.508,4.057 -6.311,6.761c-1.802,2.254 -3.155,4.958 -4.056,7.663c-1.352,3.155 -2.254,6.31 -3.155,9.916c-0.902,4.958 -1.353,9.917 -1.353,15.776c0,13.072 4.959,28.397 10.818,45.075c3.606,10.818 7.212,22.087 9.466,32.454c4.057,18.03 4.057,36.961 4.507,53.639c0,11.268 0.451,21.635 1.803,30.2c-11.268,-9.466 -13.522,-20.735 -17.579,-41.469Zm75.275,-208.696c0.901,-3.155 2.254,-6.31 3.606,-9.015c1.803,-4.507 4.958,-9.465 8.113,-9.465c0.451,-0 1.353,-0 1.353,0.45c0.45,0.451 0.45,0.902 0.45,2.254c0,1.352 -0.45,3.155 -1.352,5.86c-0.451,1.352 -1.352,4.507 -2.704,8.564c-0.451,2.254 -1.353,4.507 -1.803,6.761c-0.451,2.254 -0.902,4.508 -1.353,6.761c-0.901,4.508 -1.803,9.015 -1.803,13.072l0,0.902c0,7.662 7.663,11.719 13.974,14.874c-1.803,0.451 -3.606,0.451 -5.409,0.902c-4.959,0.901 -9.466,1.803 -12.171,1.803c-2.704,-0 -7.212,-0.902 -12.17,-1.803c-3.155,-0.451 -6.31,-1.353 -9.916,-1.803c0.451,-0.451 0.901,-0.451 1.352,-0.902c5.86,-3.155 12.17,-7.212 13.522,-13.973c0.451,-3.606 1.353,-8.113 2.705,-13.072c0.451,-2.253 0.901,-4.056 1.803,-6.31c0.451,-1.352 1.352,-3.606 1.803,-5.86Z" style="fill:#ffe33b;fill-rule:nonzero;stroke:#ffe33b;stroke-width:6.25px;stroke-linecap:butt;stroke-miterlimit:2;"/><path d="M7525.04,3287.58c-0.045,-3.103 -2.599,-5.562 -5.682,-5.562l-37.717,0c-3.128,0 -5.651,2.489 -5.682,5.562c-0.544,34.962 -23.437,63.822 -47.658,94.422c-33.456,42.218 -71.368,90.074 -49.369,161.046c12.724,44.482 59.144,73.582 118.215,74.107l1.541,0c50.366,0 107.619,-22.758 123.367,-74c22.047,-71.079 -15.867,-118.931 -49.322,-161.149c-24.223,-30.553 -47.117,-59.442 -47.659,-94.422l-0.034,-0.004Zm-25.447,309.407c-36.251,-78.725 -36.206,-157.553 0.121,-234.685c35.556,75.232 35.511,154.087 -0.121,234.685Zm-12.466,0.12c-31.416,-13.973 -52.618,-43.177 -58.993,-82.217c-7.541,-46.252 8.205,-108.228 58.254,-150.868c-34.151,76.683 -33.924,154.944 0.74,233.081l-0.001,0.004Zm26.006,-232.766c49.171,44.601 63.782,107.882 55.546,154.479c-6.618,37.345 -27.079,65.291 -56.908,78.678c34.196,-79.906 34.664,-158.167 1.36,-233.157l0.002,0Zm-123.29,175.469c-20.264,-65.442 14.113,-108.842 47.388,-150.837c24.223,-30.554 47.16,-59.489 49.867,-95.65l7.692,0l-0,50.013c-65.914,45.142 -86.737,119.277 -77.914,173.369c6.468,39.458 27.774,70.657 58.723,87.314c-36.085,-5.457 -74.316,-24.257 -85.724,-64.209l-0.032,-0Zm221.315,-0c-11.409,37.15 -48.127,57.343 -86.192,63.718c28.711,-16.087 48.278,-45.143 54.974,-82.743c9.596,-54.123 -9.671,-129.233 -73.697,-176.774l0,-50.703l7.692,-0c2.705,36.161 25.643,65.096 49.821,95.65c33.274,41.991 67.697,85.395 47.388,150.836l0.014,0.016Z" style="fill:#ffe33b;fill-rule:nonzero;stroke:#ffe33b;stroke-width:6.25px;stroke-linecap:butt;stroke-miterlimit:2;"/></g><g><g transform="matrix(275.492,0,0,275.492,6628.28,4651.67)"></g><text x="6440.94px" y="4651.66px" style="font-family:'Futura-Bold', 'Futura', sans-serif;font-weight:700;font-size:275.492px;fill:#ffe33b;">2</text><g transform="matrix(130.478,0,0,130.478,6845.44,4545.06)"></g><text x="6624.02px" y="4545.07px" style="font-family:'Futura-Bold', 'Futura', sans-serif;font-weight:700;font-size:130.478px;fill:#ffe33b;">ND</text></g><g id="chicken-and-sausage" serif:id="chicken and sausage"><path d="M6665.43,4070.79c-5.852,1.717 -12.287,-0.95 -15.071,-6.619c-0.584,-1.184 -3.768,-7.72 -8.653,-12.955c-1.151,-1.234 -2.385,-2.401 -3.752,-3.301c-1.217,-0.817 -2.601,-1.584 -4.135,-0.784c-0.733,0.384 -1.5,0.4 -1.55,0.951c-0.167,1.667 0.783,3.301 1.55,4.768c1.834,3.535 4.252,6.269 4.752,6.836c2.451,2.784 3.568,6.485 3.085,10.154c-0.484,3.668 -2.551,6.952 -5.636,8.986c-0.983,0.65 -6.535,4.252 -10.537,9.27c-1.484,1.868 -3.818,4.002 -1.884,6.286c0.65,0.767 1.634,0.367 2.551,0.217c2.401,-0.384 4.868,-1.367 7.203,-2.501c7.786,-3.785 14.371,-9.453 15.288,-10.12c5.719,-4.169 13.722,-2.918 17.89,2.801c4.168,5.718 2.918,13.721 -2.801,17.889c-1.417,1.034 -13.522,11.004 -25.993,15.306c-12.504,4.301 -25.042,3.167 -33.678,-7.036c-9.554,-11.271 -8.286,-22.925 -2.518,-33.062c2.635,-4.635 6.452,-8.853 10.071,-12.238c-1.084,-1.967 -2.101,-4.101 -2.918,-6.319c-2.601,-7.169 -2.984,-14.972 0.317,-21.991c2.2,-4.685 6.069,-9.27 12.838,-12.838c12.421,-6.552 23.975,-3.218 33.378,4.419c4.502,3.651 8.37,8.386 11.371,12.721c6.369,-16.322 17.74,-35.746 44.048,-41.448c8.786,-1.901 18.89,-2.301 29.944,-3.468c13.988,-1.484 29.777,-4.401 46.165,-15.872c34.279,-24.026 31.511,-53.737 34.346,-79.547c2.534,-23.025 8.386,-43.698 32.361,-59.255c5.935,-3.852 13.855,-2.151 17.706,3.784c3.851,5.936 2.151,13.855 -3.784,17.707c-20.175,13.071 -20.308,32.128 -21.942,52.101c19.924,-4.735 36.113,-5.768 56.955,7.353c5.986,3.768 7.786,11.671 4.018,17.657c-3.768,5.985 -11.671,7.786 -17.656,4.018c-16.656,-10.487 -29.127,-6.386 -46.101,-1.901c-0.316,0.083 -0.617,0.15 -0.933,0.217c-2.585,11.687 -6.936,23.358 -15.039,34.596c14.072,7.269 15.489,9.686 28.944,23.992c4.835,5.151 4.585,13.255 -0.551,18.106c-5.151,4.835 -13.254,4.585 -18.106,-0.55c-12.338,-13.121 -11.938,-13.838 -28.677,-22.125c-0.067,-0.033 -0.15,-0.066 -0.217,-0.116c-2.084,1.667 -4.302,3.334 -6.636,4.968c-9.203,6.452 -18.24,10.821 -26.993,13.855c11.454,19.141 11.054,35.53 10.437,47.702c-0.35,7.052 -6.369,12.504 -13.421,12.154c-7.052,-0.35 -12.505,-6.369 -12.155,-13.421c0.45,-9.12 1.151,-21.742 -8.836,-36.38c-0.884,-1.3 -1.501,-2.701 -1.851,-4.151c-1.8,0.233 -3.584,0.45 -5.352,0.633c-10.037,1.067 -19.24,1.301 -27.209,3.035c-12.955,2.817 -19.474,11.57 -23.492,20.123c-3.418,7.27 -5.252,14.556 -6.969,19.658c-2.251,6.702 -9.521,10.304 -16.223,8.052c-1.5,-0.5 -2.851,-1.267 -4.001,-2.217l0.052,-0.1Zm271.834,-268.581c-0.901,-0.717 -2.551,-1.25 -4.385,-1.834c-7.003,-2.234 -17.573,-2.001 -24.259,8.92c-2.251,3.668 -6.185,5.968 -10.487,6.119c-4.301,0.15 -8.386,-1.868 -10.871,-5.385c-0.5,-0.717 -2.267,-4.052 -5.101,-6.986c-0.551,-0.567 -1.151,-1.117 -1.801,-1.584c-0.2,-0.15 -0.567,-0.334 -0.784,-0.45c-0.333,0.2 -1.05,0.65 -1.6,1.117c-0.2,0.333 -1.101,1.9 -1.451,3.118c-1.817,6.402 1.768,14.905 18.674,23.024c6.369,3.068 9.053,10.721 6.002,17.09c-3.068,6.369 -10.721,9.053 -17.09,6.002c-19.14,-9.187 -27.677,-20.274 -31.278,-29.944c-6.685,-17.923 2.685,-33.395 7.536,-37.897c6.986,-6.469 13.772,-8.336 19.724,-8.22c6.102,0.134 11.688,2.551 16.356,6.202c0.55,0.434 1.084,0.867 1.6,1.334c13.839,-11.171 30.595,-10.687 42.632,-6.836c7.586,2.434 13.289,6.402 16.089,9.57c1.918,2.168 11.955,17.273 6.786,35.913c-2.934,10.588 -10.77,23.009 -30.194,33.746c-6.186,3.418 -13.988,1.183 -17.406,-5.002c-3.418,-6.186 -1.184,-13.988 5.002,-17.406c10.02,-5.536 15.339,-11.188 17.456,-16.773c2.201,-5.836 -0.667,-12.722 -1.151,-13.805l0.001,-0.033Zm5.368,67.476c-4.768,-5.219 -4.418,-13.321 0.784,-18.09c5.218,-4.768 13.321,-4.418 18.09,0.784c3.884,4.235 23.074,24.342 20.29,68.974c-2.934,46.916 -21.741,90.866 -24.942,98.318c-2.785,6.485 -10.321,9.503 -16.823,6.719c-6.486,-2.784 -9.504,-10.321 -6.719,-16.823c2.934,-6.819 20.224,-46.933 22.908,-89.798c2.018,-32.212 -10.803,-47.019 -13.605,-50.066l0.017,-0.018Zm-276.234,249.673c-4.618,-5.352 -4.018,-13.438 1.334,-18.057c5.352,-4.618 13.438,-4.018 18.057,1.334c3.001,3.485 9.653,13.121 25.826,18.806c18.007,6.336 46.502,7.803 91.916,-5.252c42.465,-12.204 92.334,-58.986 107.823,-79.73c4.235,-5.668 12.254,-6.819 17.923,-2.6c5.668,4.234 6.819,12.254 2.601,17.923c-17.373,23.258 -73.627,75.325 -121.26,89.013c-53.071,15.255 -86.431,12.188 -107.473,4.785c-22.858,-8.036 -32.478,-21.308 -36.73,-26.243l-0.017,0.021Z" style="fill:#fff100;"/><path d="M6668.61,3760.57c4.679,4.627 10.909,7.145 17.367,7.145c1.678,-0 3.356,-0.178 5.034,-0.509c7.832,-1.627 14.443,-6.967 17.646,-14.315c4.246,-9.764 6.204,-18.638 5.772,-26.418c8.62,-4.679 23.418,-13.832 31.987,-25.478c6.738,-9.128 6.433,-21.791 -0.763,-30.741c-7.12,-8.874 -19.375,-11.874 -29.825,-7.348l-12.739,5.543l-44.776,-52.226l1.526,-1.246c10.221,-8.492 12.637,-23.418 5.619,-34.707l-5.289,-8.493c-3.178,-5.085 -5.593,-9.356 -7.653,-13.45c-31.707,-62.982 -40.047,-130.796 -40.25,-132.195c-32.038,-146.763 -140.078,-143.867 -184.979,-135.75c-19.68,3.534 -38.623,12.485 -54.743,25.885c-17.062,14.188 -29.979,32.673 -37.378,53.471c-18.459,51.998 -29.85,147.447 101.811,202.853c0.661,0.204 65.827,20.774 121.917,63.439c3.636,2.772 7.399,5.95 11.823,9.993l7.399,6.739c5.06,4.627 11.544,6.967 18.053,6.967c5.365,-0 10.704,-1.704 15.282,-4.908l53.751,65.496l-3.508,17.925c-1.526,8.162 1.017,16.503 6.916,22.325l0,0.003Zm-80.323,-118.871l-7.399,-6.739c-4.755,-4.348 -8.849,-7.806 -12.866,-10.857c-58.303,-44.344 -123.805,-64.991 -125.888,-65.6c-119.607,-50.395 -109.485,-136.745 -92.808,-183.735c6.483,-18.256 17.824,-34.479 32.8,-46.963c14.138,-11.747 30.664,-19.578 47.802,-22.655c9.637,-1.729 20.672,-2.975 32.42,-2.975c49.785,0 112.361,22.503 135.091,126.37c0.331,2.873 8.696,71.041 41.624,136.465c2.263,4.501 4.907,9.153 8.314,14.62l5.288,8.493c3.077,4.958 2.035,11.493 -2.466,15.205l-46.53,38.699c-4.45,3.712 -11.086,3.585 -15.383,-0.331l0.001,0.003Zm34.885,3.712l23.596,-19.604l48.539,56.625c2.136,2.492 5.67,3.305 8.696,2.009l17.824,-7.756c4.246,-1.805 9.23,-0.61 12.129,2.975c2.924,3.662 3.076,8.773 0.381,12.434c-7.374,9.993 -21.892,18.434 -27.791,21.587c-4.78,2.543 -7.577,7.578 -7.145,12.866c0.585,6.942 -2.111,14.926 -4.501,20.367c-1.246,2.873 -3.839,4.984 -6.916,5.619c-3.28,0.661 -6.433,-0.279 -8.772,-2.593c-2.339,-2.339 -3.331,-5.518 -2.695,-8.747l4.195,-21.41c0.432,-2.186 -0.153,-4.475 -1.576,-6.204l-55.964,-68.168Z" style="fill:#ffe33b;fill-rule:nonzero;stroke:#ffe33b;stroke-width:11.89px;stroke-linecap:butt;stroke-miterlimit:2;"/></g><g><g transform="matrix(275.492,0,0,275.492,5749.95,4651.67)"></g><text x="5562.62px" y="4651.66px" style="font-family:'Futura-Bold', 'Futura', sans-serif;font-weight:700;font-size:275.492px;fill:#ffe33b;">1</text><g transform="matrix(130.478,0,0,130.478,5886.41,4545.06)"></g><text x="5731.79px" y="4545.07px" style="font-family:'Futura-Bold', 'Futura', sans-serif;font-weight:700;font-size:130.478px;fill:#ffe33b;">S<tspan x="5816.73px " y="4545.07px ">T</tspan></text></g><g id="roux" transform="matrix(289.629,0,0,289.629,6108.47,3864.16)"></g><text x="5380.63px" y="3864.16px" style="font-family:'Phosphate-Inline', 'Phosphate';font-size:289.629px;fill:#ffe33b;stroke:#a56e94;stroke-width:1px;stroke-linecap:butt;stroke-miterlimit:2;">roux</text><g transform="matrix(362.036,0,0,362.036,7967.44,2614.38)"></g><text x="6271.66px" y="2614.38px" style="font-family:'Phosphate-Inline', 'Phosphate';font-size:362.036px;fill:#ffe33b;stroke:#a56e94;stroke-width:1px;stroke-linecap:butt;stroke-miterlimit:2;">SEVEN OUT</text></g><g id="gumboball"><path d="M6378.11,1062.53c-9.667,16.893 -91.521,144.191 -102.491,158.793c-6.905,9.883 -13.458,19.681 -17.044,17.202c-3.501,-2.127 1.275,-23.789 3.882,-34.487c8.524,-32.265 18.223,-70.407 18.223,-70.407l-27.348,7.046l-75.971,18.537c-5.275,1.288 -9.599,4.951 -10.945,10.124l-7.959,25.419c-0.806,2.806 -0.033,5.971 1.974,8.09c2.008,2.119 4.899,3.277 7.713,2.59l42.909,-10.47c-20.173,42.561 -51.892,92.783 -101.484,104.884c-59.44,14.503 -74.176,-50.47 -44.863,-141.098c29.313,-90.628 83.963,-143.091 111.397,-149.785c35.172,-8.582 40.058,43.515 -3.096,97.273c-0,0 28.877,17.55 43.013,2.175c48.593,-52.849 30.526,-149.803 -48.259,-130.58c-40.095,9.784 -119.564,56.751 -166.949,175.639c-61.726,154.808 19.435,227.796 99.978,208.143c34.469,-8.41 62.871,-30.992 85.773,-59.313c-2.434,26.68 10.95,35.712 30.294,30.992c14.772,-3.604 31.705,-16.68 55.267,-52.987c21.615,-33.596 108.838,-178.601 116.197,-191.204c2.925,-4.813 -5.245,-35.241 -10.211,-26.576Z" style="fill:#ffe33b;fill-rule:nonzero;"/><path d="M6614.39,1004.87c-9.667,16.892 -91.521,144.191 -102.14,158.707c-7.256,9.969 -13.81,19.766 -17.396,17.287c-3.5,-2.127 1.276,-23.788 4.235,-34.572c8.172,-32.179 35.639,-138.009 35.639,-138.009l-55.837,13.998c0,-0 -6.912,26.654 -15.624,61.201c-12.178,41.728 -56.342,118.837 -76.038,123.643c-20.4,4.978 -15.255,-19.755 -12.296,-30.538c8.172,-32.18 35.639,-138.009 35.639,-138.009l-55.837,13.997c0,0 -38.426,149.496 -46.41,179.393c-11.037,41.822 5.532,77.654 40.704,69.072c22.861,-5.579 57.377,-53.502 84.884,-104.188c-3.499,13.152 -6.277,23.146 -7.538,28.671c-11.122,41.47 3.548,55.778 26.762,50.114c14.772,-3.605 31.705,-16.68 55.267,-52.987c21.615,-33.596 109.189,-178.687 116.548,-191.29c2.574,-4.727 -5.596,-35.155 -10.562,-26.49Z" style="fill:#ffe33b;fill-rule:nonzero;"/><path d="M7004.54,909.676c-9.667,16.892 -91.169,144.104 -102.14,158.706c-6.905,9.884 -13.458,19.681 -17.044,17.202c-3.852,-2.041 0.924,-23.703 3.883,-34.486c8.172,-32.18 11.225,-44.104 15.984,-62.781c14.287,-57.521 -11.296,-67.676 -38.378,-61.067c-16.882,4.119 -64.191,31.687 -112.315,141.438c5.033,-20.606 7.64,-31.304 11.765,-46.471c16.209,-55.755 -10.944,-67.762 -38.378,-61.068c-16.531,4.033 -63.839,31.601 -111.964,141.353l31.155,-121.263l-55.571,13.56l-68.313,263.74l55.572,-13.559l0.446,-1.227l-0.446,1.227c25.126,-95.569 97.579,-206.412 117.979,-211.39c11.958,-2.918 11.076,13.322 3.264,43.922c-9.253,36.915 -37.183,146.957 -37.183,146.957l55.571,-13.56c0,-0 1.707,-6.752 4.4,-17.098c28.438,-91.159 93.532,-189.4 112.524,-194.034c11.959,-2.918 11.514,13.587 3.35,44.274c-8.618,33.406 -14.192,56.38 -22.176,86.278c-11.122,41.47 3.549,55.778 26.762,50.114c14.42,-3.519 32.057,-16.766 55.267,-52.988c21.967,-33.682 109.189,-178.687 116.549,-191.289c2.573,-4.727 -5.245,-35.241 -10.563,-26.49Z" style="fill:#ffe33b;fill-rule:nonzero;"/><path d="M7086.8,873.58c-23.917,5.836 -44.503,28.374 -59.925,53.751l43.897,-169.836l-55.571,13.56l-101.439,392.192l55.571,-13.56l10.497,-39.454c7.01,18.04 23.62,31.13 49.999,24.693c31.302,-7.638 79.811,-45.56 102.838,-111.55c39.803,-113.311 1.966,-161.467 -45.867,-149.796Zm-7.864,117.443c-13.593,43.564 -39.102,82.582 -57.04,86.959c-18.289,4.462 -21.972,-27.433 -8.731,-70.911c13.241,-43.478 39.102,-82.582 57.04,-86.959c18.289,-4.462 21.972,27.433 8.731,70.911Z" style="fill:#ffe33b;fill-rule:nonzero;"/><path d="M7429.25,817.598c-5.515,12.525 -48.787,87.181 -82.956,89.183c1.578,-14.918 0.77,-27.392 -0.226,-37.583c-2.053,-25.213 -13.834,-53.641 -33.179,-48.921c-9.144,2.231 -17.353,9.824 -23.297,20.591c-2.763,-8.27 -6.676,-15.141 -13.007,-13.596c-31.303,7.638 -74.175,42.695 -101.55,132.104c-27.374,89.41 10.814,137.481 58.647,125.809c38.689,-9.44 73.498,-47.001 97.846,-113.685c2.59,-7.713 4.914,-14.988 6.887,-22.177c56.661,-4.509 109.444,-115.024 111.751,-119.314c2.573,-4.727 -14.603,-26.249 -20.916,-12.411Zm-183.804,205.837c-18.289,4.463 -21.972,-27.433 -8.731,-70.911c9.845,-32.96 27.137,-62.892 42.5,-77.821c-2.134,20.272 2.921,42.516 18.99,57.973c-9.965,38.579 -28.842,84.923 -52.759,90.759Z" style="fill:#ffe33b;fill-rule:nonzero;"/><path d="M7525.79,766.464c-23.917,5.836 -44.504,28.374 -59.926,53.751l43.898,-169.836l-55.571,13.56l-101.439,392.192l55.571,-13.56l10.496,-39.454c7.011,18.04 23.62,31.13 49.999,24.693c31.303,-7.638 79.812,-45.56 102.839,-111.55c39.803,-113.311 1.966,-161.468 -45.867,-149.796Zm-7.864,117.443c-13.593,43.563 -39.102,82.582 -57.04,86.959c-18.289,4.462 -21.973,-27.433 -8.731,-70.911c13.241,-43.478 39.102,-82.582 57.039,-86.959c18.29,-4.462 21.973,27.433 8.732,70.911Z" style="fill:#ffe33b;fill-rule:nonzero;"/><path d="M7908.46,689.116c-9.667,16.892 -91.169,144.104 -102.14,158.706c-7.256,9.969 -13.458,19.681 -17.396,17.288c-3.5,-2.127 1.276,-23.789 4.235,-34.573c8.172,-32.179 35.639,-138.008 35.639,-138.008l-55.837,13.997c0,0 -4.493,18.239 -11.225,44.104c-9.284,-19.721 -28.605,-34.758 -48.652,-29.866c-30.952,7.552 -69.792,43.861 -101.199,132.018c-31.406,88.158 -3.255,140.914 44.579,129.242c24.268,-5.922 45.035,-29.249 60.723,-55.064c-3.146,28.345 10.324,37.728 30.02,32.922c14.772,-3.604 32.057,-16.765 55.267,-52.987c21.615,-33.596 109.189,-178.687 116.549,-191.29c2.573,-4.727 -5.245,-35.24 -10.563,-26.489Zm-226.515,227.811c-17.938,4.377 -21.973,-27.433 -8.732,-70.911c13.593,-43.564 39.103,-82.582 57.392,-87.044c17.937,-4.377 21.973,27.432 8.38,70.996c-13.242,43.478 -38.751,82.496 -57.04,86.959Z" style="fill:#ffe33b;fill-rule:nonzero;"/><path d="M8031.85,659.008c-9.666,16.892 -91.52,144.19 -102.139,158.706c-7.257,9.969 -13.81,19.767 -17.396,17.288c-3.5,-2.127 1.276,-23.789 4.235,-34.572c8.172,-32.18 68.149,-265.937 68.149,-265.937l-55.923,13.646c-0,-0 -76.956,301.624 -84.94,331.522c-11.123,41.47 3.548,55.778 26.762,50.114c14.772,-3.605 31.705,-16.68 55.267,-52.988c21.615,-33.596 109.189,-178.687 116.548,-191.289c2.573,-4.727 -5.596,-35.155 -10.563,-26.49Z" style="fill:#ffe33b;fill-rule:nonzero;"/><path d="M8123.85,728.393c84.28,-14.044 208.236,88.802 98.232,262.369c-132.818,209.561 -628.481,269.299 -681.615,277.896c-250.19,40.479 -691.061,124.18 -834.483,357.122c0,-0 -219.815,-137.547 -478.401,4.928c13.864,-61.51 180.797,-333.182 748.397,-410.064c527,-71.384 1059.79,-118.871 1188.73,-261.541c140.473,-155.423 -17.869,-240.917 -66.084,-183.945c-17.212,20.339 -38.903,58.353 -47.003,70.942c-23.562,36.307 -40.495,49.383 -55.267,52.987c-23.213,5.664 -37.884,-8.643 -26.762,-50.114c7.984,-29.897 84.94,-331.522 84.94,-331.522l55.923,-13.645c0,-0 -59.976,233.757 -68.149,265.936c-2.958,10.784 -7.735,32.446 -4.234,34.573c3.586,2.479 10.139,-7.319 17.396,-17.288c2.78,-3.801 10.446,-15.337 20.422,-30.599c6.669,-10.203 22.376,-23.773 47.955,-28.035Z" style="fill:#ffe33b;"/></g></svg>