<?xml version="1.0" encoding="UTF-8" standalone="no"?>
<!DOCTYPE svg PUBLIC "-//W3C//DTD SVG 1.1//EN" "http://www.w3.org/Graphics/SVG/1.1/DTD/svg11.dtd">
<svg width="100%" height="100%" viewBox="0 0 528 1024" version="1.1" xmlns="http://www.w3.org/2000/svg" xmlns:xlink="http://www.w3.org/1999/xlink" xml:space="preserve" xmlns:serif="http://www.serif.com/" style="fill-rule:evenodd;clip-rule:evenodd;stroke-linejoin:round;stroke-miterlimit:2;">
    <g transform="matrix(1,0,0,1,-19181.3,-4060.8)">
        <g transform="matrix(6.76212,0,0,6.76212,15004.6,1853.44)">
            <g transform="matrix(1,0,0,1,97.1425,0)">
                <g transform="matrix(0.761528,0,0,0.761528,410.677,357.738)">
                    <g transform="matrix(39.9698,0,0,39.9698,189.242,157.7)">
                    </g>
                    <text x="162.062px" y="157.7px" style="font-family:'Futura-Bold', 'Futura', sans-serif;font-weight:700;font-size:39.97px;fill:rgb(255,227,59);">2</text>
                </g>
                <g transform="matrix(0.457425,0,0,0.457425,480.188,393.917)">
                    <g transform="matrix(31.5156,0,0,31.5156,215.544,157.7)">
                    </g>
                    <text x="162.062px" y="157.7px" style="font-family:'Futura-Bold', 'Futura', sans-serif;font-weight:700;font-size:31.516px;fill:rgb(255,227,59);">ND</text>
                </g>
            </g>
        </g>
        <g transform="matrix(6.76212,0,0,6.76212,15004.6,1853.44)">
            <g id="chicken-and-sausage" serif:id="chicken and sausage" transform="matrix(1.12058,0,0,1.13598,-86.8565,-33.0535)">
                <g transform="matrix(0.315626,0,0,0.311347,675.196,385.827)">
                    <g transform="matrix(1,0,0,1,-73.3333,-90)">
                        <g transform="matrix(1.33333,0,0,1.33333,6.66667,13.3333)">
                            <path d="M20.918,75.344C19.547,75.746 18.039,75.121 17.387,73.793C17.25,73.516 16.504,71.985 15.36,70.758C15.09,70.469 14.801,70.196 14.481,69.985C14.195,69.793 13.871,69.613 13.512,69.801C13.34,69.891 13.16,69.895 13.149,70.024C13.109,70.414 13.332,70.797 13.512,71.141C13.942,71.969 14.508,72.61 14.625,72.742C15.199,73.395 15.461,74.262 15.348,75.121C15.235,75.981 14.75,76.75 14.028,77.227C13.797,77.379 12.496,78.223 11.559,79.399C11.211,79.836 10.664,80.336 11.117,80.871C11.27,81.051 11.5,80.957 11.715,80.922C12.277,80.832 12.856,80.602 13.402,80.336C15.227,79.45 16.77,78.121 16.984,77.965C18.324,76.989 20.199,77.282 21.176,78.621C22.152,79.961 21.859,81.836 20.52,82.813C20.188,83.055 17.352,85.391 14.43,86.399C11.5,87.407 8.563,87.141 6.539,84.75C4.301,82.11 4.598,79.379 5.949,77.004C6.567,75.918 7.461,74.93 8.309,74.137C8.055,73.676 7.817,73.176 7.625,72.657C7.016,70.977 6.926,69.149 7.699,67.504C8.215,66.407 9.121,65.332 10.707,64.496C13.617,62.961 16.324,63.743 18.527,65.532C19.582,66.387 20.488,67.496 21.192,68.512C22.684,64.688 25.348,60.137 31.512,58.801C33.57,58.356 35.937,58.262 38.527,57.989C41.804,57.641 45.504,56.958 49.343,54.27C57.374,48.641 56.726,41.68 57.39,35.633C57.984,30.238 59.355,25.395 64.972,21.75C66.363,20.848 68.218,21.246 69.12,22.637C70.023,24.027 69.624,25.883 68.234,26.785C63.507,29.848 63.476,34.312 63.093,38.992C67.761,37.883 71.554,37.64 76.437,40.715C77.839,41.598 78.261,43.449 77.379,44.851C76.496,46.254 74.644,46.676 73.242,45.793C69.34,43.336 66.418,44.297 62.441,45.348C62.367,45.367 62.296,45.383 62.222,45.398C61.617,48.137 60.597,50.871 58.699,53.504C61.996,55.207 62.328,55.773 65.48,59.125C66.613,60.332 66.554,62.23 65.351,63.367C64.144,64.5 62.246,64.441 61.109,63.238C58.218,60.164 58.312,59.996 54.39,58.055C54.374,58.047 54.355,58.039 54.339,58.027C53.851,58.418 53.331,58.809 52.785,59.191C50.628,60.703 48.511,61.727 46.46,62.437C49.144,66.922 49.05,70.762 48.906,73.613C48.824,75.266 47.413,76.543 45.761,76.461C44.109,76.379 42.831,74.969 42.913,73.317C43.019,71.18 43.183,68.223 40.843,64.793C40.636,64.489 40.492,64.16 40.41,63.821C39.988,63.875 39.57,63.926 39.156,63.969C36.804,64.219 34.648,64.274 32.781,64.68C29.745,65.34 28.218,67.391 27.277,69.395C26.476,71.098 26.046,72.805 25.644,74C25.117,75.571 23.413,76.414 21.843,75.887C21.492,75.77 21.175,75.59 20.906,75.367L20.918,75.344ZM84.606,12.418C84.395,12.25 84.008,12.125 83.579,11.988C81.938,11.465 79.462,11.52 77.895,14.078C77.368,14.937 76.446,15.477 75.438,15.512C74.43,15.547 73.473,15.074 72.891,14.25C72.774,14.082 72.36,13.301 71.696,12.613C71.567,12.48 71.426,12.352 71.274,12.242C71.227,12.207 71.141,12.164 71.09,12.137C71.012,12.184 70.844,12.289 70.715,12.398C70.669,12.477 70.458,12.844 70.376,13.129C69.95,14.629 70.79,16.621 74.751,18.523C76.243,19.242 76.872,21.035 76.157,22.527C75.438,24.02 73.645,24.648 72.153,23.934C67.669,21.781 65.669,19.184 64.825,16.918C63.258,12.719 65.454,9.094 66.59,8.039C68.227,6.523 69.817,6.086 71.212,6.113C72.641,6.144 73.95,6.711 75.044,7.566C75.172,7.668 75.297,7.769 75.419,7.879C78.661,5.262 82.587,5.375 85.407,6.277C87.184,6.848 88.52,7.777 89.176,8.519C89.626,9.027 91.977,12.566 90.766,16.934C90.079,19.414 88.243,22.324 83.692,24.84C82.243,25.641 80.415,25.117 79.614,23.668C78.813,22.219 79.336,20.391 80.786,19.59C83.133,18.293 84.379,16.969 84.875,15.66C85.391,14.293 84.719,12.68 84.606,12.426L84.606,12.418ZM85.864,28.227C84.747,27.004 84.829,25.106 86.047,23.989C87.27,22.871 89.168,22.953 90.286,24.172C91.196,25.164 95.692,29.875 95.04,40.332C94.352,51.324 89.946,61.621 89.196,63.367C88.543,64.887 86.778,65.594 85.254,64.941C83.735,64.289 83.028,62.523 83.68,61C84.368,59.402 88.418,50.004 89.047,39.961C89.52,32.414 86.516,28.945 85.86,28.231L85.864,28.227ZM21.145,86.723C20.063,85.469 20.203,83.575 21.457,82.492C22.711,81.41 24.606,81.551 25.688,82.805C26.391,83.621 27.95,85.879 31.739,87.211C35.957,88.696 42.634,89.039 53.274,85.981C63.223,83.121 74.907,72.161 78.536,67.301C79.528,65.973 81.407,65.703 82.735,66.691C84.063,67.684 84.333,69.562 83.344,70.891C79.274,76.34 66.094,88.539 54.934,91.746C42.5,95.32 34.684,94.601 29.754,92.867C24.399,90.984 22.145,87.874 21.149,86.718L21.145,86.723Z" style="fill:rgb(255,241,0);"/>
                        </g>
                    </g>
                </g>
                <g transform="matrix(0.641793,0,0,0.633091,618.272,308.74)">
                    <path d="M70.113,85.805C70.832,86.516 71.789,86.903 72.781,86.903C73.039,86.903 73.297,86.875 73.554,86.825C74.758,86.575 75.773,85.754 76.265,84.625C76.918,83.125 77.218,81.762 77.152,80.567C78.476,79.848 80.75,78.442 82.066,76.653C83.101,75.25 83.054,73.305 81.949,71.93C80.855,70.567 78.972,70.106 77.367,70.801L75.41,71.653L68.531,63.629L68.765,63.438C70.336,62.133 70.707,59.84 69.629,58.106L68.816,56.801C68.328,56.02 67.957,55.364 67.64,54.735C62.769,45.059 61.488,34.641 61.457,34.426C56.535,11.879 39.937,12.324 33.039,13.571C30.015,14.114 27.105,15.489 24.629,17.547C22.008,19.727 20.023,22.567 18.886,25.762C16.051,33.75 14.301,48.414 34.527,56.926C34.629,56.957 44.64,60.118 53.257,66.672C53.816,67.098 54.394,67.586 55.074,68.207L56.211,69.243C56.988,69.954 57.984,70.313 58.984,70.313C59.808,70.313 60.628,70.051 61.332,69.559L69.589,79.621L69.05,82.375C68.816,83.629 69.207,84.91 70.113,85.805L70.113,85.805ZM57.773,67.543L56.636,66.508C55.906,65.84 55.277,65.309 54.66,64.84C45.703,58.027 35.64,54.855 35.32,54.762C16.945,47.02 18.5,33.754 21.062,26.535C22.058,23.73 23.8,21.238 26.101,19.32C28.273,17.515 30.812,16.312 33.445,15.839C34.925,15.574 36.62,15.382 38.425,15.382C46.074,15.382 55.687,18.839 59.179,34.796C59.23,35.238 60.515,45.71 65.574,55.761C65.921,56.453 66.328,57.168 66.851,58.008L67.663,59.312C68.136,60.074 67.976,61.078 67.284,61.648L60.136,67.593C59.452,68.164 58.433,68.144 57.773,67.543L57.773,67.543ZM63.132,68.113L66.757,65.102L74.214,73.801C74.543,74.184 75.085,74.309 75.55,74.109L78.289,72.918C78.941,72.641 79.707,72.824 80.152,73.375C80.601,73.938 80.625,74.723 80.21,75.285C79.078,76.82 76.847,78.117 75.941,78.602C75.207,78.992 74.777,79.766 74.843,80.578C74.933,81.645 74.519,82.871 74.152,83.707C73.96,84.149 73.562,84.473 73.089,84.57C72.585,84.672 72.101,84.527 71.742,84.172C71.382,83.813 71.23,83.324 71.328,82.828L71.972,79.539C72.039,79.203 71.949,78.852 71.73,78.586L63.132,68.113Z" style="fill:rgb(255,227,59);fill-rule:nonzero;stroke:rgb(255,227,59);stroke-width:1.83px;"/>
                </g>
            </g>
        </g>
    </g>
</svg>
