<?xml version="1.0" encoding="UTF-8" standalone="no"?>
<!DOCTYPE svg PUBLIC "-//W3C//DTD SVG 1.1//EN" "http://www.w3.org/Graphics/SVG/1.1/DTD/svg11.dtd">
<svg width="100%" height="100%" viewBox="0 0 478 1031" version="1.1" xmlns="http://www.w3.org/2000/svg" xmlns:xlink="http://www.w3.org/1999/xlink" xml:space="preserve" xmlns:serif="http://www.serif.com/" style="fill-rule:evenodd;clip-rule:evenodd;stroke-linejoin:round;stroke-miterlimit:2;">
    <g transform="matrix(1,0,0,1,-19919.6,-4058.18)">
        <g transform="matrix(6.76212,0,0,6.76212,15004.6,1853.44)">
            <g transform="matrix(1,0,0,1,202.403,0)">
                <g transform="matrix(0.761528,0,0,0.761528,410.677,357.738)">
                    <g transform="matrix(39.9698,0,0,39.9698,189.242,157.7)">
                    </g>
                    <text x="162.062px" y="157.7px" style="font-family:'Futura-Bold', 'Futura', sans-serif;font-weight:700;font-size:39.97px;fill:rgb(255,227,59);">3</text>
                </g>
                <g transform="matrix(0.457425,0,0,0.457425,480.188,393.917)">
                    <g transform="matrix(31.5156,0,0,31.5156,209.178,157.7)">
                    </g>
                    <text x="162.062px" y="157.7px" style="font-family:'Futura-Bold', 'Futura', sans-serif;font-weight:700;font-size:31.516px;fill:rgb(255,227,59);">RD</text>
                </g>
            </g>
        </g>
        <g transform="matrix(6.76212,0,0,6.76212,15004.6,1853.44)">
            <g id="trinity" transform="matrix(1.12058,0,0,1.13598,-86.8565,-33.0535)">
                <g>
                    <g transform="matrix(0.353658,0,0,0.348862,755.761,347.204)">
                        <path d="M12.648,89.691C12.039,89.691 11.437,89.453 10.992,89.004C7.328,85.339 5.468,80.894 5.468,75.801C5.468,71.519 6.785,66.929 9.375,62.16C12.047,57.249 15.925,52.874 20.906,49.164L41.179,34.058C42.218,33.289 43.683,33.5 44.46,34.539C45.233,35.578 45.018,37.047 43.979,37.82L23.706,52.922C19.273,56.227 15.835,60.086 13.495,64.399C11.277,68.477 10.156,72.313 10.156,75.801C10.156,79.09 11.199,82.024 13.261,84.539C19.183,81.551 22.624,73.957 25.96,66.594C27.96,62.18 29.851,58.012 32.257,54.914C38.472,46.914 47.812,39.617 52.823,35.98C53.87,35.219 55.339,35.453 56.096,36.5C56.858,37.547 56.624,39.012 55.577,39.773C50.764,43.266 41.819,50.246 35.96,57.789C33.893,60.45 32.116,64.375 30.233,68.531C26.425,76.934 22.108,86.457 13.44,89.554C13.182,89.644 12.917,89.691 12.651,89.691L12.648,89.691Z" style="fill:rgb(255,227,59);fill-rule:nonzero;stroke:rgb(255,227,59);stroke-width:2.33px;"/>
                    </g>
                    <g transform="matrix(0.353658,0,0,0.348862,755.761,347.204)">
                        <path d="M24.254,94.531C24.113,94.531 23.969,94.531 23.828,94.527C18.899,94.445 14.578,92.59 10.992,89.004C10.078,88.09 10.078,86.605 10.992,85.691C11.906,84.777 13.391,84.777 14.305,85.691C17,88.386 20.234,89.781 23.91,89.84C27.496,89.922 31.434,88.793 35.586,86.508C39.91,84.156 43.774,80.722 47.074,76.289L67.367,49.051C68.141,48.011 69.609,47.797 70.648,48.57C71.688,49.344 71.902,50.812 71.129,51.847L50.836,79.085C47.125,84.066 42.75,87.945 37.84,90.616C33.125,93.21 28.551,94.531 24.254,94.531L24.254,94.531Z" style="fill:rgb(255,227,59);fill-rule:nonzero;"/>
                    </g>
                    <g transform="matrix(0.353658,0,0,0.348862,755.761,347.204)">
                        <path d="M36.062,72.582C35.183,72.582 34.343,72.086 33.941,71.242C33.386,70.07 33.886,68.676 35.058,68.121C37.296,67.063 40.132,65.637 42.214,64.035C49.75,58.18 56.73,49.234 60.222,44.426C60.98,43.375 62.449,43.145 63.496,43.907C64.542,44.668 64.777,46.133 64.015,47.18C60.379,52.192 53.085,61.528 45.081,67.746C42.636,69.629 39.511,71.203 37.062,72.363C36.738,72.516 36.398,72.59 36.062,72.59L36.062,72.582Z" style="fill:rgb(255,227,59);fill-rule:nonzero;"/>
                    </g>
                    <g transform="matrix(0.353658,0,0,0.348862,755.761,347.204)">
                        <path d="M82.973,58.621C80.219,58.621 77.629,57.547 75.684,55.602C74.774,54.695 74.059,53.637 73.555,52.469C69.469,53.543 64.985,52.41 61.918,49.344C59.828,47.254 58.602,44.484 58.41,41.586C55.512,41.398 52.742,40.172 50.652,38.082C47.586,35.016 46.453,30.527 47.527,26.445C46.363,25.941 45.305,25.226 44.395,24.316C40.375,20.297 40.375,13.757 44.395,9.738C47.609,6.523 52.434,5.859 56.336,7.867C60.382,4.48 66.438,4.687 70.234,8.488C71.46,9.715 72.335,11.203 72.808,12.824C76.8,11.324 81.444,12.191 84.624,15.371C87.803,18.551 88.671,23.199 87.171,27.187C88.792,27.66 90.28,28.535 91.507,29.761C93.452,31.706 94.526,34.296 94.526,37.05C94.526,39.495 93.682,41.812 92.128,43.66C94.135,47.566 93.467,52.386 90.257,55.601C88.311,57.546 85.721,58.62 82.967,58.62L82.973,58.621ZM75.106,47.008C75.469,47.008 75.836,47.094 76.168,47.262C76.856,47.613 77.329,48.281 77.43,49.047C77.594,50.305 78.137,51.426 78.996,52.285C81.125,54.41 84.821,54.41 86.946,52.285C88.981,50.25 89.129,47.024 87.289,44.778C86.887,44.289 86.703,43.66 86.774,43.032C86.844,42.403 87.164,41.832 87.66,41.442L87.864,41.285C87.977,41.2 88.09,41.121 88.192,41.02C89.254,39.957 89.836,38.547 89.836,37.047C89.836,35.547 89.25,34.133 88.192,33.074C86.985,31.864 85.289,31.293 83.543,31.5C82.582,31.614 81.633,31.121 81.184,30.254C80.735,29.387 80.867,28.332 81.52,27.606C83.832,25.032 83.739,21.114 81.309,18.68C78.875,16.25 74.957,16.153 72.383,18.469C71.657,19.125 70.606,19.254 69.735,18.805C68.868,18.356 68.371,17.414 68.489,16.446C68.7,14.699 68.125,13.008 66.918,11.797C64.789,9.672 61.09,9.676 58.969,11.797C58.871,11.895 58.793,12.008 58.711,12.117L58.543,12.332C58.157,12.828 57.582,13.149 56.957,13.215C56.336,13.289 55.704,13.098 55.215,12.699C52.969,10.86 49.743,11.008 47.707,13.043C45.516,15.235 45.516,18.797 47.707,20.992C48.567,21.852 49.688,22.395 50.95,22.559C51.715,22.66 52.383,23.129 52.735,23.821C53.086,24.508 53.075,25.324 52.704,26.004C51.149,28.86 51.668,32.461 53.965,34.758C55.661,36.453 58.094,37.219 60.469,36.805C61.223,36.676 61.989,36.918 62.528,37.457C63.067,37.996 63.309,38.766 63.18,39.516C62.766,41.891 63.532,44.324 65.227,46.02C67.528,48.317 71.122,48.836 73.981,47.281C74.329,47.09 74.715,46.996 75.102,46.996L75.106,47.008Z" style="fill:rgb(255,227,59);fill-rule:nonzero;"/>
                    </g>
                    <g transform="matrix(0.353658,0,0,0.348862,755.761,347.204)">
                        <path d="M65.234,24.738C64.183,24.738 63.226,24.027 62.961,22.961C62.054,19.332 58.914,19.765 57.968,19.984C56.707,20.273 55.453,19.504 55.152,18.254C54.851,17.004 55.605,15.746 56.855,15.433C60.273,14.574 65.945,15.574 67.511,21.828C67.824,23.082 67.062,24.355 65.808,24.672C65.617,24.718 65.425,24.742 65.238,24.742L65.234,24.738Z" style="fill:rgb(255,227,59);fill-rule:nonzero;"/>
                    </g>
                    <g transform="matrix(0.353658,0,0,0.348862,755.761,347.204)">
                        <path d="M81.688,47.32C81.645,47.32 81.602,47.32 81.559,47.316C80.266,47.246 79.278,46.14 79.348,44.847C79.579,40.628 76.946,40.234 76.833,40.218C75.547,40.05 74.645,38.871 74.817,37.589C74.985,36.308 76.169,35.406 77.446,35.574C79.883,35.894 84.399,38.3 84.028,45.105C83.958,46.355 82.926,47.32 81.688,47.32L81.688,47.32Z" style="fill:rgb(255,227,59);fill-rule:nonzero;"/>
                    </g>
                    <g transform="matrix(0.353658,0,0,0.348862,755.761,347.204)">
                        <path d="M68.746,39.844C67.566,39.844 66.551,38.953 66.418,37.754C66.23,36.024 65.672,34.778 64.75,34.039C63.551,33.078 61.984,33.184 61.973,33.188C60.711,33.336 59.531,32.403 59.387,31.118C59.246,29.832 60.172,28.672 61.457,28.532C61.809,28.493 64.976,28.215 67.684,30.387C69.609,31.93 70.75,34.239 71.078,37.25C71.219,38.536 70.289,39.696 69,39.832C68.914,39.84 68.828,39.848 68.742,39.848L68.746,39.844Z" style="fill:rgb(255,227,59);fill-rule:nonzero;"/>
                    </g>
                </g>
                <g transform="matrix(0.444426,0,0,0.4384,720.15,376.393)">
                    <path d="M70.4,28.4C69.7,23.7 67.9,20.5 65,19.1C64,18.6 63,18.4 62.1,18.3C61.6,16.7 60.7,15.4 59.6,14.5C56.5,12 51.8,12.6 48,13.4C48,13.3 48.1,13.2 48.1,13.1C48.4,12.2 48.5,11.5 48.5,10.9C48.5,9.9 48.2,9.3 47.9,8.8C47.3,8 46.4,7.5 45.4,7.5C43.5,7.4 42,8.7 40.8,11.2C40.4,12 40.1,12.9 39.8,13.9C39.6,13.9 39.5,13.8 39.3,13.8C35.1,12.9 29.3,11.6 25.6,14.6C24.5,15.5 23.6,16.8 23.1,18.4C22.1,18.5 21.1,18.7 20.1,19.2C17.2,20.6 15.3,23.7 14.7,28.5C13.4,37.5 16.7,43.9 19.3,49.1C20.3,51.2 21.2,52.9 21.6,54.5C22.3,57.1 22.7,59.4 23.1,61.4C24.1,66.7 24.8,70.2 29.2,72.9C29.7,73.2 30.3,73.5 31.1,73.8C31.5,74.5 32,75 32.6,75.5C35.8,77.7 38.3,76.1 40.1,75C41.1,74.4 42,73.8 42.8,73.8C43.7,73.8 44.6,74.4 45.5,75C47.3,76.1 49.8,77.7 53,75.5C53.7,75 54.3,74.4 54.7,73.6C55.2,73.4 55.6,73.2 56,72.9C60.4,70.2 61,66.7 62.1,61.4C62.5,59.4 62.9,57.2 63.6,54.5C64,52.9 64.9,51.1 65.9,49.1C68.4,43.9 71.6,37.4 70.4,28.4ZM59.2,60.8C58.4,65.1 57.9,67.6 55.7,69.5C55.9,67.7 56,65.5 56,63.2C56.1,59.5 56.2,55.4 57,51.3C57.5,49 58.3,46.5 59.1,44.1C60.3,40.5 61.5,37 61.5,34.1C61.5,32.6 61.4,31.3 61.1,30.2C60.9,29.4 60.7,28.6 60.3,28C60,27.4 59.7,26.9 59.3,26.4C59,26 58.6,25.6 58.2,25.2C57.1,24.3 55.8,23.8 54.5,23.5C53.2,23.2 51.9,23.2 50.6,23.2C50,22.3 49,21.7 48,21.2C47.5,20.9 46.7,20.5 46.4,20.2C46.5,19.2 46.7,17.9 47,16.7C50.5,15.9 55.2,14.9 57.7,16.9C58.3,17.3 58.7,18 59,18.7C56.3,19.2 54.1,20.5 54,20.6C53.3,21 53.1,21.9 53.5,22.5C53.7,22.9 54.1,23.1 54.5,23.2C54.8,23.2 55.1,23.2 55.4,23C55.4,23 57.4,21.8 59.7,21.4C60.2,21.3 60.6,21.3 61.1,21.3C61.6,21.3 62.1,21.3 62.5,21.4C62.9,21.5 63.3,21.6 63.7,21.8C65.7,22.8 67,25.1 67.5,28.9C68.6,37 65.6,43 63.2,47.8C62.1,50 61.1,51.9 60.7,53.8C60,56.5 59.6,58.7 59.2,60.8ZM51.3,73C49.7,74.1 48.8,73.6 47,72.4L46.9,72.4C45.7,71.7 44.4,70.8 42.7,70.8C41,70.8 39.6,71.7 38.4,72.4C38.3,72.5 38.2,72.5 38.1,72.6C36.5,73.6 35.5,74 34.1,73C33.6,72.7 33.3,72.1 33,71.3C32.5,70 32.4,68.1 32.3,65.9C32.3,65.1 32.3,64.3 32.2,63.5L32.2,63C32.1,59.2 32,54.9 31.1,50.6C31,50.2 30.9,49.8 30.8,49.4C30.3,47.3 29.6,45.2 28.9,43.1C28.7,42.6 28.6,42.1 28.4,41.6C28.2,40.9 28,40.3 27.8,39.5C27.2,37.4 26.7,35.5 26.7,34L26.7,33C26.8,32 26.9,31.1 27.1,30.3C27.5,29 28.1,27.9 28.9,27.2C29.4,26.8 30.1,26.4 30.7,26.2C31.7,25.9 32.8,25.8 34,25.8C34.7,25.8 35.3,25.9 36,25.9C37.2,26 38.4,26.3 39.4,26.4C39.6,26.4 39.8,26.5 40,26.5C41,26.7 41.9,26.8 42.6,26.8C43.4,26.8 44.5,26.6 45.8,26.4C47.2,26.1 48.8,25.8 50.4,25.7C51.7,25.6 52.9,25.7 54.1,26C54.9,26.2 55.7,26.6 56.3,27.1C57.1,27.7 57.7,28.7 58,29.9C58.3,30.7 58.4,31.6 58.5,32.7L58.5,34C58.5,36.4 57.4,39.7 56.3,43.1C55.7,44.9 55.1,46.8 54.6,48.7C54.4,49.3 54.3,49.9 54.2,50.6C53.3,54.9 53.2,59.2 53.1,63L53.1,63.7C53.1,64.5 53.1,65.3 53,66C52.9,68.1 52.8,69.8 52.3,71.1C52.2,72 51.9,72.6 51.3,73C51.4,73 51.3,73 51.3,73ZM25.8,60.7C25.4,58.7 25,56.4 24.3,53.7C23.8,51.8 22.9,49.9 21.8,47.7C19.4,42.9 16.4,36.9 17.5,28.8C18,25.1 19.3,22.7 21.3,21.7C21.7,21.5 22.1,21.4 22.5,21.3C23,21.2 23.5,21.2 23.9,21.2C24.4,21.2 24.8,21.3 25.3,21.3C27.6,21.7 29.5,22.8 29.6,22.9C29.9,23.1 30.2,23.1 30.5,23.1C30.9,23 31.3,22.8 31.5,22.4C31.9,21.7 31.7,20.9 31,20.5C30.9,20.4 28.7,19.1 26,18.6C26.3,17.9 26.8,17.3 27.3,16.9C29.9,14.8 34.9,15.9 38.6,16.7C38.7,16.7 38.8,16.7 38.9,16.8C38.6,17.9 38.4,18.9 38.3,19.7C38.2,20 37.2,20.6 36.7,20.9C35.7,21.5 34.6,22.2 34,23.2C32.8,23.2 31.6,23.3 30.4,23.6C29.2,23.9 28.1,24.4 27.1,25.2C26.6,25.6 26.1,26.1 25.7,26.7C25.3,27.2 25,27.8 24.8,28.4C24.5,29.1 24.3,29.8 24.1,30.6C23.9,31.7 23.8,32.8 23.8,34.1C23.8,37 24.9,40.4 26.2,44.1C27,46.5 27.8,49 28.3,51.3C29.2,55.3 29.2,59.5 29.3,63.2C29.3,65.7 29.4,68 29.7,69.9C27.2,67.8 26.7,65.3 25.8,60.7ZM42.5,14.4C42.7,13.7 43,13 43.3,12.4C43.7,11.4 44.4,10.3 45.1,10.3C45.2,10.3 45.4,10.3 45.4,10.4C45.5,10.5 45.5,10.6 45.5,10.9C45.5,11.2 45.4,11.6 45.2,12.2C45.1,12.5 44.9,13.2 44.6,14.1C44.5,14.6 44.3,15.1 44.2,15.6C44.1,16.1 44,16.6 43.9,17.1C43.7,18.1 43.5,19.1 43.5,20L43.5,20.2C43.5,21.9 45.2,22.8 46.6,23.5C46.2,23.6 45.8,23.6 45.4,23.7C44.3,23.9 43.3,24.1 42.7,24.1C42.1,24.1 41.1,23.9 40,23.7C39.3,23.6 38.6,23.4 37.8,23.3C37.9,23.2 38,23.2 38.1,23.1C39.4,22.4 40.8,21.5 41.1,20C41.2,19.2 41.4,18.2 41.7,17.1C41.8,16.6 41.9,16.2 42.1,15.7C42.2,15.4 42.4,14.9 42.5,14.4Z" style="fill:rgb(255,227,59);fill-rule:nonzero;stroke:rgb(255,227,59);stroke-width:1.86px;"/>
                </g>
                <g transform="matrix(0.381416,0,0,0.373285,726.208,313.814)">
                    <path d="M56.379,8.691C56.367,7.883 55.707,7.242 54.91,7.242L45.16,7.242C44.352,7.242 43.699,7.891 43.691,8.691C43.551,17.801 37.633,25.32 31.371,33.293C22.723,44.293 12.922,56.762 18.609,75.254C21.898,86.844 33.898,94.426 49.168,94.563L49.567,94.563C62.587,94.563 77.387,88.634 81.458,75.282C87.157,56.762 77.356,44.294 68.708,33.294C62.446,25.333 56.528,17.806 56.388,8.692L56.379,8.691ZM49.801,89.308C40.43,68.796 40.442,48.257 49.832,28.16C59.024,47.762 59.012,68.308 49.801,89.308ZM46.578,89.34C38.457,85.699 32.976,78.09 31.328,67.918C29.379,55.867 33.449,39.719 46.387,28.609C37.559,48.589 37.618,68.98 46.579,89.339L46.578,89.34ZM53.301,28.692C66.012,40.313 69.789,56.801 67.66,68.942C65.949,78.672 60.66,85.954 52.949,89.442C61.789,68.622 61.91,48.231 53.3,28.692L53.301,28.692ZM21.43,74.411C16.192,57.36 25.078,46.052 33.68,35.11C39.942,27.149 45.871,19.61 46.571,10.188L48.559,10.188L48.559,23.219C31.52,34.981 26.137,54.297 28.418,68.391C30.09,78.672 35.598,86.801 43.598,91.141C34.27,89.719 24.387,84.82 21.438,74.411L21.43,74.411ZM78.641,74.411C75.692,84.09 66.2,89.352 56.36,91.013C63.782,86.821 68.84,79.251 70.571,69.454C73.051,55.352 68.071,35.782 51.52,23.395L51.52,10.184L53.508,10.184C54.207,19.606 60.137,27.145 66.387,35.106C74.989,46.047 83.887,57.356 78.637,74.407L78.641,74.411Z" style="fill:rgb(255,227,59);fill-rule:nonzero;stroke:rgb(255,227,59);stroke-width:2.17px;"/>
                </g>
            </g>
        </g>
    </g>
</svg>
