<?xml version="1.0" encoding="UTF-8" standalone="no"?>
<!DOCTYPE svg PUBLIC "-//W3C//DTD SVG 1.1//EN" "http://www.w3.org/Graphics/SVG/1.1/DTD/svg11.dtd">
<svg width="100%" height="100%" viewBox="0 0 515 983" version="1.1" xmlns="http://www.w3.org/2000/svg" xmlns:xlink="http://www.w3.org/1999/xlink" xml:space="preserve" xmlns:serif="http://www.serif.com/" style="fill-rule:evenodd;clip-rule:evenodd;stroke-linejoin:round;stroke-miterlimit:2;">
    <g transform="matrix(1,0,0,1,-20559.4,-4102.32)">
        <g transform="matrix(6.76212,0,0,6.76212,15004.6,1853.44)">
            <g transform="matrix(1,0,0,1,305.33,0)">
                <g transform="matrix(0.761528,0,0,0.761528,410.677,357.738)">
                    <g transform="matrix(39.9698,0,0,39.9698,189.242,157.7)">
                    </g>
                    <text x="162.062px" y="157.7px" style="font-family:'Futura-Bold', 'Futura', sans-serif;font-weight:700;font-size:39.97px;fill:rgb(255,227,59);">4</text>
                </g>
                <g transform="matrix(0.457425,0,0,0.457425,480.188,393.917)">
                    <g transform="matrix(31.5156,0,0,31.5156,205.144,157.7)">
                    </g>
                    <text x="162.062px" y="157.7px" style="font-family:'Futura-Bold', 'Futura', sans-serif;font-weight:700;font-size:31.516px;fill:rgb(255,227,59);">TH</text>
                </g>
            </g>
        </g>
        <g transform="matrix(6.76212,0,0,6.76212,15004.6,1853.44)">
            <g id="cook" transform="matrix(0.634621,0,0,0.634621,859.534,380.167)">
                <g transform="matrix(1,0,0,1,-60,-75)">
                    <g transform="matrix(1.33333,0,0,1.33333,0,0)">
                        <path d="M25.363,25.54C25.363,27.446 34.156,28.994 44.999,28.994C55.847,28.994 64.637,27.447 64.637,25.54C64.637,24.42 61.581,23.423 56.863,22.79C55.445,24.681 53.204,25.923 50.655,25.923C47.805,25.923 45.34,24.376 43.985,22.09C33.617,22.185 25.363,23.692 25.363,25.54Z" style="fill:rgb(255,241,0);fill-rule:nonzero;"/>
                    </g>
                    <g transform="matrix(1.33333,0,0,1.33333,0,0)">
                        <path d="M84.075,54.142C84.075,45.462 81.207,37.137 75.931,30.313C77.037,28.914 77.341,27.542 77.341,26.459C77.341,19.885 67.096,17.101 58.077,15.926C58.286,16.632 58.436,17.365 58.436,18.141C58.436,18.231 58.414,18.311 58.408,18.401C58.38,19.254 58.213,20.068 57.929,20.83C67.035,22.112 72.437,24.584 72.437,26.46C72.437,29.104 61.749,32.946 44.998,32.946C28.25,32.946 17.56,29.104 17.56,26.46C17.56,23.918 27.464,20.277 43.119,20.001C43.021,19.605 42.96,19.194 42.919,18.778L42.936,18.778C42.919,18.565 42.873,18.361 42.873,18.142C42.873,17.058 43.099,16.023 43.501,15.084C36.713,15.213 12.655,16.383 12.655,26.46C12.655,27.543 12.96,28.915 14.066,30.314C8.79,37.137 5.921,45.463 5.921,54.143C5.921,65.691 11.108,74.25 20.614,79.258C19.712,82.404 19.223,86.314 21.725,87.439C24.351,88.617 27.089,85.3 28.836,82.434C33.566,83.695 38.966,84.357 44.997,84.357C51.031,84.357 56.425,83.696 61.155,82.435C62.905,85.3 65.648,88.615 68.267,87.439C70.771,86.316 70.281,82.404 69.38,79.26C78.889,74.249 84.075,65.689 84.075,54.142ZM70.39,31.392C75.82,37.438 79.17,45.392 79.17,54.142C79.17,75.061 60.588,79.451 44.999,79.451C29.412,79.451 10.829,75.061 10.829,54.142C10.829,45.392 14.179,37.442 19.61,31.389C25.171,34.032 35.112,35.398 44.999,35.398C54.886,35.397 64.829,34.031 70.39,31.392Z" style="fill:rgb(255,241,0);fill-rule:nonzero;"/>
                    </g>
                    <g transform="matrix(1.33333,0,0,1.33333,0,0)">
                        <path d="M50.654,23.374C53.546,23.374 55.888,21.033 55.888,18.141C55.888,15.254 53.545,12.911 50.654,12.911C47.767,12.911 45.423,15.254 45.423,18.141C45.423,21.032 47.768,23.374 50.654,23.374Z" style="fill:rgb(255,241,0);fill-rule:nonzero;"/>
                    </g>
                    <g transform="matrix(1.33333,0,0,1.33333,0,0)">
                        <circle cx="62.905" cy="10.089" r="3.595" style="fill:rgb(255,241,0);"/>
                    </g>
                    <g transform="matrix(1.33333,0,0,1.33333,0,0)">
                        <circle cx="52.616" cy="5.048" r="2.73" style="fill:rgb(255,241,0);"/>
                    </g>
                </g>
            </g>
        </g>
    </g>
</svg>
