<?xml version="1.0" encoding="UTF-8" standalone="no"?>
<!DOCTYPE svg PUBLIC "-//W3C//DTD SVG 1.1//EN" "http://www.w3.org/Graphics/SVG/1.1/DTD/svg11.dtd">
<svg width="100%" height="100%" viewBox="0 0 2416 1191" version="1.1" xmlns="http://www.w3.org/2000/svg" xmlns:xlink="http://www.w3.org/1999/xlink" xml:space="preserve" xmlns:serif="http://www.serif.com/" style="fill-rule:evenodd;clip-rule:evenodd;stroke-linejoin:round;stroke-miterlimit:2;">
    <g transform="matrix(1,0,0,1,-18556.8,-8316.86)">
        <g transform="matrix(0.660563,0,0,0.62067,5524.35,8264.06)">
            <g id="gumboball" transform="matrix(14.473,0,0,15.4033,10800.7,108.835)">
                <path d="M661.004,60.188C659.936,62.055 650.892,76.119 649.68,77.733C648.917,78.825 648.193,79.907 647.797,79.633C647.41,79.398 647.938,77.005 648.226,75.823C649.168,72.258 650.239,68.044 650.239,68.044L647.218,68.822L638.824,70.87C638.241,71.013 637.763,71.417 637.615,71.989L636.735,74.798C636.646,75.107 636.732,75.457 636.953,75.691C637.175,75.925 637.495,76.053 637.806,75.977L642.546,74.821C640.318,79.523 636.813,85.072 631.334,86.409C624.767,88.011 623.138,80.833 626.377,70.82C629.616,60.806 635.654,55.01 638.685,54.27C642.571,53.322 643.111,59.078 638.343,65.018C638.343,65.018 641.533,66.957 643.095,65.258C648.464,59.419 646.468,48.707 637.763,50.831C633.333,51.912 624.553,57.101 619.318,70.236C612.498,87.341 621.465,95.405 630.364,93.233C634.172,92.304 637.31,89.809 639.841,86.68C639.572,89.628 641.05,90.626 643.188,90.104C644.82,89.706 646.691,88.261 649.294,84.25C651.682,80.538 661.319,64.517 662.132,63.124C662.455,62.593 661.553,59.231 661.004,60.188Z" style="fill:rgb(255,227,59);fill-rule:nonzero;"/>
                <path d="M687.11,53.818C686.042,55.685 676.998,69.749 675.825,71.353C675.023,72.455 674.299,73.537 673.903,73.263C673.516,73.028 674.044,70.635 674.37,69.444C675.273,65.888 678.308,54.195 678.308,54.195L672.139,55.742C672.139,55.742 671.375,58.687 670.413,62.504C669.067,67.114 664.188,75.634 662.011,76.165C659.758,76.715 660.326,73.982 660.653,72.791C661.556,69.235 664.591,57.543 664.591,57.543L658.421,59.089C658.421,59.089 654.176,75.606 653.294,78.91C652.074,83.53 653.905,87.489 657.791,86.541C660.317,85.925 664.13,80.63 667.169,75.03C666.783,76.483 666.476,77.587 666.337,78.197C665.108,82.779 666.729,84.36 669.293,83.734C670.925,83.336 672.796,81.891 675.4,77.88C677.788,74.168 687.464,58.138 688.277,56.745C688.561,56.223 687.658,52.861 687.11,53.818Z" style="fill:rgb(255,227,59);fill-rule:nonzero;"/>
                <path d="M730.216,43.3C729.148,45.167 720.143,59.222 718.931,60.835C718.168,61.927 717.444,63.01 717.048,62.736C716.622,62.51 717.15,60.117 717.477,58.925C718.379,55.37 718.717,54.053 719.243,51.989C720.821,45.634 717.995,44.512 715.002,45.242C713.137,45.697 707.91,48.743 702.593,60.869C703.149,58.592 703.437,57.41 703.893,55.734C705.684,49.574 702.684,48.248 699.653,48.987C697.826,49.433 692.599,52.479 687.282,64.605L690.724,51.207L684.585,52.705L677.037,81.845L683.177,80.347L683.226,80.211L683.177,80.347C685.953,69.788 693.958,57.541 696.212,56.991C697.533,56.669 697.436,58.463 696.573,61.844C695.55,65.922 692.464,78.081 692.464,78.081L698.604,76.582C698.604,76.582 698.793,75.836 699.09,74.693C702.232,64.621 709.424,53.767 711.523,53.255C712.844,52.933 712.795,54.756 711.893,58.147C710.941,61.838 710.325,64.376 709.443,67.679C708.214,72.261 709.835,73.842 712.399,73.216C713.993,72.827 715.941,71.364 718.506,67.362C720.933,63.64 730.57,47.619 731.383,46.227C731.667,45.705 730.803,42.333 730.216,43.3Z" style="fill:rgb(255,227,59);fill-rule:nonzero;"/>
                <path d="M739.304,39.312C736.662,39.957 734.387,42.447 732.683,45.251L737.533,26.486L731.393,27.985L720.186,71.316L726.326,69.818L727.485,65.459C728.26,67.452 730.095,68.898 733.01,68.187C736.468,67.343 741.828,63.153 744.372,55.863C748.769,43.343 744.589,38.023 739.304,39.312ZM738.435,52.288C736.933,57.101 734.115,61.412 732.133,61.896C730.112,62.389 729.705,58.865 731.168,54.061C732.631,49.257 735.489,44.937 737.471,44.453C739.491,43.96 739.898,47.484 738.435,52.288Z" style="fill:rgb(255,227,59);fill-rule:nonzero;"/>
                <path d="M777.14,33.127C776.531,34.511 771.75,42.759 767.974,42.98C768.149,41.332 768.059,39.954 767.949,38.828C767.723,36.042 766.421,32.901 764.284,33.423C763.273,33.669 762.366,34.508 761.71,35.698C761.404,34.784 760.972,34.025 760.273,34.196C756.814,35.04 752.077,38.913 749.053,48.791C746.028,58.67 750.247,63.981 755.532,62.692C759.807,61.649 763.653,57.499 766.343,50.131C766.629,49.279 766.886,48.475 767.104,47.681C773.364,47.183 779.196,34.972 779.451,34.498C779.735,33.976 777.837,31.598 777.14,33.127ZM756.832,55.869C754.811,56.362 754.404,52.838 755.867,48.034C756.955,44.393 758.866,41.086 760.563,39.436C760.327,41.676 760.886,44.134 762.661,45.841C761.56,50.104 759.475,55.224 756.832,55.869Z" style="fill:rgb(255,227,59);fill-rule:nonzero;"/>
                <path d="M787.807,27.477C785.164,28.122 782.89,30.612 781.186,33.416L786.036,14.652L779.896,16.15L768.688,59.481L774.828,57.983L775.988,53.624C776.762,55.617 778.598,57.064 781.512,56.352C784.971,55.509 790.33,51.319 792.874,44.028C797.272,31.508 793.092,26.188 787.807,27.477ZM786.938,40.453C785.436,45.266 782.618,49.577 780.636,50.061C778.615,50.554 778.208,47.03 779.671,42.226C781.134,37.423 783.991,33.102 785.973,32.618C787.994,32.125 788.401,35.649 786.938,40.453Z" style="fill:rgb(255,227,59);fill-rule:nonzero;"/>
                <path d="M830.086,18.931C829.018,20.798 820.013,34.853 818.801,36.466C817.999,37.568 817.314,38.641 816.879,38.376C816.492,38.141 817.02,35.748 817.347,34.557C818.25,31.001 821.285,19.308 821.285,19.308L815.116,20.855C815.116,20.855 814.619,22.87 813.875,25.728C812.85,23.549 810.715,21.888 808.5,22.428C805.08,23.262 800.789,27.274 797.319,37.014C793.849,46.754 796.959,52.583 802.244,51.294C804.925,50.639 807.22,48.062 808.953,45.21C808.606,48.342 810.094,49.378 812.27,48.847C813.902,48.449 815.812,46.995 818.376,42.993C820.764,39.281 830.44,23.251 831.253,21.858C831.538,21.336 830.674,17.965 830.086,18.931ZM805.059,44.101C803.078,44.585 802.632,41.07 804.095,36.267C805.597,31.454 808.415,27.143 810.436,26.649C812.418,26.166 812.863,29.68 811.362,34.494C809.899,39.297 807.08,43.608 805.059,44.101Z" style="fill:rgb(255,227,59);fill-rule:nonzero;"/>
                <path d="M843.719,15.605C842.651,17.471 833.607,31.536 832.434,33.14C831.632,34.241 830.908,35.324 830.512,35.05C830.125,34.815 830.653,32.421 830.98,31.23C831.883,27.675 838.509,1.848 838.509,1.848L832.331,3.355C832.331,3.355 823.828,36.681 822.946,39.984C821.717,44.566 823.338,46.147 825.903,45.521C827.535,45.123 829.406,43.678 832.009,39.667C834.397,35.955 844.073,19.924 844.886,18.532C845.17,18.009 844.268,14.648 843.719,15.605Z" style="fill:rgb(255,227,59);fill-rule:nonzero;"/>
                <path d="M853.884,23.271C863.196,21.719 876.891,33.082 864.737,52.259C850.063,75.413 795.299,82.013 789.428,82.963C761.786,87.435 713.076,96.683 697.23,122.42C697.23,122.42 672.943,107.223 644.373,122.964C645.905,116.168 664.348,86.152 727.06,77.658C785.287,69.771 844.152,64.524 858.399,48.761C873.919,31.589 856.425,22.143 851.098,28.438C849.196,30.685 846.799,34.885 845.905,36.276C843.301,40.287 841.43,41.732 839.798,42.13C837.234,42.756 835.613,41.175 836.841,36.593C837.724,33.29 846.226,-0.035 846.226,-0.035L852.405,-1.543C852.405,-1.543 845.778,24.284 844.875,27.839C844.548,29.031 844.021,31.424 844.407,31.659C844.804,31.933 845.528,30.851 846.329,29.749C846.637,29.329 847.484,28.055 848.586,26.368C849.323,25.241 851.058,23.742 853.884,23.271Z" style="fill:rgb(255,227,59);"/>
            </g>
        </g>
    </g>
</svg>
