<?xml version="1.0" encoding="UTF-8" standalone="no"?>
<!DOCTYPE svg PUBLIC "-//W3C//DTD SVG 1.1//EN" "http://www.w3.org/Graphics/SVG/1.1/DTD/svg11.dtd">
<svg width="100%" height="100%" viewBox="0 0 10625 5977" version="1.1" xmlns="http://www.w3.org/2000/svg" xmlns:xlink="http://www.w3.org/1999/xlink" xml:space="preserve" xmlns:serif="http://www.serif.com/" style="fill-rule:evenodd;clip-rule:evenodd;stroke-linecap:round;stroke-linejoin:round;stroke-miterlimit:1.5;">
    <g transform="matrix(1,0,0,1,-14452,0)">
        <g id="Artboard2" transform="matrix(0.7459,0,0,1,3671.93,0)">
            <rect x="14452.4" y="0" width="14244.1" height="5976.38" style="fill:none;"/>
            <clipPath id="_clip1">
                <rect x="14452.4" y="0" width="14244.1" height="5976.38"/>
            </clipPath>
            <g clip-path="url(#_clip1)">
                <g id="background" transform="matrix(10.0594,0,0,10.2687,14452.4,-9.09495e-13)">
                    <rect x="0" y="0" width="1416" height="582" style="fill:rgb(165,110,148);"/>
                </g>
                <g id="grid-lines" serif:id="grid lines" transform="matrix(9.06572,0,0,6.76212,15202.8,1853.44)">
                    <g transform="matrix(1.01307,0,0,1.04088,-18.3038,-19.4481)">
                        <path d="M189.823,251.373L28.045,251.373L28.045,183.666L513.695,183.666L513.695,251.373L189.823,251.373L189.823,506.252L352.653,506.252L352.653,251.373" style="fill:none;stroke:white;stroke-width:2.98px;"/>
                    </g>
                    <g transform="matrix(1.01307,0,0,1.04088,-18.3038,-19.4481)">
                        <path d="M1076.91,251.373L915.13,251.373L915.13,379.708L1400.78,379.708L1400.78,251.373L1076.91,251.373L1076.91,506.252L1239.74,506.252L1239.74,251.373" style="fill:none;stroke:white;stroke-width:2.98px;"/>
                    </g>
                    <g transform="matrix(1.01307,0,0,1.04088,-18.3038,-19.4481)">
                        <path d="M1400.78,111.898C1400.09,95.723 1386.38,82.798 1369.59,82.798L915.13,82.798L915.13,251.373L915.13,183.666L1400.78,183.666L1400.78,251.373L1400.78,155.969C1400.8,156.394 1400.81,112.121 1400.81,112.551L1400.81,475.869C1400.81,492.638 1386.82,506.252 1369.59,506.252L714.412,506.252L714.412,303.132L814.771,303.132L814.771,506.252L915.13,506.252L915.13,303.132L614.054,303.132L614.054,506.252L714.412,506.252L513.695,506.252L513.695,303.132L614.054,303.132L513.695,303.132L513.695,183.666" style="fill:none;stroke:white;stroke-width:2.98px;"/>
                    </g>
                    <g transform="matrix(1.01307,0,0,1.04088,-18.3038,-19.4481)">
                        <path d="M513.695,208.223L513.695,82.798L59.263,82.798C42.033,82.798 28.045,96.413 28.045,113.182L28.045,379.708L513.695,379.708L513.695,506.252L59.263,506.252C42.033,506.252 28.045,492.638 28.045,475.869L28.045,379.708" style="fill:none;stroke:white;stroke-width:2.98px;"/>
                    </g>
                    <path d="M502.104,171.726L908.783,171.726L502.104,171.726Z" style="fill:none;stroke:white;stroke-width:3.07px;"/>
                </g>
                <g id="Grid" transform="matrix(9.06572,0,0,6.76212,15193.3,1853.44)">
                    <g transform="matrix(1.57045,0,0,1.57045,717.469,215.359)">
                        <g transform="matrix(37.3567,0,0,37.3567,187.465,157.7)">
                        </g>
                        <text x="162.062px" y="157.7px" style="font-family:'Futura-Bold', 'Futura', sans-serif;font-weight:700;font-size:37.357px;fill:rgb(255,227,59);">8</text>
                    </g>
                    <g transform="matrix(1,0,0,1,1061.35,1.74328)">
                        <g transform="matrix(1.57045,0,0,1.57045,-144.998,223.528)">
                            <g transform="matrix(27.1685,0,0,27.1685,195.751,157.7)">
                            </g>
                            <text x="162.062px" y="157.7px" style="font-family:'Futura-Bold', 'Futura', sans-serif;font-weight:700;font-size:27.169px;fill:rgb(255,227,59);">1<tspan x="177.277px " y="157.7px ">1</tspan></text>
                        </g>
                        <g transform="matrix(1.57045,0,0,1.57045,-170.302,199.973)">
                            <g transform="matrix(9.33917,0,0,9.33917,177.322,157.7)">
                            </g>
                            <text x="162.062px" y="157.7px" style="font-family:'Futura-Bold', 'Futura', sans-serif;font-weight:700;font-size:9.339px;fill:rgb(255,227,59);">OR</text>
                        </g>
                        <g transform="matrix(1.57045,0,0,1.57045,-225.257,190.461)">
                            <g transform="matrix(27.1685,0,0,27.1685,197.925,157.7)">
                            </g>
                            <text x="162.062px" y="157.7px" style="font-family:'Futura-Bold', 'Futura', sans-serif;font-weight:700;font-size:27.169px;fill:rgb(255,227,59);">1<tspan x="179.45px " y="157.7px ">0</tspan></text>
                        </g>
                    </g>
                    <g transform="matrix(1,0,0,1,1210.85,0.159284)">
                        <g transform="matrix(1.57045,0,0,1.57045,-149.105,229.722)">
                            <g transform="matrix(27.1685,0,0,27.1685,197.164,157.7)">
                            </g>
                            <text x="162.062px" y="157.7px" style="font-family:'Futura-Bold', 'Futura', sans-serif;font-weight:700;font-size:27.169px;fill:rgb(255,227,59);">1<tspan x="178.689px " y="157.7px ">2</tspan></text>
                        </g>
                        <g transform="matrix(1.57045,0,0,1.57045,-170.302,199.973)">
                            <g transform="matrix(9.33917,0,0,9.33917,177.322,157.7)">
                            </g>
                            <text x="162.062px" y="157.7px" style="font-family:'Futura-Bold', 'Futura', sans-serif;font-weight:700;font-size:9.339px;fill:rgb(255,227,59);">OR</text>
                        </g>
                        <g transform="matrix(1.57045,0,0,1.57045,-200.43,192.002)">
                            <g transform="matrix(27.1685,0,0,27.1685,180.537,157.7)">
                            </g>
                            <text x="162.062px" y="157.7px" style="font-family:'Futura-Bold', 'Futura', sans-serif;font-weight:700;font-size:27.169px;fill:rgb(255,227,59);">9</text>
                        </g>
                    </g>
                    <g transform="matrix(0.292103,0,0,0.292103,1237.58,303.083)">
                        <g transform="matrix(39.9698,0,0,39.9698,384.254,157.7)">
                        </g>
                        <text x="162.062px" y="157.7px" style="font-family:'Futura-Bold', 'Futura', sans-serif;font-weight:700;font-size:39.97px;fill:rgb(255,227,59);">B<tspan x="189.481px 224.935px 257.07px 270.66px 298.039px 330.095px " y="157.7px 157.7px 157.7px 157.7px 157.7px 157.7px ">OX CAR</tspan>S</text>
                    </g>
                    <g id="boxcars" transform="matrix(1,0,0,1,1062.56,0)">
                        <g transform="matrix(1,0,0,1,160.282,0)">
                            <g transform="matrix(1.09253,0,0,1.08464,54.1455,-25.0254)">
                                <path d="M87.056,284.468L87.056,315.76C87.056,319.574 83.983,322.669 80.197,322.669L48.804,322.669C45.019,322.669 41.945,319.574 41.945,315.76L41.945,284.468C41.945,280.654 45.019,277.559 48.804,277.559L80.197,277.559C83.983,277.559 87.056,280.654 87.056,284.468Z" style="fill:rgb(255,227,59);"/>
                            </g>
                            <g transform="matrix(1,0,0,1,58.5403,0.284672)">
                                <g transform="matrix(1.13217,0,0,1.13217,-188.409,-73.3828)">
                                    <circle cx="209.811" cy="316.014" r="3.914" style="fill:rgb(165,110,148);"/>
                                </g>
                                <g transform="matrix(1.13217,0,0,1.13217,-188.409,-41.7471)">
                                    <circle cx="209.811" cy="316.014" r="3.914" style="fill:rgb(165,110,148);"/>
                                </g>
                                <g transform="matrix(1.13217,0,0,1.13217,-154.528,-41.7471)">
                                    <circle cx="209.811" cy="316.014" r="3.914" style="fill:rgb(165,110,148);"/>
                                </g>
                                <g transform="matrix(1.13217,0,0,1.13217,-188.409,-57.576)">
                                    <circle cx="209.811" cy="316.014" r="3.914" style="fill:rgb(165,110,148);"/>
                                </g>
                                <g transform="matrix(1.13217,0,0,1.13217,-154.605,-57.576)">
                                    <circle cx="209.811" cy="316.014" r="3.914" style="fill:rgb(165,110,148);"/>
                                </g>
                                <g transform="matrix(1.13217,0,0,1.13217,-154.528,-73.4049)">
                                    <circle cx="209.811" cy="316.014" r="3.914" style="fill:rgb(165,110,148);"/>
                                </g>
                            </g>
                        </g>
                        <g transform="matrix(1,0,0,1,101.234,0)">
                            <g transform="matrix(1.09253,0,0,1.08464,54.1455,-25.0254)">
                                <path d="M87.056,284.468L87.056,315.76C87.056,319.574 83.983,322.669 80.197,322.669L48.804,322.669C45.019,322.669 41.945,319.574 41.945,315.76L41.945,284.468C41.945,280.654 45.019,277.559 48.804,277.559L80.197,277.559C83.983,277.559 87.056,280.654 87.056,284.468Z" style="fill:rgb(255,227,59);"/>
                            </g>
                            <g transform="matrix(1,0,0,1,58.5403,0.284672)">
                                <g transform="matrix(1.13217,0,0,1.13217,-188.409,-73.3828)">
                                    <circle cx="209.811" cy="316.014" r="3.914" style="fill:rgb(165,110,148);"/>
                                </g>
                                <g transform="matrix(1.13217,0,0,1.13217,-188.409,-41.7471)">
                                    <circle cx="209.811" cy="316.014" r="3.914" style="fill:rgb(165,110,148);"/>
                                </g>
                                <g transform="matrix(1.13217,0,0,1.13217,-154.528,-41.7471)">
                                    <circle cx="209.811" cy="316.014" r="3.914" style="fill:rgb(165,110,148);"/>
                                </g>
                                <g transform="matrix(1.13217,0,0,1.13217,-188.409,-57.576)">
                                    <circle cx="209.811" cy="316.014" r="3.914" style="fill:rgb(165,110,148);"/>
                                </g>
                                <g transform="matrix(1.13217,0,0,1.13217,-154.605,-57.576)">
                                    <circle cx="209.811" cy="316.014" r="3.914" style="fill:rgb(165,110,148);"/>
                                </g>
                                <g transform="matrix(1.13217,0,0,1.13217,-154.528,-73.4049)">
                                    <circle cx="209.811" cy="316.014" r="3.914" style="fill:rgb(165,110,148);"/>
                                </g>
                            </g>
                        </g>
                    </g>
                    <g transform="matrix(0.292103,0,0,0.292103,1076.47,302.838)">
                        <g transform="matrix(39.9698,0,0,39.9698,381.296,157.7)">
                        </g>
                        <text x="162.062px" y="157.7px" style="font-family:'Futura-Bold', 'Futura', sans-serif;font-weight:700;font-size:39.97px;fill:rgb(255,227,59);">HARD TEN</text>
                    </g>
                    <g id="hard-ten" serif:id="hard ten" transform="matrix(1,0,0,1,900.453,0)">
                        <g transform="matrix(1,0,0,1,160.282,0)">
                            <g transform="matrix(1.09253,0,0,1.08464,54.1455,-25.0254)">
                                <path d="M87.056,284.468L87.056,315.76C87.056,319.574 83.983,322.669 80.197,322.669L48.804,322.669C45.019,322.669 41.945,319.574 41.945,315.76L41.945,284.468C41.945,280.654 45.019,277.559 48.804,277.559L80.197,277.559C83.983,277.559 87.056,280.654 87.056,284.468Z" style="fill:rgb(255,227,59);"/>
                            </g>
                            <g transform="matrix(1,0,0,1,58.5403,0.284672)">
                                <g transform="matrix(1.13217,0,0,1.13217,-188.409,-73.3828)">
                                    <circle cx="209.811" cy="316.014" r="3.914" style="fill:rgb(165,110,148);"/>
                                </g>
                                <g transform="matrix(1.13217,0,0,1.13217,-188.409,-41.7471)">
                                    <circle cx="209.811" cy="316.014" r="3.914" style="fill:rgb(165,110,148);"/>
                                </g>
                                <g transform="matrix(1.13217,0,0,1.13217,-154.528,-41.7471)">
                                    <circle cx="209.811" cy="316.014" r="3.914" style="fill:rgb(165,110,148);"/>
                                </g>
                                <g transform="matrix(1.13217,0,0,1.13217,-171.468,-57.576)">
                                    <circle cx="209.811" cy="316.014" r="3.914" style="fill:rgb(165,110,148);"/>
                                </g>
                                <g transform="matrix(1.13217,0,0,1.13217,-154.528,-73.4049)">
                                    <circle cx="209.811" cy="316.014" r="3.914" style="fill:rgb(165,110,148);"/>
                                </g>
                            </g>
                        </g>
                        <g transform="matrix(1,0,0,1,101.234,0)">
                            <g transform="matrix(1.09253,0,0,1.08464,54.1455,-25.0254)">
                                <path d="M87.056,284.468L87.056,315.76C87.056,319.574 83.983,322.669 80.197,322.669L48.804,322.669C45.019,322.669 41.945,319.574 41.945,315.76L41.945,284.468C41.945,280.654 45.019,277.559 48.804,277.559L80.197,277.559C83.983,277.559 87.056,280.654 87.056,284.468Z" style="fill:rgb(255,227,59);"/>
                            </g>
                            <g transform="matrix(1,0,0,1,58.5403,0.284672)">
                                <g transform="matrix(1.13217,0,0,1.13217,-188.409,-73.3828)">
                                    <circle cx="209.811" cy="316.014" r="3.914" style="fill:rgb(165,110,148);"/>
                                </g>
                                <g transform="matrix(1.13217,0,0,1.13217,-188.409,-41.7471)">
                                    <circle cx="209.811" cy="316.014" r="3.914" style="fill:rgb(165,110,148);"/>
                                </g>
                                <g transform="matrix(1.13217,0,0,1.13217,-154.528,-41.7471)">
                                    <circle cx="209.811" cy="316.014" r="3.914" style="fill:rgb(165,110,148);"/>
                                </g>
                                <g transform="matrix(1.13217,0,0,1.13217,-171.468,-57.576)">
                                    <circle cx="209.811" cy="316.014" r="3.914" style="fill:rgb(165,110,148);"/>
                                </g>
                                <g transform="matrix(1.13217,0,0,1.13217,-154.528,-73.4049)">
                                    <circle cx="209.811" cy="316.014" r="3.914" style="fill:rgb(165,110,148);"/>
                                </g>
                            </g>
                        </g>
                    </g>
                    <g transform="matrix(0.292103,0,0,0.292103,903.478,302.838)">
                        <g transform="matrix(39.9698,0,0,39.9698,427.501,157.7)">
                        </g>
                        <text x="162.062px" y="157.7px" style="font-family:'Futura-Bold', 'Futura', sans-serif;font-weight:700;font-size:39.97px;fill:rgb(255,227,59);">HARD EIGHT</text>
                    </g>
                    <g id="hard-eight" serif:id="hard eight" transform="matrix(1,0,0,1,895.457,0)">
                        <g>
                            <g transform="matrix(1.09253,0,0,1.08464,-4.90297,-25.0254)">
                                <path d="M87.056,284.468L87.056,315.76C87.056,319.574 83.983,322.669 80.197,322.669L48.804,322.669C45.019,322.669 41.945,319.574 41.945,315.76L41.945,284.468C41.945,280.654 45.019,277.559 48.804,277.559L80.197,277.559C83.983,277.559 87.056,280.654 87.056,284.468Z" style="fill:rgb(255,227,59);"/>
                            </g>
                            <g transform="matrix(1,0,0,1,-0.50816,0.284672)">
                                <g transform="matrix(1.13217,0,0,1.13217,-188.409,-73.3828)">
                                    <circle cx="209.811" cy="316.014" r="3.914" style="fill:rgb(165,110,148);"/>
                                </g>
                                <g transform="matrix(1.13217,0,0,1.13217,-188.409,-41.7471)">
                                    <circle cx="209.811" cy="316.014" r="3.914" style="fill:rgb(165,110,148);"/>
                                </g>
                                <g transform="matrix(1.13217,0,0,1.13217,-154.528,-41.7471)">
                                    <circle cx="209.811" cy="316.014" r="3.914" style="fill:rgb(165,110,148);"/>
                                </g>
                                <g transform="matrix(1.13217,0,0,1.13217,-154.528,-73.4049)">
                                    <circle cx="209.811" cy="316.014" r="3.914" style="fill:rgb(165,110,148);"/>
                                </g>
                            </g>
                        </g>
                        <g>
                            <g transform="matrix(1.09253,0,0,1.08464,54.1455,-25.0254)">
                                <path d="M87.056,284.468L87.056,315.76C87.056,319.574 83.983,322.669 80.197,322.669L48.804,322.669C45.019,322.669 41.945,319.574 41.945,315.76L41.945,284.468C41.945,280.654 45.019,277.559 48.804,277.559L80.197,277.559C83.983,277.559 87.056,280.654 87.056,284.468Z" style="fill:rgb(255,227,59);"/>
                            </g>
                            <g transform="matrix(1,0,0,1,58.5403,0.284672)">
                                <g transform="matrix(1.13217,0,0,1.13217,-188.409,-73.3828)">
                                    <circle cx="209.811" cy="316.014" r="3.914" style="fill:rgb(165,110,148);"/>
                                </g>
                                <g transform="matrix(1.13217,0,0,1.13217,-188.409,-41.7471)">
                                    <circle cx="209.811" cy="316.014" r="3.914" style="fill:rgb(165,110,148);"/>
                                </g>
                                <g transform="matrix(1.13217,0,0,1.13217,-154.528,-41.7471)">
                                    <circle cx="209.811" cy="316.014" r="3.914" style="fill:rgb(165,110,148);"/>
                                </g>
                                <g transform="matrix(1.13217,0,0,1.13217,-154.528,-73.4049)">
                                    <circle cx="209.811" cy="316.014" r="3.914" style="fill:rgb(165,110,148);"/>
                                </g>
                            </g>
                        </g>
                    </g>
                    <g id="gumbo-time-right" serif:id="gumbo time right" transform="matrix(1,0,0,1,919.563,57.7911)">
                        <g transform="matrix(26.6667,0,0,26.6667,310.596,157.7)">
                        </g>
                        <text x="162.062px" y="157.7px" style="font-family:'Phosphate-Inline', 'Phosphate';font-size:26.667px;fill:rgb(255,227,59);stroke:rgb(165,110,148);stroke-width:0.15px;stroke-linecap:butt;stroke-miterlimit:2;">GUMB<tspan x="232.436px 252.169px " y="157.7px 157.7px ">O </tspan>TIME</text>
                    </g>
                    <g id="gumbos-right" serif:id="gumbos right" transform="matrix(1,0,0,1,892.01,-32.6709)">
                        <g transform="matrix(0.292103,0,0,0.292103,-13.3065,133.149)">
                            <g transform="matrix(39.9698,0,0,39.9698,483.699,157.7)">
                            </g>
                            <text x="162.062px" y="157.7px" style="font-family:'Futura-Bold', 'Futura', sans-serif;font-weight:700;font-size:39.97px;fill:rgb(255,227,59);">3 GUMB<tspan x="339.368px 376.34px " y="157.7px 157.7px ">OS</tspan> 1:1</text>
                        </g>
                        <g transform="matrix(0.292103,0,0,0.292103,104.42,133.149)">
                            <g transform="matrix(39.9698,0,0,39.9698,483.699,157.7)">
                            </g>
                            <text x="162.062px" y="157.7px" style="font-family:'Futura-Bold', 'Futura', sans-serif;font-weight:700;font-size:39.97px;fill:rgb(255,227,59);">4 GUMB<tspan x="339.368px 376.34px " y="157.7px 157.7px ">OS</tspan> 5:1</text>
                        </g>
                        <g transform="matrix(0.292103,0,0,0.292103,221.692,133.149)">
                            <g transform="matrix(39.9698,0,0,39.9698,508.36,157.7)">
                            </g>
                            <text x="162.062px" y="157.7px" style="font-family:'Futura-Bold', 'Futura', sans-serif;font-weight:700;font-size:39.97px;fill:rgb(255,227,59);">5 GUMB<tspan x="339.368px 376.34px " y="157.7px 157.7px ">OS</tspan> 1<tspan x="440.412px 467.591px " y="157.7px 157.7px ">5:</tspan>1</text>
                        </g>
                        <g transform="matrix(0.292103,0,0,0.292103,346.541,133.149)">
                            <g transform="matrix(39.9698,0,0,39.9698,510.878,157.7)">
                            </g>
                            <text x="162.062px" y="157.7px" style="font-family:'Futura-Bold', 'Futura', sans-serif;font-weight:700;font-size:39.97px;fill:rgb(255,227,59);">6 GUMB<tspan x="339.368px 376.34px " y="157.7px 157.7px ">OS</tspan> 35:1</text>
                        </g>
                    </g>
                    <g id="gumbo-slam-right" serif:id="gumbo slam right" transform="matrix(1,0,0,1,876.152,-40.4036)">
                        <g transform="matrix(39.9698,0,0,39.9698,397.884,157.7)">
                        </g>
                        <text x="162.062px" y="157.7px" style="font-family:'Phosphate-Inline', 'Phosphate';font-size:39.97px;fill:rgb(255,227,59);stroke:rgb(165,110,148);stroke-width:0.15px;stroke-linecap:butt;stroke-miterlimit:2;">GUMB<tspan x="267.542px 297.12px " y="157.7px 157.7px ">O </tspan>SL<tspan x="342.126px 367.147px " y="157.7px 157.7px ">AM</tspan></text>
                    </g>
                    <g transform="matrix(1.57045,0,0,1.57045,148.488,215.359)">
                        <g transform="matrix(37.3567,0,0,37.3567,187.465,157.7)">
                        </g>
                        <text x="162.062px" y="157.7px" style="font-family:'Futura-Bold', 'Futura', sans-serif;font-weight:700;font-size:37.357px;fill:rgb(255,227,59);">6</text>
                    </g>
                    <g transform="matrix(1,0,0,1,161.863,1.74328)">
                        <g transform="matrix(1.57045,0,0,1.57045,-149.49,229.722)">
                            <g transform="matrix(37.3567,0,0,37.3567,187.465,157.7)">
                            </g>
                            <text x="162.062px" y="157.7px" style="font-family:'Futura-Bold', 'Futura', sans-serif;font-weight:700;font-size:37.357px;fill:rgb(255,227,59);">4</text>
                        </g>
                        <g transform="matrix(1.57045,0,0,1.57045,-170.302,199.973)">
                            <g transform="matrix(9.33917,0,0,9.33917,177.322,157.7)">
                            </g>
                            <text x="162.062px" y="157.7px" style="font-family:'Futura-Bold', 'Futura', sans-serif;font-weight:700;font-size:9.339px;fill:rgb(255,227,59);">OR</text>
                        </g>
                        <g transform="matrix(1.57045,0,0,1.57045,-209.753,199.973)">
                            <g transform="matrix(37.3567,0,0,37.3567,187.465,157.7)">
                            </g>
                            <text x="162.062px" y="157.7px" style="font-family:'Futura-Bold', 'Futura', sans-serif;font-weight:700;font-size:37.357px;fill:rgb(255,227,59);">3</text>
                        </g>
                    </g>
                    <g transform="matrix(1,0,0,1,1.13583,1.09795)">
                        <g transform="matrix(1.57045,0,0,1.57045,-149.49,229.722)">
                            <g transform="matrix(37.3567,0,0,37.3567,187.465,157.7)">
                            </g>
                            <text x="162.062px" y="157.7px" style="font-family:'Futura-Bold', 'Futura', sans-serif;font-weight:700;font-size:37.357px;fill:rgb(255,227,59);">5</text>
                        </g>
                        <g transform="matrix(1.57045,0,0,1.57045,-169.403,199.973)">
                            <g transform="matrix(9.33917,0,0,9.33917,177.322,157.7)">
                            </g>
                            <text x="162.062px" y="157.7px" style="font-family:'Futura-Bold', 'Futura', sans-serif;font-weight:700;font-size:9.339px;fill:rgb(255,227,59);">OR</text>
                        </g>
                        <g transform="matrix(1.57045,0,0,1.57045,-210.352,199.973)">
                            <g transform="matrix(37.3567,0,0,37.3567,187.465,157.7)">
                            </g>
                            <text x="162.062px" y="157.7px" style="font-family:'Futura-Bold', 'Futura', sans-serif;font-weight:700;font-size:37.357px;fill:rgb(255,227,59);">2</text>
                        </g>
                    </g>
                    <g id="hard-6" serif:id="hard 6" transform="matrix(0.292103,0,0,0.292103,343.887,302.838)">
                        <g transform="matrix(39.9698,0,0,39.9698,372.863,157.7)">
                        </g>
                        <text x="162.062px" y="157.7px" style="font-family:'Futura-Bold', 'Futura', sans-serif;font-weight:700;font-size:39.97px;fill:rgb(255,227,59);">HARD SIX</text>
                    </g>
                    <g id="hard-61" serif:id="hard 6" transform="matrix(1,0,0,1,167.103,0)">
                        <g transform="matrix(1,0,0,1,160.282,0)">
                            <g transform="matrix(1.09253,0,0,1.08464,54.1455,-25.0254)">
                                <path d="M87.056,284.468L87.056,315.76C87.056,319.574 83.983,322.669 80.197,322.669L48.804,322.669C45.019,322.669 41.945,319.574 41.945,315.76L41.945,284.468C41.945,280.654 45.019,277.559 48.804,277.559L80.197,277.559C83.983,277.559 87.056,280.654 87.056,284.468Z" style="fill:rgb(255,227,59);"/>
                            </g>
                            <g transform="matrix(1.13217,0,0,1.13217,-96.8366,-73.3828)">
                                <circle cx="209.811" cy="316.014" r="3.914" style="fill:rgb(165,110,148);"/>
                            </g>
                            <g transform="matrix(1.13217,0,0,1.13217,-112.928,-57.2913)">
                                <circle cx="209.811" cy="316.014" r="3.914" style="fill:rgb(165,110,148);"/>
                            </g>
                            <g transform="matrix(1.13217,0,0,1.13217,-128.878,-41.3417)">
                                <circle cx="209.811" cy="316.014" r="3.914" style="fill:rgb(165,110,148);"/>
                            </g>
                        </g>
                        <g transform="matrix(1,0,0,1,101.234,0)">
                            <g transform="matrix(1.09253,0,0,1.08464,54.1455,-25.0254)">
                                <path d="M87.056,284.468L87.056,315.76C87.056,319.574 83.983,322.669 80.197,322.669L48.804,322.669C45.019,322.669 41.945,319.574 41.945,315.76L41.945,284.468C41.945,280.654 45.019,277.559 48.804,277.559L80.197,277.559C83.983,277.559 87.056,280.654 87.056,284.468Z" style="fill:rgb(255,227,59);"/>
                            </g>
                            <g transform="matrix(1.13217,0,0,1.13217,-96.8366,-73.3828)">
                                <circle cx="209.811" cy="316.014" r="3.914" style="fill:rgb(165,110,148);"/>
                            </g>
                            <g transform="matrix(1.13217,0,0,1.13217,-112.928,-57.2913)">
                                <circle cx="209.811" cy="316.014" r="3.914" style="fill:rgb(165,110,148);"/>
                            </g>
                            <g transform="matrix(1.13217,0,0,1.13217,-128.878,-41.3417)">
                                <circle cx="209.811" cy="316.014" r="3.914" style="fill:rgb(165,110,148);"/>
                            </g>
                        </g>
                    </g>
                    <g id="hard-four" serif:id="hard four" transform="matrix(0.292103,0,0,0.292103,171.281,302.838)">
                        <g transform="matrix(39.9698,0,0,39.9698,420.547,157.7)">
                        </g>
                        <text x="162.062px" y="157.7px" style="font-family:'Futura-Bold', 'Futura', sans-serif;font-weight:700;font-size:39.97px;fill:rgb(255,227,59);">HARD FOUR</text>
                    </g>
                    <g id="hard-4" serif:id="hard 4" transform="matrix(1,0,0,1,1.44298,0)">
                        <g transform="matrix(1,0,0,1,160.282,0)">
                            <g transform="matrix(1.09253,0,0,1.08464,54.1455,-25.0254)">
                                <path d="M87.056,284.468L87.056,315.76C87.056,319.574 83.983,322.669 80.197,322.669L48.804,322.669C45.019,322.669 41.945,319.574 41.945,315.76L41.945,284.468C41.945,280.654 45.019,277.559 48.804,277.559L80.197,277.559C83.983,277.559 87.056,280.654 87.056,284.468Z" style="fill:rgb(255,227,59);"/>
                            </g>
                            <g transform="matrix(1.13217,0,0,1.13217,-96.8366,-73.3828)">
                                <circle cx="209.811" cy="316.014" r="3.914" style="fill:rgb(165,110,148);"/>
                            </g>
                            <g transform="matrix(1.13217,0,0,1.13217,-128.878,-41.3417)">
                                <circle cx="209.811" cy="316.014" r="3.914" style="fill:rgb(165,110,148);"/>
                            </g>
                        </g>
                        <g transform="matrix(1,0,0,1,101.234,0)">
                            <g transform="matrix(1.09253,0,0,1.08464,54.1455,-25.0254)">
                                <path d="M87.056,284.468L87.056,315.76C87.056,319.574 83.983,322.669 80.197,322.669L48.804,322.669C45.019,322.669 41.945,319.574 41.945,315.76L41.945,284.468C41.945,280.654 45.019,277.559 48.804,277.559L80.197,277.559C83.983,277.559 87.056,280.654 87.056,284.468Z" style="fill:rgb(255,227,59);"/>
                            </g>
                            <g transform="matrix(1.13217,0,0,1.13217,-96.8366,-73.3828)">
                                <circle cx="209.811" cy="316.014" r="3.914" style="fill:rgb(165,110,148);"/>
                            </g>
                            <g transform="matrix(1.13217,0,0,1.13217,-128.878,-41.3417)">
                                <circle cx="209.811" cy="316.014" r="3.914" style="fill:rgb(165,110,148);"/>
                            </g>
                        </g>
                    </g>
                    <g id="snake-eyes" serif:id="snake eyes" transform="matrix(0.292103,0,0,0.292103,9.38007,302.838)">
                        <g transform="matrix(39.9698,0,0,39.9698,424.743,157.7)">
                        </g>
                        <text x="162.062px" y="157.7px" style="font-family:'Futura-Bold', 'Futura', sans-serif;font-weight:700;font-size:39.97px;fill:rgb(255,227,59);">SNAKE EYES</text>
                    </g>
                    <g id="snake-eyes1" serif:id="snake eyes">
                        <g>
                            <g transform="matrix(1.09253,0,0,1.08464,-4.90297,-25.0254)">
                                <path d="M87.056,284.468L87.056,315.76C87.056,319.574 83.983,322.669 80.197,322.669L48.804,322.669C45.019,322.669 41.945,319.574 41.945,315.76L41.945,284.468C41.945,280.654 45.019,277.559 48.804,277.559L80.197,277.559C83.983,277.559 87.056,280.654 87.056,284.468Z" style="fill:rgb(255,227,59);"/>
                            </g>
                            <g transform="matrix(1.13217,0,0,1.13217,-171.977,-57.2913)">
                                <circle cx="209.811" cy="316.014" r="3.914" style="fill:rgb(165,110,148);"/>
                            </g>
                        </g>
                        <g>
                            <g transform="matrix(1.09253,0,0,1.08464,54.1455,-25.0254)">
                                <path d="M87.056,284.468L87.056,315.76C87.056,319.574 83.983,322.669 80.197,322.669L48.804,322.669C45.019,322.669 41.945,319.574 41.945,315.76L41.945,284.468C41.945,280.654 45.019,277.559 48.804,277.559L80.197,277.559C83.983,277.559 87.056,280.654 87.056,284.468Z" style="fill:rgb(255,227,59);"/>
                            </g>
                            <g transform="matrix(1.13217,0,0,1.13217,-112.928,-57.2913)">
                                <circle cx="209.811" cy="316.014" r="3.914" style="fill:rgb(165,110,148);"/>
                            </g>
                        </g>
                    </g>
                    <g id="gumbo-time-left" serif:id="gumbo time left" transform="matrix(1,0,0,1,20.4864,57.7911)">
                        <g transform="matrix(26.6667,0,0,26.6667,310.729,157.7)">
                        </g>
                        <text x="162.062px" y="157.7px" style="font-family:'Phosphate-Inline', 'Phosphate';font-size:26.667px;fill:rgb(255,227,59);stroke:rgb(165,110,148);stroke-width:0.15px;stroke-linecap:butt;stroke-miterlimit:2;">Gumbo TIME</text>
                    </g>
                    <g id="gumbos-left" serif:id="gumbos left" transform="matrix(1,0,0,1,-7.00028,-32.6709)">
                        <g transform="matrix(0.292103,0,0,0.292103,-13.3065,133.149)">
                            <g transform="matrix(39.9698,0,0,39.9698,483.699,157.7)">
                            </g>
                            <text x="162.062px" y="157.7px" style="font-family:'Futura-Bold', 'Futura', sans-serif;font-weight:700;font-size:39.97px;fill:rgb(255,227,59);">3 GUMB<tspan x="339.368px 376.34px " y="157.7px 157.7px ">OS</tspan> 1:1</text>
                        </g>
                        <g transform="matrix(0.292103,0,0,0.292103,104.42,133.149)">
                            <g transform="matrix(39.9698,0,0,39.9698,483.699,157.7)">
                            </g>
                            <text x="162.062px" y="157.7px" style="font-family:'Futura-Bold', 'Futura', sans-serif;font-weight:700;font-size:39.97px;fill:rgb(255,227,59);">4 GUMB<tspan x="339.368px 376.34px " y="157.7px 157.7px ">OS</tspan> 5:1</text>
                        </g>
                        <g transform="matrix(0.292103,0,0,0.292103,221.692,133.149)">
                            <g transform="matrix(39.9698,0,0,39.9698,508.36,157.7)">
                            </g>
                            <text x="162.062px" y="157.7px" style="font-family:'Futura-Bold', 'Futura', sans-serif;font-weight:700;font-size:39.97px;fill:rgb(255,227,59);">5 GUMB<tspan x="339.368px 376.34px " y="157.7px 157.7px ">OS</tspan> 1<tspan x="440.412px 467.591px " y="157.7px 157.7px ">5:</tspan>1</text>
                        </g>
                        <g transform="matrix(0.292103,0,0,0.292103,346.541,133.149)">
                            <g transform="matrix(39.9698,0,0,39.9698,510.878,157.7)">
                            </g>
                            <text x="162.062px" y="157.7px" style="font-family:'Futura-Bold', 'Futura', sans-serif;font-weight:700;font-size:39.97px;fill:rgb(255,227,59);">6 GUMB<tspan x="339.368px 376.34px " y="157.7px 157.7px ">OS</tspan> 35:1</text>
                        </g>
                    </g>
                    <g id="Gumbo-slam-left" serif:id="Gumbo slam left" transform="matrix(1,0,0,1,-22.858,-40.4036)">
                        <g transform="matrix(39.9698,0,0,39.9698,397.884,157.7)">
                        </g>
                        <text x="162.062px" y="157.7px" style="font-family:'Phosphate-Inline', 'Phosphate';font-size:39.97px;fill:rgb(255,227,59);stroke:rgb(165,110,148);stroke-width:0.15px;stroke-linecap:butt;stroke-miterlimit:2;">GUMB<tspan x="267.542px 297.12px " y="157.7px 157.7px ">O </tspan>SL<tspan x="342.126px 367.147px " y="157.7px 157.7px ">AM</tspan></text>
                    </g>
                    <g transform="matrix(1,0,0,1,305.33,0)">
                        <g transform="matrix(0.761528,0,0,0.761528,410.677,357.738)">
                            <g transform="matrix(39.9698,0,0,39.9698,189.242,157.7)">
                            </g>
                            <text x="162.062px" y="157.7px" style="font-family:'Futura-Bold', 'Futura', sans-serif;font-weight:700;font-size:39.97px;fill:rgb(255,227,59);">4</text>
                        </g>
                        <g transform="matrix(0.457425,0,0,0.457425,480.188,393.917)">
                            <g transform="matrix(31.5156,0,0,31.5156,205.144,157.7)">
                            </g>
                            <text x="162.062px" y="157.7px" style="font-family:'Futura-Bold', 'Futura', sans-serif;font-weight:700;font-size:31.516px;fill:rgb(255,227,59);">TH</text>
                        </g>
                    </g>
                    <g id="cook" transform="matrix(0.634621,0,0,0.634621,859.534,380.167)">
                        <g transform="matrix(1,0,0,1,-60,-75)">
                            <g transform="matrix(1.33333,0,0,1.33333,0,0)">
                                <path d="M25.363,25.54C25.363,27.446 34.156,28.994 44.999,28.994C55.847,28.994 64.637,27.447 64.637,25.54C64.637,24.42 61.581,23.423 56.863,22.79C55.445,24.681 53.204,25.923 50.655,25.923C47.805,25.923 45.34,24.376 43.985,22.09C33.617,22.185 25.363,23.692 25.363,25.54Z" style="fill:rgb(255,241,0);fill-rule:nonzero;"/>
                            </g>
                            <g transform="matrix(1.33333,0,0,1.33333,0,0)">
                                <path d="M84.075,54.142C84.075,45.462 81.207,37.137 75.931,30.313C77.037,28.914 77.341,27.542 77.341,26.459C77.341,19.885 67.096,17.101 58.077,15.926C58.286,16.632 58.436,17.365 58.436,18.141C58.436,18.231 58.414,18.311 58.408,18.401C58.38,19.254 58.213,20.068 57.929,20.83C67.035,22.112 72.437,24.584 72.437,26.46C72.437,29.104 61.749,32.946 44.998,32.946C28.25,32.946 17.56,29.104 17.56,26.46C17.56,23.918 27.464,20.277 43.119,20.001C43.021,19.605 42.96,19.194 42.919,18.778L42.936,18.778C42.919,18.565 42.873,18.361 42.873,18.142C42.873,17.058 43.099,16.023 43.501,15.084C36.713,15.213 12.655,16.383 12.655,26.46C12.655,27.543 12.96,28.915 14.066,30.314C8.79,37.137 5.921,45.463 5.921,54.143C5.921,65.691 11.108,74.25 20.614,79.258C19.712,82.404 19.223,86.314 21.725,87.439C24.351,88.617 27.089,85.3 28.836,82.434C33.566,83.695 38.966,84.357 44.997,84.357C51.031,84.357 56.425,83.696 61.155,82.435C62.905,85.3 65.648,88.615 68.267,87.439C70.771,86.316 70.281,82.404 69.38,79.26C78.889,74.249 84.075,65.689 84.075,54.142ZM70.39,31.392C75.82,37.438 79.17,45.392 79.17,54.142C79.17,75.061 60.588,79.451 44.999,79.451C29.412,79.451 10.829,75.061 10.829,54.142C10.829,45.392 14.179,37.442 19.61,31.389C25.171,34.032 35.112,35.398 44.999,35.398C54.886,35.397 64.829,34.031 70.39,31.392Z" style="fill:rgb(255,241,0);fill-rule:nonzero;"/>
                            </g>
                            <g transform="matrix(1.33333,0,0,1.33333,0,0)">
                                <path d="M50.654,23.374C53.546,23.374 55.888,21.033 55.888,18.141C55.888,15.254 53.545,12.911 50.654,12.911C47.767,12.911 45.423,15.254 45.423,18.141C45.423,21.032 47.768,23.374 50.654,23.374Z" style="fill:rgb(255,241,0);fill-rule:nonzero;"/>
                            </g>
                            <g transform="matrix(1.33333,0,0,1.33333,0,0)">
                                <circle cx="62.905" cy="10.089" r="3.595" style="fill:rgb(255,241,0);"/>
                            </g>
                            <g transform="matrix(1.33333,0,0,1.33333,0,0)">
                                <circle cx="52.616" cy="5.048" r="2.73" style="fill:rgb(255,241,0);"/>
                            </g>
                        </g>
                    </g>
                    <g transform="matrix(1,0,0,1,202.403,0)">
                        <g transform="matrix(0.761528,0,0,0.761528,410.677,357.738)">
                            <g transform="matrix(39.9698,0,0,39.9698,189.242,157.7)">
                            </g>
                            <text x="162.062px" y="157.7px" style="font-family:'Futura-Bold', 'Futura', sans-serif;font-weight:700;font-size:39.97px;fill:rgb(255,227,59);">3</text>
                        </g>
                        <g transform="matrix(0.457425,0,0,0.457425,480.188,393.917)">
                            <g transform="matrix(31.5156,0,0,31.5156,209.178,157.7)">
                            </g>
                            <text x="162.062px" y="157.7px" style="font-family:'Futura-Bold', 'Futura', sans-serif;font-weight:700;font-size:31.516px;fill:rgb(255,227,59);">RD</text>
                        </g>
                    </g>
                    <g id="trinity" transform="matrix(1.12058,0,0,1.13598,-86.8565,-33.0535)">
                        <g>
                            <g transform="matrix(0.353658,0,0,0.348862,755.761,347.204)">
                                <path d="M12.648,89.691C12.039,89.691 11.437,89.453 10.992,89.004C7.328,85.339 5.468,80.894 5.468,75.801C5.468,71.519 6.785,66.929 9.375,62.16C12.047,57.249 15.925,52.874 20.906,49.164L41.179,34.058C42.218,33.289 43.683,33.5 44.46,34.539C45.233,35.578 45.018,37.047 43.979,37.82L23.706,52.922C19.273,56.227 15.835,60.086 13.495,64.399C11.277,68.477 10.156,72.313 10.156,75.801C10.156,79.09 11.199,82.024 13.261,84.539C19.183,81.551 22.624,73.957 25.96,66.594C27.96,62.18 29.851,58.012 32.257,54.914C38.472,46.914 47.812,39.617 52.823,35.98C53.87,35.219 55.339,35.453 56.096,36.5C56.858,37.547 56.624,39.012 55.577,39.773C50.764,43.266 41.819,50.246 35.96,57.789C33.893,60.45 32.116,64.375 30.233,68.531C26.425,76.934 22.108,86.457 13.44,89.554C13.182,89.644 12.917,89.691 12.651,89.691L12.648,89.691Z" style="fill:rgb(255,227,59);fill-rule:nonzero;stroke:rgb(255,227,59);stroke-width:2.33px;stroke-linecap:butt;stroke-miterlimit:2;"/>
                            </g>
                            <g transform="matrix(0.353658,0,0,0.348862,755.761,347.204)">
                                <path d="M24.254,94.531C24.113,94.531 23.969,94.531 23.828,94.527C18.899,94.445 14.578,92.59 10.992,89.004C10.078,88.09 10.078,86.605 10.992,85.691C11.906,84.777 13.391,84.777 14.305,85.691C17,88.386 20.234,89.781 23.91,89.84C27.496,89.922 31.434,88.793 35.586,86.508C39.91,84.156 43.774,80.722 47.074,76.289L67.367,49.051C68.141,48.011 69.609,47.797 70.648,48.57C71.688,49.344 71.902,50.812 71.129,51.847L50.836,79.085C47.125,84.066 42.75,87.945 37.84,90.616C33.125,93.21 28.551,94.531 24.254,94.531L24.254,94.531Z" style="fill:rgb(255,227,59);fill-rule:nonzero;"/>
                            </g>
                            <g transform="matrix(0.353658,0,0,0.348862,755.761,347.204)">
                                <path d="M36.062,72.582C35.183,72.582 34.343,72.086 33.941,71.242C33.386,70.07 33.886,68.676 35.058,68.121C37.296,67.063 40.132,65.637 42.214,64.035C49.75,58.18 56.73,49.234 60.222,44.426C60.98,43.375 62.449,43.145 63.496,43.907C64.542,44.668 64.777,46.133 64.015,47.18C60.379,52.192 53.085,61.528 45.081,67.746C42.636,69.629 39.511,71.203 37.062,72.363C36.738,72.516 36.398,72.59 36.062,72.59L36.062,72.582Z" style="fill:rgb(255,227,59);fill-rule:nonzero;"/>
                            </g>
                            <g transform="matrix(0.353658,0,0,0.348862,755.761,347.204)">
                                <path d="M82.973,58.621C80.219,58.621 77.629,57.547 75.684,55.602C74.774,54.695 74.059,53.637 73.555,52.469C69.469,53.543 64.985,52.41 61.918,49.344C59.828,47.254 58.602,44.484 58.41,41.586C55.512,41.398 52.742,40.172 50.652,38.082C47.586,35.016 46.453,30.527 47.527,26.445C46.363,25.941 45.305,25.226 44.395,24.316C40.375,20.297 40.375,13.757 44.395,9.738C47.609,6.523 52.434,5.859 56.336,7.867C60.382,4.48 66.438,4.687 70.234,8.488C71.46,9.715 72.335,11.203 72.808,12.824C76.8,11.324 81.444,12.191 84.624,15.371C87.803,18.551 88.671,23.199 87.171,27.187C88.792,27.66 90.28,28.535 91.507,29.761C93.452,31.706 94.526,34.296 94.526,37.05C94.526,39.495 93.682,41.812 92.128,43.66C94.135,47.566 93.467,52.386 90.257,55.601C88.311,57.546 85.721,58.62 82.967,58.62L82.973,58.621ZM75.106,47.008C75.469,47.008 75.836,47.094 76.168,47.262C76.856,47.613 77.329,48.281 77.43,49.047C77.594,50.305 78.137,51.426 78.996,52.285C81.125,54.41 84.821,54.41 86.946,52.285C88.981,50.25 89.129,47.024 87.289,44.778C86.887,44.289 86.703,43.66 86.774,43.032C86.844,42.403 87.164,41.832 87.66,41.442L87.864,41.285C87.977,41.2 88.09,41.121 88.192,41.02C89.254,39.957 89.836,38.547 89.836,37.047C89.836,35.547 89.25,34.133 88.192,33.074C86.985,31.864 85.289,31.293 83.543,31.5C82.582,31.614 81.633,31.121 81.184,30.254C80.735,29.387 80.867,28.332 81.52,27.606C83.832,25.032 83.739,21.114 81.309,18.68C78.875,16.25 74.957,16.153 72.383,18.469C71.657,19.125 70.606,19.254 69.735,18.805C68.868,18.356 68.371,17.414 68.489,16.446C68.7,14.699 68.125,13.008 66.918,11.797C64.789,9.672 61.09,9.676 58.969,11.797C58.871,11.895 58.793,12.008 58.711,12.117L58.543,12.332C58.157,12.828 57.582,13.149 56.957,13.215C56.336,13.289 55.704,13.098 55.215,12.699C52.969,10.86 49.743,11.008 47.707,13.043C45.516,15.235 45.516,18.797 47.707,20.992C48.567,21.852 49.688,22.395 50.95,22.559C51.715,22.66 52.383,23.129 52.735,23.821C53.086,24.508 53.075,25.324 52.704,26.004C51.149,28.86 51.668,32.461 53.965,34.758C55.661,36.453 58.094,37.219 60.469,36.805C61.223,36.676 61.989,36.918 62.528,37.457C63.067,37.996 63.309,38.766 63.18,39.516C62.766,41.891 63.532,44.324 65.227,46.02C67.528,48.317 71.122,48.836 73.981,47.281C74.329,47.09 74.715,46.996 75.102,46.996L75.106,47.008Z" style="fill:rgb(255,227,59);fill-rule:nonzero;"/>
                            </g>
                            <g transform="matrix(0.353658,0,0,0.348862,755.761,347.204)">
                                <path d="M65.234,24.738C64.183,24.738 63.226,24.027 62.961,22.961C62.054,19.332 58.914,19.765 57.968,19.984C56.707,20.273 55.453,19.504 55.152,18.254C54.851,17.004 55.605,15.746 56.855,15.433C60.273,14.574 65.945,15.574 67.511,21.828C67.824,23.082 67.062,24.355 65.808,24.672C65.617,24.718 65.425,24.742 65.238,24.742L65.234,24.738Z" style="fill:rgb(255,227,59);fill-rule:nonzero;"/>
                            </g>
                            <g transform="matrix(0.353658,0,0,0.348862,755.761,347.204)">
                                <path d="M81.688,47.32C81.645,47.32 81.602,47.32 81.559,47.316C80.266,47.246 79.278,46.14 79.348,44.847C79.579,40.628 76.946,40.234 76.833,40.218C75.547,40.05 74.645,38.871 74.817,37.589C74.985,36.308 76.169,35.406 77.446,35.574C79.883,35.894 84.399,38.3 84.028,45.105C83.958,46.355 82.926,47.32 81.688,47.32L81.688,47.32Z" style="fill:rgb(255,227,59);fill-rule:nonzero;"/>
                            </g>
                            <g transform="matrix(0.353658,0,0,0.348862,755.761,347.204)">
                                <path d="M68.746,39.844C67.566,39.844 66.551,38.953 66.418,37.754C66.23,36.024 65.672,34.778 64.75,34.039C63.551,33.078 61.984,33.184 61.973,33.188C60.711,33.336 59.531,32.403 59.387,31.118C59.246,29.832 60.172,28.672 61.457,28.532C61.809,28.493 64.976,28.215 67.684,30.387C69.609,31.93 70.75,34.239 71.078,37.25C71.219,38.536 70.289,39.696 69,39.832C68.914,39.84 68.828,39.848 68.742,39.848L68.746,39.844Z" style="fill:rgb(255,227,59);fill-rule:nonzero;"/>
                            </g>
                        </g>
                        <g transform="matrix(0.444426,0,0,0.4384,720.15,376.393)">
                            <path d="M70.4,28.4C69.7,23.7 67.9,20.5 65,19.1C64,18.6 63,18.4 62.1,18.3C61.6,16.7 60.7,15.4 59.6,14.5C56.5,12 51.8,12.6 48,13.4C48,13.3 48.1,13.2 48.1,13.1C48.4,12.2 48.5,11.5 48.5,10.9C48.5,9.9 48.2,9.3 47.9,8.8C47.3,8 46.4,7.5 45.4,7.5C43.5,7.4 42,8.7 40.8,11.2C40.4,12 40.1,12.9 39.8,13.9C39.6,13.9 39.5,13.8 39.3,13.8C35.1,12.9 29.3,11.6 25.6,14.6C24.5,15.5 23.6,16.8 23.1,18.4C22.1,18.5 21.1,18.7 20.1,19.2C17.2,20.6 15.3,23.7 14.7,28.5C13.4,37.5 16.7,43.9 19.3,49.1C20.3,51.2 21.2,52.9 21.6,54.5C22.3,57.1 22.7,59.4 23.1,61.4C24.1,66.7 24.8,70.2 29.2,72.9C29.7,73.2 30.3,73.5 31.1,73.8C31.5,74.5 32,75 32.6,75.5C35.8,77.7 38.3,76.1 40.1,75C41.1,74.4 42,73.8 42.8,73.8C43.7,73.8 44.6,74.4 45.5,75C47.3,76.1 49.8,77.7 53,75.5C53.7,75 54.3,74.4 54.7,73.6C55.2,73.4 55.6,73.2 56,72.9C60.4,70.2 61,66.7 62.1,61.4C62.5,59.4 62.9,57.2 63.6,54.5C64,52.9 64.9,51.1 65.9,49.1C68.4,43.9 71.6,37.4 70.4,28.4ZM59.2,60.8C58.4,65.1 57.9,67.6 55.7,69.5C55.9,67.7 56,65.5 56,63.2C56.1,59.5 56.2,55.4 57,51.3C57.5,49 58.3,46.5 59.1,44.1C60.3,40.5 61.5,37 61.5,34.1C61.5,32.6 61.4,31.3 61.1,30.2C60.9,29.4 60.7,28.6 60.3,28C60,27.4 59.7,26.9 59.3,26.4C59,26 58.6,25.6 58.2,25.2C57.1,24.3 55.8,23.8 54.5,23.5C53.2,23.2 51.9,23.2 50.6,23.2C50,22.3 49,21.7 48,21.2C47.5,20.9 46.7,20.5 46.4,20.2C46.5,19.2 46.7,17.9 47,16.7C50.5,15.9 55.2,14.9 57.7,16.9C58.3,17.3 58.7,18 59,18.7C56.3,19.2 54.1,20.5 54,20.6C53.3,21 53.1,21.9 53.5,22.5C53.7,22.9 54.1,23.1 54.5,23.2C54.8,23.2 55.1,23.2 55.4,23C55.4,23 57.4,21.8 59.7,21.4C60.2,21.3 60.6,21.3 61.1,21.3C61.6,21.3 62.1,21.3 62.5,21.4C62.9,21.5 63.3,21.6 63.7,21.8C65.7,22.8 67,25.1 67.5,28.9C68.6,37 65.6,43 63.2,47.8C62.1,50 61.1,51.9 60.7,53.8C60,56.5 59.6,58.7 59.2,60.8ZM51.3,73C49.7,74.1 48.8,73.6 47,72.4L46.9,72.4C45.7,71.7 44.4,70.8 42.7,70.8C41,70.8 39.6,71.7 38.4,72.4C38.3,72.5 38.2,72.5 38.1,72.6C36.5,73.6 35.5,74 34.1,73C33.6,72.7 33.3,72.1 33,71.3C32.5,70 32.4,68.1 32.3,65.9C32.3,65.1 32.3,64.3 32.2,63.5L32.2,63C32.1,59.2 32,54.9 31.1,50.6C31,50.2 30.9,49.8 30.8,49.4C30.3,47.3 29.6,45.2 28.9,43.1C28.7,42.6 28.6,42.1 28.4,41.6C28.2,40.9 28,40.3 27.8,39.5C27.2,37.4 26.7,35.5 26.7,34L26.7,33C26.8,32 26.9,31.1 27.1,30.3C27.5,29 28.1,27.9 28.9,27.2C29.4,26.8 30.1,26.4 30.7,26.2C31.7,25.9 32.8,25.8 34,25.8C34.7,25.8 35.3,25.9 36,25.9C37.2,26 38.4,26.3 39.4,26.4C39.6,26.4 39.8,26.5 40,26.5C41,26.7 41.9,26.8 42.6,26.8C43.4,26.8 44.5,26.6 45.8,26.4C47.2,26.1 48.8,25.8 50.4,25.7C51.7,25.6 52.9,25.7 54.1,26C54.9,26.2 55.7,26.6 56.3,27.1C57.1,27.7 57.7,28.7 58,29.9C58.3,30.7 58.4,31.6 58.5,32.7L58.5,34C58.5,36.4 57.4,39.7 56.3,43.1C55.7,44.9 55.1,46.8 54.6,48.7C54.4,49.3 54.3,49.9 54.2,50.6C53.3,54.9 53.2,59.2 53.1,63L53.1,63.7C53.1,64.5 53.1,65.3 53,66C52.9,68.1 52.8,69.8 52.3,71.1C52.2,72 51.9,72.6 51.3,73C51.4,73 51.3,73 51.3,73ZM25.8,60.7C25.4,58.7 25,56.4 24.3,53.7C23.8,51.8 22.9,49.9 21.8,47.7C19.4,42.9 16.4,36.9 17.5,28.8C18,25.1 19.3,22.7 21.3,21.7C21.7,21.5 22.1,21.4 22.5,21.3C23,21.2 23.5,21.2 23.9,21.2C24.4,21.2 24.8,21.3 25.3,21.3C27.6,21.7 29.5,22.8 29.6,22.9C29.9,23.1 30.2,23.1 30.5,23.1C30.9,23 31.3,22.8 31.5,22.4C31.9,21.7 31.7,20.9 31,20.5C30.9,20.4 28.7,19.1 26,18.6C26.3,17.9 26.8,17.3 27.3,16.9C29.9,14.8 34.9,15.9 38.6,16.7C38.7,16.7 38.8,16.7 38.9,16.8C38.6,17.9 38.4,18.9 38.3,19.7C38.2,20 37.2,20.6 36.7,20.9C35.7,21.5 34.6,22.2 34,23.2C32.8,23.2 31.6,23.3 30.4,23.6C29.2,23.9 28.1,24.4 27.1,25.2C26.6,25.6 26.1,26.1 25.7,26.7C25.3,27.2 25,27.8 24.8,28.4C24.5,29.1 24.3,29.8 24.1,30.6C23.9,31.7 23.8,32.8 23.8,34.1C23.8,37 24.9,40.4 26.2,44.1C27,46.5 27.8,49 28.3,51.3C29.2,55.3 29.2,59.5 29.3,63.2C29.3,65.7 29.4,68 29.7,69.9C27.2,67.8 26.7,65.3 25.8,60.7ZM42.5,14.4C42.7,13.7 43,13 43.3,12.4C43.7,11.4 44.4,10.3 45.1,10.3C45.2,10.3 45.4,10.3 45.4,10.4C45.5,10.5 45.5,10.6 45.5,10.9C45.5,11.2 45.4,11.6 45.2,12.2C45.1,12.5 44.9,13.2 44.6,14.1C44.5,14.6 44.3,15.1 44.2,15.6C44.1,16.1 44,16.6 43.9,17.1C43.7,18.1 43.5,19.1 43.5,20L43.5,20.2C43.5,21.9 45.2,22.8 46.6,23.5C46.2,23.6 45.8,23.6 45.4,23.7C44.3,23.9 43.3,24.1 42.7,24.1C42.1,24.1 41.1,23.9 40,23.7C39.3,23.6 38.6,23.4 37.8,23.3C37.9,23.2 38,23.2 38.1,23.1C39.4,22.4 40.8,21.5 41.1,20C41.2,19.2 41.4,18.2 41.7,17.1C41.8,16.6 41.9,16.2 42.1,15.7C42.2,15.4 42.4,14.9 42.5,14.4Z" style="fill:rgb(255,227,59);fill-rule:nonzero;stroke:rgb(255,227,59);stroke-width:1.86px;stroke-linecap:butt;stroke-miterlimit:2;"/>
                        </g>
                        <g transform="matrix(0.381416,0,0,0.373285,726.208,313.814)">
                            <path d="M56.379,8.691C56.367,7.883 55.707,7.242 54.91,7.242L45.16,7.242C44.352,7.242 43.699,7.891 43.691,8.691C43.551,17.801 37.633,25.32 31.371,33.293C22.723,44.293 12.922,56.762 18.609,75.254C21.898,86.844 33.898,94.426 49.168,94.563L49.567,94.563C62.587,94.563 77.387,88.634 81.458,75.282C87.157,56.762 77.356,44.294 68.708,33.294C62.446,25.333 56.528,17.806 56.388,8.692L56.379,8.691ZM49.801,89.308C40.43,68.796 40.442,48.257 49.832,28.16C59.024,47.762 59.012,68.308 49.801,89.308ZM46.578,89.34C38.457,85.699 32.976,78.09 31.328,67.918C29.379,55.867 33.449,39.719 46.387,28.609C37.559,48.589 37.618,68.98 46.579,89.339L46.578,89.34ZM53.301,28.692C66.012,40.313 69.789,56.801 67.66,68.942C65.949,78.672 60.66,85.954 52.949,89.442C61.789,68.622 61.91,48.231 53.3,28.692L53.301,28.692ZM21.43,74.411C16.192,57.36 25.078,46.052 33.68,35.11C39.942,27.149 45.871,19.61 46.571,10.188L48.559,10.188L48.559,23.219C31.52,34.981 26.137,54.297 28.418,68.391C30.09,78.672 35.598,86.801 43.598,91.141C34.27,89.719 24.387,84.82 21.438,74.411L21.43,74.411ZM78.641,74.411C75.692,84.09 66.2,89.352 56.36,91.013C63.782,86.821 68.84,79.251 70.571,69.454C73.051,55.352 68.071,35.782 51.52,23.395L51.52,10.184L53.508,10.184C54.207,19.606 60.137,27.145 66.387,35.106C74.989,46.047 83.887,57.356 78.637,74.407L78.641,74.411Z" style="fill:rgb(255,227,59);fill-rule:nonzero;stroke:rgb(255,227,59);stroke-width:2.17px;stroke-linecap:butt;stroke-miterlimit:2;"/>
                        </g>
                    </g>
                    <g transform="matrix(1,0,0,1,97.1425,0)">
                        <g transform="matrix(0.761528,0,0,0.761528,410.677,357.738)">
                            <g transform="matrix(39.9698,0,0,39.9698,189.242,157.7)">
                            </g>
                            <text x="162.062px" y="157.7px" style="font-family:'Futura-Bold', 'Futura', sans-serif;font-weight:700;font-size:39.97px;fill:rgb(255,227,59);">2</text>
                        </g>
                        <g transform="matrix(0.457425,0,0,0.457425,480.188,393.917)">
                            <g transform="matrix(31.5156,0,0,31.5156,215.544,157.7)">
                            </g>
                            <text x="162.062px" y="157.7px" style="font-family:'Futura-Bold', 'Futura', sans-serif;font-weight:700;font-size:31.516px;fill:rgb(255,227,59);">ND</text>
                        </g>
                    </g>
                    <g id="chicken-and-sausage" serif:id="chicken and sausage" transform="matrix(1.12058,0,0,1.13598,-86.8565,-33.0535)">
                        <g transform="matrix(0.315626,0,0,0.311347,675.196,385.827)">
                            <g transform="matrix(1,0,0,1,-73.3333,-90)">
                                <g transform="matrix(1.33333,0,0,1.33333,6.66667,13.3333)">
                                    <path d="M20.918,75.344C19.547,75.746 18.039,75.121 17.387,73.793C17.25,73.516 16.504,71.985 15.36,70.758C15.09,70.469 14.801,70.196 14.481,69.985C14.195,69.793 13.871,69.613 13.512,69.801C13.34,69.891 13.16,69.895 13.149,70.024C13.109,70.414 13.332,70.797 13.512,71.141C13.942,71.969 14.508,72.61 14.625,72.742C15.199,73.395 15.461,74.262 15.348,75.121C15.235,75.981 14.75,76.75 14.028,77.227C13.797,77.379 12.496,78.223 11.559,79.399C11.211,79.836 10.664,80.336 11.117,80.871C11.27,81.051 11.5,80.957 11.715,80.922C12.277,80.832 12.856,80.602 13.402,80.336C15.227,79.45 16.77,78.121 16.984,77.965C18.324,76.989 20.199,77.282 21.176,78.621C22.152,79.961 21.859,81.836 20.52,82.813C20.188,83.055 17.352,85.391 14.43,86.399C11.5,87.407 8.563,87.141 6.539,84.75C4.301,82.11 4.598,79.379 5.949,77.004C6.567,75.918 7.461,74.93 8.309,74.137C8.055,73.676 7.817,73.176 7.625,72.657C7.016,70.977 6.926,69.149 7.699,67.504C8.215,66.407 9.121,65.332 10.707,64.496C13.617,62.961 16.324,63.743 18.527,65.532C19.582,66.387 20.488,67.496 21.192,68.512C22.684,64.688 25.348,60.137 31.512,58.801C33.57,58.356 35.937,58.262 38.527,57.989C41.804,57.641 45.504,56.958 49.343,54.27C57.374,48.641 56.726,41.68 57.39,35.633C57.984,30.238 59.355,25.395 64.972,21.75C66.363,20.848 68.218,21.246 69.12,22.637C70.023,24.027 69.624,25.883 68.234,26.785C63.507,29.848 63.476,34.312 63.093,38.992C67.761,37.883 71.554,37.64 76.437,40.715C77.839,41.598 78.261,43.449 77.379,44.851C76.496,46.254 74.644,46.676 73.242,45.793C69.34,43.336 66.418,44.297 62.441,45.348C62.367,45.367 62.296,45.383 62.222,45.398C61.617,48.137 60.597,50.871 58.699,53.504C61.996,55.207 62.328,55.773 65.48,59.125C66.613,60.332 66.554,62.23 65.351,63.367C64.144,64.5 62.246,64.441 61.109,63.238C58.218,60.164 58.312,59.996 54.39,58.055C54.374,58.047 54.355,58.039 54.339,58.027C53.851,58.418 53.331,58.809 52.785,59.191C50.628,60.703 48.511,61.727 46.46,62.437C49.144,66.922 49.05,70.762 48.906,73.613C48.824,75.266 47.413,76.543 45.761,76.461C44.109,76.379 42.831,74.969 42.913,73.317C43.019,71.18 43.183,68.223 40.843,64.793C40.636,64.489 40.492,64.16 40.41,63.821C39.988,63.875 39.57,63.926 39.156,63.969C36.804,64.219 34.648,64.274 32.781,64.68C29.745,65.34 28.218,67.391 27.277,69.395C26.476,71.098 26.046,72.805 25.644,74C25.117,75.571 23.413,76.414 21.843,75.887C21.492,75.77 21.175,75.59 20.906,75.367L20.918,75.344ZM84.606,12.418C84.395,12.25 84.008,12.125 83.579,11.988C81.938,11.465 79.462,11.52 77.895,14.078C77.368,14.937 76.446,15.477 75.438,15.512C74.43,15.547 73.473,15.074 72.891,14.25C72.774,14.082 72.36,13.301 71.696,12.613C71.567,12.48 71.426,12.352 71.274,12.242C71.227,12.207 71.141,12.164 71.09,12.137C71.012,12.184 70.844,12.289 70.715,12.398C70.669,12.477 70.458,12.844 70.376,13.129C69.95,14.629 70.79,16.621 74.751,18.523C76.243,19.242 76.872,21.035 76.157,22.527C75.438,24.02 73.645,24.648 72.153,23.934C67.669,21.781 65.669,19.184 64.825,16.918C63.258,12.719 65.454,9.094 66.59,8.039C68.227,6.523 69.817,6.086 71.212,6.113C72.641,6.144 73.95,6.711 75.044,7.566C75.172,7.668 75.297,7.769 75.419,7.879C78.661,5.262 82.587,5.375 85.407,6.277C87.184,6.848 88.52,7.777 89.176,8.519C89.626,9.027 91.977,12.566 90.766,16.934C90.079,19.414 88.243,22.324 83.692,24.84C82.243,25.641 80.415,25.117 79.614,23.668C78.813,22.219 79.336,20.391 80.786,19.59C83.133,18.293 84.379,16.969 84.875,15.66C85.391,14.293 84.719,12.68 84.606,12.426L84.606,12.418ZM85.864,28.227C84.747,27.004 84.829,25.106 86.047,23.989C87.27,22.871 89.168,22.953 90.286,24.172C91.196,25.164 95.692,29.875 95.04,40.332C94.352,51.324 89.946,61.621 89.196,63.367C88.543,64.887 86.778,65.594 85.254,64.941C83.735,64.289 83.028,62.523 83.68,61C84.368,59.402 88.418,50.004 89.047,39.961C89.52,32.414 86.516,28.945 85.86,28.231L85.864,28.227ZM21.145,86.723C20.063,85.469 20.203,83.575 21.457,82.492C22.711,81.41 24.606,81.551 25.688,82.805C26.391,83.621 27.95,85.879 31.739,87.211C35.957,88.696 42.634,89.039 53.274,85.981C63.223,83.121 74.907,72.161 78.536,67.301C79.528,65.973 81.407,65.703 82.735,66.691C84.063,67.684 84.333,69.562 83.344,70.891C79.274,76.34 66.094,88.539 54.934,91.746C42.5,95.32 34.684,94.601 29.754,92.867C24.399,90.984 22.145,87.874 21.149,86.718L21.145,86.723Z" style="fill:rgb(255,241,0);"/>
                                </g>
                            </g>
                        </g>
                        <g transform="matrix(0.641793,0,0,0.633091,618.272,308.74)">
                            <path d="M70.113,85.805C70.832,86.516 71.789,86.903 72.781,86.903C73.039,86.903 73.297,86.875 73.554,86.825C74.758,86.575 75.773,85.754 76.265,84.625C76.918,83.125 77.218,81.762 77.152,80.567C78.476,79.848 80.75,78.442 82.066,76.653C83.101,75.25 83.054,73.305 81.949,71.93C80.855,70.567 78.972,70.106 77.367,70.801L75.41,71.653L68.531,63.629L68.765,63.438C70.336,62.133 70.707,59.84 69.629,58.106L68.816,56.801C68.328,56.02 67.957,55.364 67.64,54.735C62.769,45.059 61.488,34.641 61.457,34.426C56.535,11.879 39.937,12.324 33.039,13.571C30.015,14.114 27.105,15.489 24.629,17.547C22.008,19.727 20.023,22.567 18.886,25.762C16.051,33.75 14.301,48.414 34.527,56.926C34.629,56.957 44.64,60.118 53.257,66.672C53.816,67.098 54.394,67.586 55.074,68.207L56.211,69.243C56.988,69.954 57.984,70.313 58.984,70.313C59.808,70.313 60.628,70.051 61.332,69.559L69.589,79.621L69.05,82.375C68.816,83.629 69.207,84.91 70.113,85.805L70.113,85.805ZM57.773,67.543L56.636,66.508C55.906,65.84 55.277,65.309 54.66,64.84C45.703,58.027 35.64,54.855 35.32,54.762C16.945,47.02 18.5,33.754 21.062,26.535C22.058,23.73 23.8,21.238 26.101,19.32C28.273,17.515 30.812,16.312 33.445,15.839C34.925,15.574 36.62,15.382 38.425,15.382C46.074,15.382 55.687,18.839 59.179,34.796C59.23,35.238 60.515,45.71 65.574,55.761C65.921,56.453 66.328,57.168 66.851,58.008L67.663,59.312C68.136,60.074 67.976,61.078 67.284,61.648L60.136,67.593C59.452,68.164 58.433,68.144 57.773,67.543L57.773,67.543ZM63.132,68.113L66.757,65.102L74.214,73.801C74.543,74.184 75.085,74.309 75.55,74.109L78.289,72.918C78.941,72.641 79.707,72.824 80.152,73.375C80.601,73.938 80.625,74.723 80.21,75.285C79.078,76.82 76.847,78.117 75.941,78.602C75.207,78.992 74.777,79.766 74.843,80.578C74.933,81.645 74.519,82.871 74.152,83.707C73.96,84.149 73.562,84.473 73.089,84.57C72.585,84.672 72.101,84.527 71.742,84.172C71.382,83.813 71.23,83.324 71.328,82.828L71.972,79.539C72.039,79.203 71.949,78.852 71.73,78.586L63.132,68.113Z" style="fill:rgb(255,227,59);fill-rule:nonzero;stroke:rgb(255,227,59);stroke-width:1.83px;stroke-linecap:butt;stroke-miterlimit:2;"/>
                        </g>
                    </g>
                    <g transform="matrix(1,0,0,1,-1.43711,0)">
                        <g transform="matrix(0.761528,0,0,0.761528,412.213,357.738)">
                            <g transform="matrix(39.9698,0,0,39.9698,189.242,157.7)">
                            </g>
                            <text x="162.062px" y="157.7px" style="font-family:'Futura-Bold', 'Futura', sans-serif;font-weight:700;font-size:39.97px;fill:rgb(255,227,59);">1</text>
                        </g>
                        <g transform="matrix(0.457425,0,0,0.457425,480.188,393.917)">
                            <g transform="matrix(31.5156,0,0,31.5156,199.408,157.7)">
                            </g>
                            <text x="162.062px" y="157.7px" style="font-family:'Futura-Bold', 'Futura', sans-serif;font-weight:700;font-size:31.516px;fill:rgb(255,227,59);">S<tspan x="182.579px " y="157.7px ">T</tspan></text>
                        </g>
                    </g>
                    <g id="roux" transform="matrix(1,0,0,1,352.022,233.122)">
                        <g transform="matrix(32,0,0,32,242.478,157.7)">
                        </g>
                        <text x="162.062px" y="157.7px" style="font-family:'Phosphate-Inline', 'Phosphate';font-size:32px;fill:rgb(255,227,59);stroke:rgb(165,110,148);stroke-width:0.15px;stroke-linecap:butt;stroke-miterlimit:2;">roux</text>
                    </g>
                    <g transform="matrix(1,0,0,1,450.469,95.0386)">
                        <g transform="matrix(40,0,0,40,349.422,157.7)">
                        </g>
                        <text x="162.062px" y="157.7px" style="font-family:'Phosphate-Inline', 'Phosphate';font-size:40px;fill:rgb(255,227,59);stroke:rgb(165,110,148);stroke-width:0.15px;stroke-linecap:butt;stroke-miterlimit:2;">SEVEN OUT</text>
                    </g>
                </g>
                <g id="gumboball" transform="matrix(12.8172,0,0,9.56034,12048.5,1651.99)">
                    <path d="M661.004,60.188C659.936,62.055 650.892,76.119 649.68,77.733C648.917,78.825 648.193,79.907 647.797,79.633C647.41,79.398 647.938,77.005 648.226,75.823C649.168,72.258 650.239,68.044 650.239,68.044L647.218,68.822L638.824,70.87C638.241,71.013 637.763,71.417 637.615,71.989L636.735,74.798C636.646,75.107 636.732,75.457 636.953,75.691C637.175,75.925 637.495,76.053 637.806,75.977L642.546,74.821C640.318,79.523 636.813,85.072 631.334,86.409C624.767,88.011 623.138,80.833 626.377,70.82C629.616,60.806 635.654,55.01 638.685,54.27C642.571,53.322 643.111,59.078 638.343,65.018C638.343,65.018 641.533,66.957 643.095,65.258C648.464,59.419 646.468,48.707 637.763,50.831C633.333,51.912 624.553,57.101 619.318,70.236C612.498,87.341 621.465,95.405 630.364,93.233C634.172,92.304 637.31,89.809 639.841,86.68C639.572,89.628 641.05,90.626 643.188,90.104C644.82,89.706 646.691,88.261 649.294,84.25C651.682,80.538 661.319,64.517 662.132,63.124C662.455,62.593 661.553,59.231 661.004,60.188Z" style="fill:rgb(255,227,59);fill-rule:nonzero;"/>
                    <path d="M687.11,53.818C686.042,55.685 676.998,69.749 675.825,71.353C675.023,72.455 674.299,73.537 673.903,73.263C673.516,73.028 674.044,70.635 674.37,69.444C675.273,65.888 678.308,54.195 678.308,54.195L672.139,55.742C672.139,55.742 671.375,58.687 670.413,62.504C669.067,67.114 664.188,75.634 662.011,76.165C659.758,76.715 660.326,73.982 660.653,72.791C661.556,69.235 664.591,57.543 664.591,57.543L658.421,59.089C658.421,59.089 654.176,75.606 653.294,78.91C652.074,83.53 653.905,87.489 657.791,86.541C660.317,85.925 664.13,80.63 667.169,75.03C666.783,76.483 666.476,77.587 666.337,78.197C665.108,82.779 666.729,84.36 669.293,83.734C670.925,83.336 672.796,81.891 675.4,77.88C677.788,74.168 687.464,58.138 688.277,56.745C688.561,56.223 687.658,52.861 687.11,53.818Z" style="fill:rgb(255,227,59);fill-rule:nonzero;"/>
                    <path d="M730.216,43.3C729.148,45.167 720.143,59.222 718.931,60.835C718.168,61.927 717.444,63.01 717.048,62.736C716.622,62.51 717.15,60.117 717.477,58.925C718.379,55.37 718.717,54.053 719.243,51.989C720.821,45.634 717.995,44.512 715.002,45.242C713.137,45.697 707.91,48.743 702.593,60.869C703.149,58.592 703.437,57.41 703.893,55.734C705.684,49.574 702.684,48.248 699.653,48.987C697.826,49.433 692.599,52.479 687.282,64.605L690.724,51.207L684.585,52.705L677.037,81.845L683.177,80.347L683.226,80.211L683.177,80.347C685.953,69.788 693.958,57.541 696.212,56.991C697.533,56.669 697.436,58.463 696.573,61.844C695.55,65.922 692.464,78.081 692.464,78.081L698.604,76.582C698.604,76.582 698.793,75.836 699.09,74.693C702.232,64.621 709.424,53.767 711.523,53.255C712.844,52.933 712.795,54.756 711.893,58.147C710.941,61.838 710.325,64.376 709.443,67.679C708.214,72.261 709.835,73.842 712.399,73.216C713.993,72.827 715.941,71.364 718.506,67.362C720.933,63.64 730.57,47.619 731.383,46.227C731.667,45.705 730.803,42.333 730.216,43.3Z" style="fill:rgb(255,227,59);fill-rule:nonzero;"/>
                    <path d="M739.304,39.312C736.662,39.957 734.387,42.447 732.683,45.251L737.533,26.486L731.393,27.985L720.186,71.316L726.326,69.818L727.485,65.459C728.26,67.452 730.095,68.898 733.01,68.187C736.468,67.343 741.828,63.153 744.372,55.863C748.769,43.343 744.589,38.023 739.304,39.312ZM738.435,52.288C736.933,57.101 734.115,61.412 732.133,61.896C730.112,62.389 729.705,58.865 731.168,54.061C732.631,49.257 735.489,44.937 737.471,44.453C739.491,43.96 739.898,47.484 738.435,52.288Z" style="fill:rgb(255,227,59);fill-rule:nonzero;"/>
                    <path d="M777.14,33.127C776.531,34.511 771.75,42.759 767.974,42.98C768.149,41.332 768.059,39.954 767.949,38.828C767.723,36.042 766.421,32.901 764.284,33.423C763.273,33.669 762.366,34.508 761.71,35.698C761.404,34.784 760.972,34.025 760.273,34.196C756.814,35.04 752.077,38.913 749.053,48.791C746.028,58.67 750.247,63.981 755.532,62.692C759.807,61.649 763.653,57.499 766.343,50.131C766.629,49.279 766.886,48.475 767.104,47.681C773.364,47.183 779.196,34.972 779.451,34.498C779.735,33.976 777.837,31.598 777.14,33.127ZM756.832,55.869C754.811,56.362 754.404,52.838 755.867,48.034C756.955,44.393 758.866,41.086 760.563,39.436C760.327,41.676 760.886,44.134 762.661,45.841C761.56,50.104 759.475,55.224 756.832,55.869Z" style="fill:rgb(255,227,59);fill-rule:nonzero;"/>
                    <path d="M787.807,27.477C785.164,28.122 782.89,30.612 781.186,33.416L786.036,14.652L779.896,16.15L768.688,59.481L774.828,57.983L775.988,53.624C776.762,55.617 778.598,57.064 781.512,56.352C784.971,55.509 790.33,51.319 792.874,44.028C797.272,31.508 793.092,26.188 787.807,27.477ZM786.938,40.453C785.436,45.266 782.618,49.577 780.636,50.061C778.615,50.554 778.208,47.03 779.671,42.226C781.134,37.423 783.991,33.102 785.973,32.618C787.994,32.125 788.401,35.649 786.938,40.453Z" style="fill:rgb(255,227,59);fill-rule:nonzero;"/>
                    <path d="M830.086,18.931C829.018,20.798 820.013,34.853 818.801,36.466C817.999,37.568 817.314,38.641 816.879,38.376C816.492,38.141 817.02,35.748 817.347,34.557C818.25,31.001 821.285,19.308 821.285,19.308L815.116,20.855C815.116,20.855 814.619,22.87 813.875,25.728C812.85,23.549 810.715,21.888 808.5,22.428C805.08,23.262 800.789,27.274 797.319,37.014C793.849,46.754 796.959,52.583 802.244,51.294C804.925,50.639 807.22,48.062 808.953,45.21C808.606,48.342 810.094,49.378 812.27,48.847C813.902,48.449 815.812,46.995 818.376,42.993C820.764,39.281 830.44,23.251 831.253,21.858C831.538,21.336 830.674,17.965 830.086,18.931ZM805.059,44.101C803.078,44.585 802.632,41.07 804.095,36.267C805.597,31.454 808.415,27.143 810.436,26.649C812.418,26.166 812.863,29.68 811.362,34.494C809.899,39.297 807.08,43.608 805.059,44.101Z" style="fill:rgb(255,227,59);fill-rule:nonzero;"/>
                    <path d="M843.719,15.605C842.651,17.471 833.607,31.536 832.434,33.14C831.632,34.241 830.908,35.324 830.512,35.05C830.125,34.815 830.653,32.421 830.98,31.23C831.883,27.675 838.509,1.848 838.509,1.848L832.331,3.355C832.331,3.355 823.828,36.681 822.946,39.984C821.717,44.566 823.338,46.147 825.903,45.521C827.535,45.123 829.406,43.678 832.009,39.667C834.397,35.955 844.073,19.924 844.886,18.532C845.17,18.009 844.268,14.648 843.719,15.605Z" style="fill:rgb(255,227,59);fill-rule:nonzero;"/>
                    <path d="M853.884,23.271C863.196,21.719 876.891,33.082 864.737,52.259C850.063,75.413 795.299,82.013 789.428,82.963C761.786,87.435 713.076,96.683 697.23,122.42C697.23,122.42 672.943,107.223 644.373,122.964C645.905,116.168 664.348,86.152 727.06,77.658C785.287,69.771 844.152,64.524 858.399,48.761C873.919,31.589 856.425,22.143 851.098,28.438C849.196,30.685 846.799,34.885 845.905,36.276C843.301,40.287 841.43,41.732 839.798,42.13C837.234,42.756 835.613,41.175 836.841,36.593C837.724,33.29 846.226,-0.035 846.226,-0.035L852.405,-1.543C852.405,-1.543 845.778,24.284 844.875,27.839C844.548,29.031 844.021,31.424 844.407,31.659C844.804,31.933 845.528,30.851 846.329,29.749C846.637,29.329 847.484,28.055 848.586,26.368C849.323,25.241 851.058,23.742 853.884,23.271Z" style="fill:rgb(255,227,59);"/>
                </g>
            </g>
        </g>
    </g>
</svg>
